G04 #@! TF.GenerationSoftware,KiCad,Pcbnew,(5.1.2-1)-1*
G04 #@! TF.CreationDate,2019-08-25T18:33:29+09:00*
G04 #@! TF.ProjectId,mmk3,6d6d6b33-2e6b-4696-9361-645f70636258,rev?*
G04 #@! TF.SameCoordinates,Original*
G04 #@! TF.FileFunction,Legend,Top*
G04 #@! TF.FilePolarity,Positive*
%FSLAX46Y46*%
G04 Gerber Fmt 4.6, Leading zero omitted, Abs format (unit mm)*
G04 Created by KiCad (PCBNEW (5.1.2-1)-1) date 2019-08-25 18:33:29*
%MOMM*%
%LPD*%
G04 APERTURE LIST*
%ADD10C,0.120000*%
%ADD11C,0.150000*%
%ADD12C,0.010000*%
G04 APERTURE END LIST*
D10*
X158750000Y-74168000D02*
X158750000Y-79248000D01*
X166370000Y-74168000D02*
X158750000Y-74168000D01*
X166370000Y-79248000D02*
X166370000Y-74168000D01*
X158750000Y-79248000D02*
X166370000Y-79248000D01*
D11*
X164933333Y-78430380D02*
X164600000Y-77954190D01*
X164361904Y-78430380D02*
X164361904Y-77430380D01*
X164742857Y-77430380D01*
X164838095Y-77478000D01*
X164885714Y-77525619D01*
X164933333Y-77620857D01*
X164933333Y-77763714D01*
X164885714Y-77858952D01*
X164838095Y-77906571D01*
X164742857Y-77954190D01*
X164361904Y-77954190D01*
X165314285Y-78382761D02*
X165457142Y-78430380D01*
X165695238Y-78430380D01*
X165790476Y-78382761D01*
X165838095Y-78335142D01*
X165885714Y-78239904D01*
X165885714Y-78144666D01*
X165838095Y-78049428D01*
X165790476Y-78001809D01*
X165695238Y-77954190D01*
X165504761Y-77906571D01*
X165409523Y-77858952D01*
X165361904Y-77811333D01*
X165314285Y-77716095D01*
X165314285Y-77620857D01*
X165361904Y-77525619D01*
X165409523Y-77478000D01*
X165504761Y-77430380D01*
X165742857Y-77430380D01*
X165885714Y-77478000D01*
X161774285Y-78382761D02*
X161917142Y-78430380D01*
X162155238Y-78430380D01*
X162250476Y-78382761D01*
X162298095Y-78335142D01*
X162345714Y-78239904D01*
X162345714Y-78144666D01*
X162298095Y-78049428D01*
X162250476Y-78001809D01*
X162155238Y-77954190D01*
X161964761Y-77906571D01*
X161869523Y-77858952D01*
X161821904Y-77811333D01*
X161774285Y-77716095D01*
X161774285Y-77620857D01*
X161821904Y-77525619D01*
X161869523Y-77478000D01*
X161964761Y-77430380D01*
X162202857Y-77430380D01*
X162345714Y-77478000D01*
X163345714Y-78335142D02*
X163298095Y-78382761D01*
X163155238Y-78430380D01*
X163060000Y-78430380D01*
X162917142Y-78382761D01*
X162821904Y-78287523D01*
X162774285Y-78192285D01*
X162726666Y-78001809D01*
X162726666Y-77858952D01*
X162774285Y-77668476D01*
X162821904Y-77573238D01*
X162917142Y-77478000D01*
X163060000Y-77430380D01*
X163155238Y-77430380D01*
X163298095Y-77478000D01*
X163345714Y-77525619D01*
X159448571Y-78430380D02*
X159448571Y-77430380D01*
X159781904Y-78144666D01*
X160115238Y-77430380D01*
X160115238Y-78430380D01*
X160591428Y-78430380D02*
X160591428Y-77430380D01*
X164838095Y-74938000D02*
X164742857Y-74890380D01*
X164600000Y-74890380D01*
X164457142Y-74938000D01*
X164361904Y-75033238D01*
X164314285Y-75128476D01*
X164266666Y-75318952D01*
X164266666Y-75461809D01*
X164314285Y-75652285D01*
X164361904Y-75747523D01*
X164457142Y-75842761D01*
X164600000Y-75890380D01*
X164695238Y-75890380D01*
X164838095Y-75842761D01*
X164885714Y-75795142D01*
X164885714Y-75461809D01*
X164695238Y-75461809D01*
X165314285Y-75890380D02*
X165314285Y-74890380D01*
X165885714Y-75890380D01*
X165885714Y-74890380D01*
X161702857Y-75890380D02*
X161702857Y-74890380D01*
X162036190Y-75604666D01*
X162369523Y-74890380D01*
X162369523Y-75890380D01*
X163036190Y-74890380D02*
X163226666Y-74890380D01*
X163321904Y-74938000D01*
X163417142Y-75033238D01*
X163464761Y-75223714D01*
X163464761Y-75557047D01*
X163417142Y-75747523D01*
X163321904Y-75842761D01*
X163226666Y-75890380D01*
X163036190Y-75890380D01*
X162940952Y-75842761D01*
X162845714Y-75747523D01*
X162798095Y-75557047D01*
X162798095Y-75223714D01*
X162845714Y-75033238D01*
X162940952Y-74938000D01*
X163036190Y-74890380D01*
X159186666Y-74890380D02*
X159520000Y-75890380D01*
X159853333Y-74890380D01*
X160758095Y-75795142D02*
X160710476Y-75842761D01*
X160567619Y-75890380D01*
X160472380Y-75890380D01*
X160329523Y-75842761D01*
X160234285Y-75747523D01*
X160186666Y-75652285D01*
X160139047Y-75461809D01*
X160139047Y-75318952D01*
X160186666Y-75128476D01*
X160234285Y-75033238D01*
X160329523Y-74938000D01*
X160472380Y-74890380D01*
X160567619Y-74890380D01*
X160710476Y-74938000D01*
X160758095Y-74985619D01*
D10*
X134112113Y-70182997D02*
G75*
G02X132588001Y-70178001I-762113J-15003D01*
G01*
X104902113Y-72902997D02*
G75*
G02X103378001Y-72898001I-762113J-15003D01*
G01*
D11*
X104592380Y-81470095D02*
X103592380Y-81470095D01*
X104306666Y-81136761D01*
X103592380Y-80803428D01*
X104592380Y-80803428D01*
X104497142Y-79755809D02*
X104544761Y-79803428D01*
X104592380Y-79946285D01*
X104592380Y-80041523D01*
X104544761Y-80184380D01*
X104449523Y-80279619D01*
X104354285Y-80327238D01*
X104163809Y-80374857D01*
X104020952Y-80374857D01*
X103830476Y-80327238D01*
X103735238Y-80279619D01*
X103640000Y-80184380D01*
X103592380Y-80041523D01*
X103592380Y-79946285D01*
X103640000Y-79803428D01*
X103687619Y-79755809D01*
X104592380Y-79327238D02*
X103592380Y-79327238D01*
X103592380Y-78946285D01*
X103640000Y-78851047D01*
X103687619Y-78803428D01*
X103782857Y-78755809D01*
X103925714Y-78755809D01*
X104020952Y-78803428D01*
X104068571Y-78851047D01*
X104116190Y-78946285D01*
X104116190Y-79327238D01*
X103592380Y-78422476D02*
X103592380Y-77803428D01*
X103973333Y-78136761D01*
X103973333Y-77993904D01*
X104020952Y-77898666D01*
X104068571Y-77851047D01*
X104163809Y-77803428D01*
X104401904Y-77803428D01*
X104497142Y-77851047D01*
X104544761Y-77898666D01*
X104592380Y-77993904D01*
X104592380Y-78279619D01*
X104544761Y-78374857D01*
X104497142Y-78422476D01*
X103687619Y-77422476D02*
X103640000Y-77374857D01*
X103592380Y-77279619D01*
X103592380Y-77041523D01*
X103640000Y-76946285D01*
X103687619Y-76898666D01*
X103782857Y-76851047D01*
X103878095Y-76851047D01*
X104020952Y-76898666D01*
X104592380Y-77470095D01*
X104592380Y-76851047D01*
X103592380Y-76232000D02*
X103592380Y-76136761D01*
X103640000Y-76041523D01*
X103687619Y-75993904D01*
X103782857Y-75946285D01*
X103973333Y-75898666D01*
X104211428Y-75898666D01*
X104401904Y-75946285D01*
X104497142Y-75993904D01*
X104544761Y-76041523D01*
X104592380Y-76136761D01*
X104592380Y-76232000D01*
X104544761Y-76327238D01*
X104497142Y-76374857D01*
X104401904Y-76422476D01*
X104211428Y-76470095D01*
X103973333Y-76470095D01*
X103782857Y-76422476D01*
X103687619Y-76374857D01*
X103640000Y-76327238D01*
X103592380Y-76232000D01*
X104020952Y-75327238D02*
X103973333Y-75422476D01*
X103925714Y-75470095D01*
X103830476Y-75517714D01*
X103782857Y-75517714D01*
X103687619Y-75470095D01*
X103640000Y-75422476D01*
X103592380Y-75327238D01*
X103592380Y-75136761D01*
X103640000Y-75041523D01*
X103687619Y-74993904D01*
X103782857Y-74946285D01*
X103830476Y-74946285D01*
X103925714Y-74993904D01*
X103973333Y-75041523D01*
X104020952Y-75136761D01*
X104020952Y-75327238D01*
X104068571Y-75422476D01*
X104116190Y-75470095D01*
X104211428Y-75517714D01*
X104401904Y-75517714D01*
X104497142Y-75470095D01*
X104544761Y-75422476D01*
X104592380Y-75327238D01*
X104592380Y-75136761D01*
X104544761Y-75041523D01*
X104497142Y-74993904D01*
X104401904Y-74946285D01*
X104211428Y-74946285D01*
X104116190Y-74993904D01*
X104068571Y-75041523D01*
X104020952Y-75136761D01*
X133516666Y-80803238D02*
X133516666Y-80327047D01*
X133802380Y-80898476D02*
X132802380Y-80565142D01*
X133802380Y-80231809D01*
X132802380Y-80041333D02*
X132802380Y-79469904D01*
X133802380Y-79755619D02*
X132802380Y-79755619D01*
X132802380Y-79279428D02*
X132802380Y-78708000D01*
X133802380Y-78993714D02*
X132802380Y-78993714D01*
X133802380Y-78374666D02*
X132802380Y-78374666D01*
X133802380Y-77898476D02*
X132802380Y-77898476D01*
X133802380Y-77327047D01*
X132802380Y-77327047D01*
X133326190Y-76660380D02*
X133802380Y-76660380D01*
X132802380Y-76993714D02*
X133326190Y-76660380D01*
X132802380Y-76327047D01*
X133135714Y-75565142D02*
X133802380Y-75565142D01*
X132754761Y-75803238D02*
X133469047Y-76041333D01*
X133469047Y-75422285D01*
X132802380Y-75136571D02*
X132802380Y-74517523D01*
X133183333Y-74850857D01*
X133183333Y-74708000D01*
X133230952Y-74612761D01*
X133278571Y-74565142D01*
X133373809Y-74517523D01*
X133611904Y-74517523D01*
X133707142Y-74565142D01*
X133754761Y-74612761D01*
X133802380Y-74708000D01*
X133802380Y-74993714D01*
X133754761Y-75088952D01*
X133707142Y-75136571D01*
X133802380Y-73565142D02*
X133802380Y-74136571D01*
X133802380Y-73850857D02*
X132802380Y-73850857D01*
X132945238Y-73946095D01*
X133040476Y-74041333D01*
X133088095Y-74136571D01*
X132802380Y-73231809D02*
X132802380Y-72612761D01*
X133183333Y-72946095D01*
X133183333Y-72803238D01*
X133230952Y-72708000D01*
X133278571Y-72660380D01*
X133373809Y-72612761D01*
X133611904Y-72612761D01*
X133707142Y-72660380D01*
X133754761Y-72708000D01*
X133802380Y-72803238D01*
X133802380Y-73088952D01*
X133754761Y-73184190D01*
X133707142Y-73231809D01*
D10*
X107143733Y-70995000D02*
X107486267Y-70995000D01*
X107143733Y-69975000D02*
X107486267Y-69975000D01*
X123925000Y-68335000D02*
X123925000Y-65875000D01*
X122455000Y-68335000D02*
X123925000Y-68335000D01*
X122455000Y-65875000D02*
X122455000Y-68335000D01*
X141320000Y-63998000D02*
X127870000Y-63998000D01*
X127889000Y-69098000D02*
X141320000Y-69098000D01*
X118840000Y-70678000D02*
X118840000Y-67178000D01*
X111590000Y-67178000D02*
X111590000Y-70678000D01*
X111590000Y-70678000D02*
X112840000Y-70678000D01*
X117590000Y-70678000D02*
X118840000Y-70678000D01*
X110645000Y-99480000D02*
X100604000Y-99480000D01*
X102254000Y-87240000D02*
X100604000Y-87240000D01*
X104753000Y-87240000D02*
X103994000Y-87240000D01*
X107253000Y-87240000D02*
X106494000Y-87240000D01*
X110645000Y-87240000D02*
X108995000Y-87240000D01*
X100604000Y-95544000D02*
X100604000Y-99480000D01*
X100604000Y-87240000D02*
X100604000Y-91177000D01*
X110645000Y-95544000D02*
X110645000Y-99480000D01*
X110645000Y-87240000D02*
X110645000Y-91177000D01*
X112947267Y-78103000D02*
X112604733Y-78103000D01*
X112947267Y-79123000D02*
X112604733Y-79123000D01*
X112947267Y-80008000D02*
X112604733Y-80008000D01*
X112947267Y-81028000D02*
X112604733Y-81028000D01*
X104140000Y-83038000D02*
X106090000Y-83038000D01*
X104140000Y-83038000D02*
X102190000Y-83038000D01*
X104140000Y-72918000D02*
X106090000Y-72918000D01*
X104140000Y-72918000D02*
X100690000Y-72918000D01*
D12*
G36*
X146855338Y-112367160D02*
G01*
X146997512Y-112375985D01*
X147085366Y-112389787D01*
X147105172Y-112400106D01*
X147112173Y-112449232D01*
X147118705Y-112567186D01*
X147124494Y-112743419D01*
X147129270Y-112967382D01*
X147132762Y-113228528D01*
X147134698Y-113516309D01*
X147134815Y-113552906D01*
X147135143Y-113889268D01*
X147133754Y-114154882D01*
X147130244Y-114358363D01*
X147124212Y-114508328D01*
X147115254Y-114613391D01*
X147102969Y-114682170D01*
X147086953Y-114723279D01*
X147079662Y-114733609D01*
X147047722Y-114786549D01*
X147056593Y-114803062D01*
X147048157Y-114822485D01*
X146987905Y-114872122D01*
X146933760Y-114910531D01*
X146870311Y-114951644D01*
X146810721Y-114980738D01*
X146740054Y-114999975D01*
X146643373Y-115011514D01*
X146505743Y-115017518D01*
X146312228Y-115020147D01*
X146170484Y-115020968D01*
X145960997Y-115021299D01*
X145782283Y-115020255D01*
X145648096Y-115018023D01*
X145572191Y-115014789D01*
X145560289Y-115012718D01*
X145550977Y-114951548D01*
X145547717Y-114844707D01*
X145549871Y-114722053D01*
X145556799Y-114613442D01*
X145567862Y-114548728D01*
X145570322Y-114543936D01*
X145622026Y-114526840D01*
X145741940Y-114514216D01*
X145918986Y-114506860D01*
X146108781Y-114505352D01*
X146617453Y-114507613D01*
X146617453Y-112891393D01*
X146211087Y-112904650D01*
X146026768Y-112911687D01*
X145902805Y-112921726D01*
X145820202Y-112939769D01*
X145759967Y-112970820D01*
X145703104Y-113019881D01*
X145677544Y-113045173D01*
X145593243Y-113145382D01*
X145556867Y-113246231D01*
X145550367Y-113354468D01*
X145561549Y-113486636D01*
X145606602Y-113583732D01*
X145674660Y-113660789D01*
X145749202Y-113728065D01*
X145821143Y-113766002D01*
X145917634Y-113783448D01*
X146065827Y-113789249D01*
X146069055Y-113789300D01*
X146211710Y-113795025D01*
X146323969Y-113805937D01*
X146380620Y-113819348D01*
X146402584Y-113870139D01*
X146416515Y-113974811D01*
X146419359Y-114076073D01*
X146416635Y-114306968D01*
X146078119Y-114312928D01*
X145836870Y-114305940D01*
X145648611Y-114269868D01*
X145489783Y-114196613D01*
X145336823Y-114078076D01*
X145303010Y-114046450D01*
X145181235Y-113912637D01*
X145101489Y-113775030D01*
X145054379Y-113609970D01*
X145030512Y-113393799D01*
X145028310Y-113354609D01*
X145028287Y-113218796D01*
X145040752Y-113112064D01*
X145057430Y-113066874D01*
X145080310Y-113024388D01*
X145072997Y-113017125D01*
X145062777Y-112991478D01*
X145096349Y-112924422D01*
X145161489Y-112830785D01*
X145245972Y-112725392D01*
X145337573Y-112623072D01*
X145424069Y-112538651D01*
X145493233Y-112486957D01*
X145517481Y-112478018D01*
X145570200Y-112461327D01*
X145659577Y-112425470D01*
X145664469Y-112423369D01*
X145745114Y-112404482D01*
X145881881Y-112388789D01*
X146058993Y-112376545D01*
X146260672Y-112368006D01*
X146471141Y-112363425D01*
X146674622Y-112363058D01*
X146855338Y-112367160D01*
X146855338Y-112367160D01*
G37*
X146855338Y-112367160D02*
X146997512Y-112375985D01*
X147085366Y-112389787D01*
X147105172Y-112400106D01*
X147112173Y-112449232D01*
X147118705Y-112567186D01*
X147124494Y-112743419D01*
X147129270Y-112967382D01*
X147132762Y-113228528D01*
X147134698Y-113516309D01*
X147134815Y-113552906D01*
X147135143Y-113889268D01*
X147133754Y-114154882D01*
X147130244Y-114358363D01*
X147124212Y-114508328D01*
X147115254Y-114613391D01*
X147102969Y-114682170D01*
X147086953Y-114723279D01*
X147079662Y-114733609D01*
X147047722Y-114786549D01*
X147056593Y-114803062D01*
X147048157Y-114822485D01*
X146987905Y-114872122D01*
X146933760Y-114910531D01*
X146870311Y-114951644D01*
X146810721Y-114980738D01*
X146740054Y-114999975D01*
X146643373Y-115011514D01*
X146505743Y-115017518D01*
X146312228Y-115020147D01*
X146170484Y-115020968D01*
X145960997Y-115021299D01*
X145782283Y-115020255D01*
X145648096Y-115018023D01*
X145572191Y-115014789D01*
X145560289Y-115012718D01*
X145550977Y-114951548D01*
X145547717Y-114844707D01*
X145549871Y-114722053D01*
X145556799Y-114613442D01*
X145567862Y-114548728D01*
X145570322Y-114543936D01*
X145622026Y-114526840D01*
X145741940Y-114514216D01*
X145918986Y-114506860D01*
X146108781Y-114505352D01*
X146617453Y-114507613D01*
X146617453Y-112891393D01*
X146211087Y-112904650D01*
X146026768Y-112911687D01*
X145902805Y-112921726D01*
X145820202Y-112939769D01*
X145759967Y-112970820D01*
X145703104Y-113019881D01*
X145677544Y-113045173D01*
X145593243Y-113145382D01*
X145556867Y-113246231D01*
X145550367Y-113354468D01*
X145561549Y-113486636D01*
X145606602Y-113583732D01*
X145674660Y-113660789D01*
X145749202Y-113728065D01*
X145821143Y-113766002D01*
X145917634Y-113783448D01*
X146065827Y-113789249D01*
X146069055Y-113789300D01*
X146211710Y-113795025D01*
X146323969Y-113805937D01*
X146380620Y-113819348D01*
X146402584Y-113870139D01*
X146416515Y-113974811D01*
X146419359Y-114076073D01*
X146416635Y-114306968D01*
X146078119Y-114312928D01*
X145836870Y-114305940D01*
X145648611Y-114269868D01*
X145489783Y-114196613D01*
X145336823Y-114078076D01*
X145303010Y-114046450D01*
X145181235Y-113912637D01*
X145101489Y-113775030D01*
X145054379Y-113609970D01*
X145030512Y-113393799D01*
X145028310Y-113354609D01*
X145028287Y-113218796D01*
X145040752Y-113112064D01*
X145057430Y-113066874D01*
X145080310Y-113024388D01*
X145072997Y-113017125D01*
X145062777Y-112991478D01*
X145096349Y-112924422D01*
X145161489Y-112830785D01*
X145245972Y-112725392D01*
X145337573Y-112623072D01*
X145424069Y-112538651D01*
X145493233Y-112486957D01*
X145517481Y-112478018D01*
X145570200Y-112461327D01*
X145659577Y-112425470D01*
X145664469Y-112423369D01*
X145745114Y-112404482D01*
X145881881Y-112388789D01*
X146058993Y-112376545D01*
X146260672Y-112368006D01*
X146471141Y-112363425D01*
X146674622Y-112363058D01*
X146855338Y-112367160D01*
G36*
X161648609Y-112363207D02*
G01*
X161889077Y-112364880D01*
X162066151Y-112368532D01*
X162195812Y-112376450D01*
X162294039Y-112390920D01*
X162376814Y-112414228D01*
X162460117Y-112448661D01*
X162551500Y-112492394D01*
X162672027Y-112553109D01*
X162753725Y-112598049D01*
X162781349Y-112618742D01*
X162779790Y-112619235D01*
X162786930Y-112645246D01*
X162837582Y-112710714D01*
X162884888Y-112763138D01*
X163008515Y-112946354D01*
X163089618Y-113177604D01*
X163123498Y-113435141D01*
X163105456Y-113697215D01*
X163096495Y-113742446D01*
X163059789Y-113845952D01*
X162997685Y-113965930D01*
X162924295Y-114080515D01*
X162853727Y-114167837D01*
X162800092Y-114206028D01*
X162797205Y-114206300D01*
X162764323Y-114229787D01*
X162769781Y-114247437D01*
X162761994Y-114282380D01*
X162738587Y-114287125D01*
X162671617Y-114314399D01*
X162612457Y-114364924D01*
X162551553Y-114421891D01*
X162517009Y-114439599D01*
X162462203Y-114446136D01*
X162397449Y-114464529D01*
X162392750Y-114465718D01*
X162345899Y-114483609D01*
X162343141Y-114485827D01*
X162301700Y-114491368D01*
X162200747Y-114496908D01*
X162060140Y-114501428D01*
X162024019Y-114502222D01*
X161714819Y-114508430D01*
X161726363Y-114250439D01*
X161737906Y-113992447D01*
X161982934Y-113987578D01*
X162195456Y-113965639D01*
X162340122Y-113909357D01*
X162440655Y-113837592D01*
X162511538Y-113775898D01*
X162538494Y-113737669D01*
X162529632Y-113731500D01*
X162527335Y-113707137D01*
X162549556Y-113674310D01*
X162594574Y-113571091D01*
X162607397Y-113432718D01*
X162586236Y-113297358D01*
X162569217Y-113255250D01*
X162466365Y-113100427D01*
X162331873Y-112991650D01*
X162153287Y-112923056D01*
X161918153Y-112888785D01*
X161777594Y-112882729D01*
X161539469Y-112878218D01*
X161528909Y-113959703D01*
X161518349Y-115041187D01*
X161003688Y-115041187D01*
X161003688Y-112359846D01*
X161648609Y-112363207D01*
X161648609Y-112363207D01*
G37*
X161648609Y-112363207D02*
X161889077Y-112364880D01*
X162066151Y-112368532D01*
X162195812Y-112376450D01*
X162294039Y-112390920D01*
X162376814Y-112414228D01*
X162460117Y-112448661D01*
X162551500Y-112492394D01*
X162672027Y-112553109D01*
X162753725Y-112598049D01*
X162781349Y-112618742D01*
X162779790Y-112619235D01*
X162786930Y-112645246D01*
X162837582Y-112710714D01*
X162884888Y-112763138D01*
X163008515Y-112946354D01*
X163089618Y-113177604D01*
X163123498Y-113435141D01*
X163105456Y-113697215D01*
X163096495Y-113742446D01*
X163059789Y-113845952D01*
X162997685Y-113965930D01*
X162924295Y-114080515D01*
X162853727Y-114167837D01*
X162800092Y-114206028D01*
X162797205Y-114206300D01*
X162764323Y-114229787D01*
X162769781Y-114247437D01*
X162761994Y-114282380D01*
X162738587Y-114287125D01*
X162671617Y-114314399D01*
X162612457Y-114364924D01*
X162551553Y-114421891D01*
X162517009Y-114439599D01*
X162462203Y-114446136D01*
X162397449Y-114464529D01*
X162392750Y-114465718D01*
X162345899Y-114483609D01*
X162343141Y-114485827D01*
X162301700Y-114491368D01*
X162200747Y-114496908D01*
X162060140Y-114501428D01*
X162024019Y-114502222D01*
X161714819Y-114508430D01*
X161726363Y-114250439D01*
X161737906Y-113992447D01*
X161982934Y-113987578D01*
X162195456Y-113965639D01*
X162340122Y-113909357D01*
X162440655Y-113837592D01*
X162511538Y-113775898D01*
X162538494Y-113737669D01*
X162529632Y-113731500D01*
X162527335Y-113707137D01*
X162549556Y-113674310D01*
X162594574Y-113571091D01*
X162607397Y-113432718D01*
X162586236Y-113297358D01*
X162569217Y-113255250D01*
X162466365Y-113100427D01*
X162331873Y-112991650D01*
X162153287Y-112923056D01*
X161918153Y-112888785D01*
X161777594Y-112882729D01*
X161539469Y-112878218D01*
X161528909Y-113959703D01*
X161518349Y-115041187D01*
X161003688Y-115041187D01*
X161003688Y-112359846D01*
X161648609Y-112363207D01*
G36*
X165988702Y-112367745D02*
G01*
X166058364Y-112381756D01*
X166068054Y-112388937D01*
X166083697Y-112444691D01*
X166099632Y-112546276D01*
X166103454Y-112579820D01*
X166155295Y-112804441D01*
X166267327Y-113026178D01*
X166446203Y-113257263D01*
X166508594Y-113324703D01*
X166612187Y-113435505D01*
X166687714Y-113520778D01*
X166723948Y-113567627D01*
X166724636Y-113572750D01*
X166735918Y-113597809D01*
X166788915Y-113660800D01*
X166817906Y-113691812D01*
X166882372Y-113764554D01*
X166909585Y-113806673D01*
X166907060Y-113810875D01*
X166904817Y-113840775D01*
X166933822Y-113910482D01*
X166975183Y-114066134D01*
X166967272Y-114255239D01*
X166916154Y-114454349D01*
X166827898Y-114640013D01*
X166708568Y-114788783D01*
X166705977Y-114791156D01*
X166602995Y-114878335D01*
X166506781Y-114938512D01*
X166398490Y-114977178D01*
X166259272Y-114999822D01*
X166070282Y-115011934D01*
X165933223Y-115016224D01*
X165564478Y-115025634D01*
X165576036Y-114766616D01*
X165587594Y-114507599D01*
X165914544Y-114503942D01*
X166084090Y-114499124D01*
X166195663Y-114486138D01*
X166270591Y-114460282D01*
X166330202Y-114416857D01*
X166336626Y-114410912D01*
X166401135Y-114328430D01*
X166425619Y-114223786D01*
X166426395Y-114145734D01*
X166419686Y-114061968D01*
X166398462Y-113990789D01*
X166352331Y-113915657D01*
X166270901Y-113820031D01*
X166143780Y-113687372D01*
X166128830Y-113672120D01*
X166012312Y-113550579D01*
X165923951Y-113452978D01*
X165873819Y-113390812D01*
X165867857Y-113374312D01*
X165867539Y-113349220D01*
X165823925Y-113288489D01*
X165820907Y-113285015D01*
X165729636Y-113158424D01*
X165658196Y-113019827D01*
X165631350Y-112936053D01*
X165616740Y-112861362D01*
X165594535Y-112748779D01*
X165588732Y-112719468D01*
X165565443Y-112600194D01*
X165547591Y-112505824D01*
X165545111Y-112492100D01*
X165558047Y-112418141D01*
X165580111Y-112393871D01*
X165645920Y-112375578D01*
X165754564Y-112364939D01*
X165878130Y-112362233D01*
X165988702Y-112367745D01*
X165988702Y-112367745D01*
G37*
X165988702Y-112367745D02*
X166058364Y-112381756D01*
X166068054Y-112388937D01*
X166083697Y-112444691D01*
X166099632Y-112546276D01*
X166103454Y-112579820D01*
X166155295Y-112804441D01*
X166267327Y-113026178D01*
X166446203Y-113257263D01*
X166508594Y-113324703D01*
X166612187Y-113435505D01*
X166687714Y-113520778D01*
X166723948Y-113567627D01*
X166724636Y-113572750D01*
X166735918Y-113597809D01*
X166788915Y-113660800D01*
X166817906Y-113691812D01*
X166882372Y-113764554D01*
X166909585Y-113806673D01*
X166907060Y-113810875D01*
X166904817Y-113840775D01*
X166933822Y-113910482D01*
X166975183Y-114066134D01*
X166967272Y-114255239D01*
X166916154Y-114454349D01*
X166827898Y-114640013D01*
X166708568Y-114788783D01*
X166705977Y-114791156D01*
X166602995Y-114878335D01*
X166506781Y-114938512D01*
X166398490Y-114977178D01*
X166259272Y-114999822D01*
X166070282Y-115011934D01*
X165933223Y-115016224D01*
X165564478Y-115025634D01*
X165576036Y-114766616D01*
X165587594Y-114507599D01*
X165914544Y-114503942D01*
X166084090Y-114499124D01*
X166195663Y-114486138D01*
X166270591Y-114460282D01*
X166330202Y-114416857D01*
X166336626Y-114410912D01*
X166401135Y-114328430D01*
X166425619Y-114223786D01*
X166426395Y-114145734D01*
X166419686Y-114061968D01*
X166398462Y-113990789D01*
X166352331Y-113915657D01*
X166270901Y-113820031D01*
X166143780Y-113687372D01*
X166128830Y-113672120D01*
X166012312Y-113550579D01*
X165923951Y-113452978D01*
X165873819Y-113390812D01*
X165867857Y-113374312D01*
X165867539Y-113349220D01*
X165823925Y-113288489D01*
X165820907Y-113285015D01*
X165729636Y-113158424D01*
X165658196Y-113019827D01*
X165631350Y-112936053D01*
X165616740Y-112861362D01*
X165594535Y-112748779D01*
X165588732Y-112719468D01*
X165565443Y-112600194D01*
X165547591Y-112505824D01*
X165545111Y-112492100D01*
X165558047Y-112418141D01*
X165580111Y-112393871D01*
X165645920Y-112375578D01*
X165754564Y-112364939D01*
X165878130Y-112362233D01*
X165988702Y-112367745D01*
G36*
X142889471Y-111850756D02*
G01*
X142986800Y-111867016D01*
X143022417Y-111884263D01*
X143045277Y-111945395D01*
X143067069Y-112055548D01*
X143076521Y-112129292D01*
X143105527Y-112280633D01*
X143165414Y-112424917D01*
X143264971Y-112575780D01*
X143412988Y-112746857D01*
X143587928Y-112922659D01*
X143729590Y-113063543D01*
X143822362Y-113173214D01*
X143876672Y-113273199D01*
X143902947Y-113385028D01*
X143911617Y-113530229D01*
X143912419Y-113592593D01*
X143906249Y-113783380D01*
X143881448Y-113916016D01*
X143833871Y-114010395D01*
X143822212Y-114025285D01*
X143793147Y-114075285D01*
X143801722Y-114088687D01*
X143810594Y-114108918D01*
X143769210Y-114160853D01*
X143692810Y-114231359D01*
X143596632Y-114307299D01*
X143495919Y-114375539D01*
X143422125Y-114415852D01*
X143299129Y-114461327D01*
X143155181Y-114488718D01*
X142966010Y-114501942D01*
X142875403Y-114504096D01*
X142507276Y-114509680D01*
X142520966Y-114250768D01*
X142534658Y-113991856D01*
X142861013Y-113988076D01*
X143026959Y-113983787D01*
X143135315Y-113972016D01*
X143207839Y-113947385D01*
X143266288Y-113904519D01*
X143289452Y-113882212D01*
X143367898Y-113754411D01*
X143403135Y-113589989D01*
X143390999Y-113421436D01*
X143359857Y-113333060D01*
X143310876Y-113263751D01*
X143218605Y-113156842D01*
X143097817Y-113028849D01*
X143004860Y-112936185D01*
X142842629Y-112772549D01*
X142730547Y-112642953D01*
X142656709Y-112531948D01*
X142609206Y-112424083D01*
X142608429Y-112421812D01*
X142588437Y-112372712D01*
X142571997Y-112334875D01*
X142553721Y-112257861D01*
X142539914Y-112135551D01*
X142535737Y-112058065D01*
X142529156Y-111848349D01*
X142759268Y-111845579D01*
X142889471Y-111850756D01*
X142889471Y-111850756D01*
G37*
X142889471Y-111850756D02*
X142986800Y-111867016D01*
X143022417Y-111884263D01*
X143045277Y-111945395D01*
X143067069Y-112055548D01*
X143076521Y-112129292D01*
X143105527Y-112280633D01*
X143165414Y-112424917D01*
X143264971Y-112575780D01*
X143412988Y-112746857D01*
X143587928Y-112922659D01*
X143729590Y-113063543D01*
X143822362Y-113173214D01*
X143876672Y-113273199D01*
X143902947Y-113385028D01*
X143911617Y-113530229D01*
X143912419Y-113592593D01*
X143906249Y-113783380D01*
X143881448Y-113916016D01*
X143833871Y-114010395D01*
X143822212Y-114025285D01*
X143793147Y-114075285D01*
X143801722Y-114088687D01*
X143810594Y-114108918D01*
X143769210Y-114160853D01*
X143692810Y-114231359D01*
X143596632Y-114307299D01*
X143495919Y-114375539D01*
X143422125Y-114415852D01*
X143299129Y-114461327D01*
X143155181Y-114488718D01*
X142966010Y-114501942D01*
X142875403Y-114504096D01*
X142507276Y-114509680D01*
X142520966Y-114250768D01*
X142534658Y-113991856D01*
X142861013Y-113988076D01*
X143026959Y-113983787D01*
X143135315Y-113972016D01*
X143207839Y-113947385D01*
X143266288Y-113904519D01*
X143289452Y-113882212D01*
X143367898Y-113754411D01*
X143403135Y-113589989D01*
X143390999Y-113421436D01*
X143359857Y-113333060D01*
X143310876Y-113263751D01*
X143218605Y-113156842D01*
X143097817Y-113028849D01*
X143004860Y-112936185D01*
X142842629Y-112772549D01*
X142730547Y-112642953D01*
X142656709Y-112531948D01*
X142609206Y-112424083D01*
X142608429Y-112421812D01*
X142588437Y-112372712D01*
X142571997Y-112334875D01*
X142553721Y-112257861D01*
X142539914Y-112135551D01*
X142535737Y-112058065D01*
X142529156Y-111848349D01*
X142759268Y-111845579D01*
X142889471Y-111850756D01*
G36*
X144751255Y-112560718D02*
G01*
X144752447Y-114506932D01*
X144504005Y-114506932D01*
X144374396Y-114506821D01*
X144282739Y-114506530D01*
X144250706Y-114506169D01*
X144249128Y-114468076D01*
X144247299Y-114361506D01*
X144245338Y-114197355D01*
X144243365Y-113986522D01*
X144241498Y-113739902D01*
X144240364Y-113559801D01*
X144240175Y-113234958D01*
X144243600Y-112970512D01*
X144250473Y-112771111D01*
X144260630Y-112641399D01*
X144273904Y-112586024D01*
X144274986Y-112585023D01*
X144334681Y-112569167D01*
X144445149Y-112559648D01*
X144533174Y-112558283D01*
X144751255Y-112560718D01*
X144751255Y-112560718D01*
G37*
X144751255Y-112560718D02*
X144752447Y-114506932D01*
X144504005Y-114506932D01*
X144374396Y-114506821D01*
X144282739Y-114506530D01*
X144250706Y-114506169D01*
X144249128Y-114468076D01*
X144247299Y-114361506D01*
X144245338Y-114197355D01*
X144243365Y-113986522D01*
X144241498Y-113739902D01*
X144240364Y-113559801D01*
X144240175Y-113234958D01*
X144243600Y-112970512D01*
X144250473Y-112771111D01*
X144260630Y-112641399D01*
X144273904Y-112586024D01*
X144274986Y-112585023D01*
X144334681Y-112569167D01*
X144445149Y-112559648D01*
X144533174Y-112558283D01*
X144751255Y-112560718D01*
G36*
X147916734Y-112363918D02*
G01*
X148211754Y-112369940D01*
X148442939Y-112386813D01*
X148625595Y-112419299D01*
X148775028Y-112472160D01*
X148906544Y-112550159D01*
X149035450Y-112658056D01*
X149115789Y-112736967D01*
X149208427Y-112834779D01*
X149269799Y-112906233D01*
X149288026Y-112937382D01*
X149286815Y-112937749D01*
X149284198Y-112967744D01*
X149313969Y-113040045D01*
X149314766Y-113041587D01*
X149337411Y-113114734D01*
X149354073Y-113239823D01*
X149365337Y-113424699D01*
X149371791Y-113677208D01*
X149373362Y-113826178D01*
X149378085Y-114506932D01*
X148859313Y-114506932D01*
X148859313Y-113903277D01*
X148856701Y-113663070D01*
X148849262Y-113472655D01*
X148837589Y-113341284D01*
X148822276Y-113278209D01*
X148818978Y-113274693D01*
X148793554Y-113231103D01*
X148797590Y-113219108D01*
X148782879Y-113176198D01*
X148724144Y-113101615D01*
X148680735Y-113056827D01*
X148602871Y-112987970D01*
X148528452Y-112946369D01*
X148431790Y-112923170D01*
X148287194Y-112909518D01*
X148245716Y-112906874D01*
X147946500Y-112888546D01*
X147946500Y-114506932D01*
X147430563Y-114506932D01*
X147430563Y-112360721D01*
X147916734Y-112363918D01*
X147916734Y-112363918D01*
G37*
X147916734Y-112363918D02*
X148211754Y-112369940D01*
X148442939Y-112386813D01*
X148625595Y-112419299D01*
X148775028Y-112472160D01*
X148906544Y-112550159D01*
X149035450Y-112658056D01*
X149115789Y-112736967D01*
X149208427Y-112834779D01*
X149269799Y-112906233D01*
X149288026Y-112937382D01*
X149286815Y-112937749D01*
X149284198Y-112967744D01*
X149313969Y-113040045D01*
X149314766Y-113041587D01*
X149337411Y-113114734D01*
X149354073Y-113239823D01*
X149365337Y-113424699D01*
X149371791Y-113677208D01*
X149373362Y-113826178D01*
X149378085Y-114506932D01*
X148859313Y-114506932D01*
X148859313Y-113903277D01*
X148856701Y-113663070D01*
X148849262Y-113472655D01*
X148837589Y-113341284D01*
X148822276Y-113278209D01*
X148818978Y-113274693D01*
X148793554Y-113231103D01*
X148797590Y-113219108D01*
X148782879Y-113176198D01*
X148724144Y-113101615D01*
X148680735Y-113056827D01*
X148602871Y-112987970D01*
X148528452Y-112946369D01*
X148431790Y-112923170D01*
X148287194Y-112909518D01*
X148245716Y-112906874D01*
X147946500Y-112888546D01*
X147946500Y-114506932D01*
X147430563Y-114506932D01*
X147430563Y-112360721D01*
X147916734Y-112363918D01*
G36*
X151657642Y-114508208D02*
G01*
X151399493Y-114506056D01*
X151141344Y-114503905D01*
X151141836Y-113698802D01*
X151142329Y-112893699D01*
X150784649Y-112901522D01*
X150563839Y-112913309D01*
X150412020Y-112938349D01*
X150327750Y-112972642D01*
X150231111Y-113040452D01*
X150164886Y-113098268D01*
X150143855Y-113132300D01*
X150152472Y-113136187D01*
X150153676Y-113161039D01*
X150123025Y-113205640D01*
X150082387Y-113301454D01*
X150069049Y-113434719D01*
X150082915Y-113568391D01*
X150123884Y-113665426D01*
X150124250Y-113665868D01*
X150154844Y-113717052D01*
X150147098Y-113731500D01*
X150149214Y-113756062D01*
X150195495Y-113816408D01*
X150206753Y-113828660D01*
X150318844Y-113913134D01*
X150472241Y-113964000D01*
X150682341Y-113985805D01*
X150743719Y-113987228D01*
X150941406Y-113989468D01*
X150943561Y-114248098D01*
X150945716Y-114506729D01*
X150653931Y-114506729D01*
X150509619Y-114504131D01*
X150399027Y-114497277D01*
X150343626Y-114487576D01*
X150341641Y-114486223D01*
X150287114Y-114461115D01*
X150284755Y-114460757D01*
X150230012Y-114446582D01*
X150228531Y-114445875D01*
X150178922Y-114427666D01*
X149976889Y-114331768D01*
X149800361Y-114168868D01*
X149673940Y-113974755D01*
X149601706Y-113802698D01*
X149566290Y-113630268D01*
X149559075Y-113433843D01*
X149577984Y-113190317D01*
X149633174Y-112997120D01*
X149733188Y-112830207D01*
X149802243Y-112749556D01*
X149869352Y-112668708D01*
X149900415Y-112612745D01*
X149899195Y-112601799D01*
X149911054Y-112583366D01*
X149937953Y-112580562D01*
X150007986Y-112553136D01*
X150070001Y-112500944D01*
X150128189Y-112448409D01*
X150159608Y-112438879D01*
X150204684Y-112438280D01*
X150282221Y-112413493D01*
X150357515Y-112398321D01*
X150495968Y-112384823D01*
X150681370Y-112374055D01*
X150897509Y-112367074D01*
X151022462Y-112365242D01*
X151657642Y-112359929D01*
X151657642Y-114508208D01*
X151657642Y-114508208D01*
G37*
X151657642Y-114508208D02*
X151399493Y-114506056D01*
X151141344Y-114503905D01*
X151141836Y-113698802D01*
X151142329Y-112893699D01*
X150784649Y-112901522D01*
X150563839Y-112913309D01*
X150412020Y-112938349D01*
X150327750Y-112972642D01*
X150231111Y-113040452D01*
X150164886Y-113098268D01*
X150143855Y-113132300D01*
X150152472Y-113136187D01*
X150153676Y-113161039D01*
X150123025Y-113205640D01*
X150082387Y-113301454D01*
X150069049Y-113434719D01*
X150082915Y-113568391D01*
X150123884Y-113665426D01*
X150124250Y-113665868D01*
X150154844Y-113717052D01*
X150147098Y-113731500D01*
X150149214Y-113756062D01*
X150195495Y-113816408D01*
X150206753Y-113828660D01*
X150318844Y-113913134D01*
X150472241Y-113964000D01*
X150682341Y-113985805D01*
X150743719Y-113987228D01*
X150941406Y-113989468D01*
X150943561Y-114248098D01*
X150945716Y-114506729D01*
X150653931Y-114506729D01*
X150509619Y-114504131D01*
X150399027Y-114497277D01*
X150343626Y-114487576D01*
X150341641Y-114486223D01*
X150287114Y-114461115D01*
X150284755Y-114460757D01*
X150230012Y-114446582D01*
X150228531Y-114445875D01*
X150178922Y-114427666D01*
X149976889Y-114331768D01*
X149800361Y-114168868D01*
X149673940Y-113974755D01*
X149601706Y-113802698D01*
X149566290Y-113630268D01*
X149559075Y-113433843D01*
X149577984Y-113190317D01*
X149633174Y-112997120D01*
X149733188Y-112830207D01*
X149802243Y-112749556D01*
X149869352Y-112668708D01*
X149900415Y-112612745D01*
X149899195Y-112601799D01*
X149911054Y-112583366D01*
X149937953Y-112580562D01*
X150007986Y-112553136D01*
X150070001Y-112500944D01*
X150128189Y-112448409D01*
X150159608Y-112438879D01*
X150204684Y-112438280D01*
X150282221Y-112413493D01*
X150357515Y-112398321D01*
X150495968Y-112384823D01*
X150681370Y-112374055D01*
X150897509Y-112367074D01*
X151022462Y-112365242D01*
X151657642Y-112359929D01*
X151657642Y-114508208D01*
G36*
X152414787Y-111847990D02*
G01*
X152514499Y-111857249D01*
X152551750Y-111867114D01*
X152563100Y-111913984D01*
X152571922Y-112036715D01*
X152578139Y-112231830D01*
X152581677Y-112495852D01*
X152582460Y-112825305D01*
X152580567Y-113197662D01*
X152570094Y-114503928D01*
X152311834Y-114506069D01*
X152053574Y-114508209D01*
X152054450Y-111848115D01*
X152283454Y-111845473D01*
X152414787Y-111847990D01*
X152414787Y-111847990D01*
G37*
X152414787Y-111847990D02*
X152514499Y-111857249D01*
X152551750Y-111867114D01*
X152563100Y-111913984D01*
X152571922Y-112036715D01*
X152578139Y-112231830D01*
X152581677Y-112495852D01*
X152582460Y-112825305D01*
X152580567Y-113197662D01*
X152570094Y-114503928D01*
X152311834Y-114506069D01*
X152053574Y-114508209D01*
X152054450Y-111848115D01*
X152283454Y-111845473D01*
X152414787Y-111847990D01*
G36*
X155189469Y-112362281D02*
G01*
X155201115Y-112626282D01*
X155212762Y-112890282D01*
X154836142Y-112904094D01*
X154659480Y-112911823D01*
X154541511Y-112923364D01*
X154461583Y-112944673D01*
X154399041Y-112981703D01*
X154333234Y-113040409D01*
X154320441Y-113052774D01*
X154240543Y-113135501D01*
X154192425Y-113195529D01*
X154185700Y-113211524D01*
X154175264Y-113263722D01*
X154158983Y-113306593D01*
X154141916Y-113421646D01*
X154163294Y-113565773D01*
X154216151Y-113702948D01*
X154244219Y-113747359D01*
X154369816Y-113871146D01*
X154535306Y-113949039D01*
X154753066Y-113985588D01*
X154903351Y-113989684D01*
X155212546Y-113986871D01*
X155201007Y-114245693D01*
X155189469Y-114504515D01*
X154845246Y-114506085D01*
X154622339Y-114497938D01*
X154429067Y-114473539D01*
X154322024Y-114446999D01*
X154188342Y-114389751D01*
X154069847Y-114319696D01*
X154040867Y-114297046D01*
X153958619Y-114236059D01*
X153896123Y-114207961D01*
X153892709Y-114207750D01*
X153866856Y-114191248D01*
X153873722Y-114180736D01*
X153866468Y-114138228D01*
X153815153Y-114065591D01*
X153793537Y-114041829D01*
X153731912Y-113971734D01*
X153708401Y-113932773D01*
X153711252Y-113929937D01*
X153713258Y-113899952D01*
X153683182Y-113827807D01*
X153682959Y-113827377D01*
X153652149Y-113720684D01*
X153634943Y-113564565D01*
X153631396Y-113387561D01*
X153641560Y-113218215D01*
X153665487Y-113085070D01*
X153681503Y-113043115D01*
X153714201Y-112966442D01*
X153718204Y-112928308D01*
X153736893Y-112895480D01*
X153800067Y-112822493D01*
X153894850Y-112724046D01*
X153912628Y-112706380D01*
X154098683Y-112547077D01*
X154288775Y-112441502D01*
X154504334Y-112381743D01*
X154766789Y-112359888D01*
X154852125Y-112359487D01*
X155189469Y-112362281D01*
X155189469Y-112362281D01*
G37*
X155189469Y-112362281D02*
X155201115Y-112626282D01*
X155212762Y-112890282D01*
X154836142Y-112904094D01*
X154659480Y-112911823D01*
X154541511Y-112923364D01*
X154461583Y-112944673D01*
X154399041Y-112981703D01*
X154333234Y-113040409D01*
X154320441Y-113052774D01*
X154240543Y-113135501D01*
X154192425Y-113195529D01*
X154185700Y-113211524D01*
X154175264Y-113263722D01*
X154158983Y-113306593D01*
X154141916Y-113421646D01*
X154163294Y-113565773D01*
X154216151Y-113702948D01*
X154244219Y-113747359D01*
X154369816Y-113871146D01*
X154535306Y-113949039D01*
X154753066Y-113985588D01*
X154903351Y-113989684D01*
X155212546Y-113986871D01*
X155201007Y-114245693D01*
X155189469Y-114504515D01*
X154845246Y-114506085D01*
X154622339Y-114497938D01*
X154429067Y-114473539D01*
X154322024Y-114446999D01*
X154188342Y-114389751D01*
X154069847Y-114319696D01*
X154040867Y-114297046D01*
X153958619Y-114236059D01*
X153896123Y-114207961D01*
X153892709Y-114207750D01*
X153866856Y-114191248D01*
X153873722Y-114180736D01*
X153866468Y-114138228D01*
X153815153Y-114065591D01*
X153793537Y-114041829D01*
X153731912Y-113971734D01*
X153708401Y-113932773D01*
X153711252Y-113929937D01*
X153713258Y-113899952D01*
X153683182Y-113827807D01*
X153682959Y-113827377D01*
X153652149Y-113720684D01*
X153634943Y-113564565D01*
X153631396Y-113387561D01*
X153641560Y-113218215D01*
X153665487Y-113085070D01*
X153681503Y-113043115D01*
X153714201Y-112966442D01*
X153718204Y-112928308D01*
X153736893Y-112895480D01*
X153800067Y-112822493D01*
X153894850Y-112724046D01*
X153912628Y-112706380D01*
X154098683Y-112547077D01*
X154288775Y-112441502D01*
X154504334Y-112381743D01*
X154766789Y-112359888D01*
X154852125Y-112359487D01*
X155189469Y-112362281D01*
G36*
X156639282Y-112386555D02*
G01*
X156856027Y-112459570D01*
X157056180Y-112593259D01*
X157127163Y-112656318D01*
X157300870Y-112869449D01*
X157408908Y-113110953D01*
X157453411Y-113367928D01*
X157436508Y-113627470D01*
X157360332Y-113876678D01*
X157227014Y-114102647D01*
X157038685Y-114292476D01*
X156836500Y-114415985D01*
X156723979Y-114454385D01*
X156578840Y-114485345D01*
X156424348Y-114506298D01*
X156283774Y-114514677D01*
X156180383Y-114507915D01*
X156142352Y-114492560D01*
X156088712Y-114468843D01*
X156038631Y-114457857D01*
X155965945Y-114431830D01*
X155868467Y-114378125D01*
X155761322Y-114308016D01*
X155659633Y-114232775D01*
X155578522Y-114163675D01*
X155533114Y-114111987D01*
X155538531Y-114088984D01*
X155543343Y-114088687D01*
X155539250Y-114064313D01*
X155493049Y-114006528D01*
X155403567Y-113859411D01*
X155350346Y-113662790D01*
X155336142Y-113463609D01*
X155868259Y-113463609D01*
X155894780Y-113650305D01*
X155982892Y-113804260D01*
X156118349Y-113916177D01*
X156286909Y-113976756D01*
X156474326Y-113976698D01*
X156598375Y-113940218D01*
X156706007Y-113873531D01*
X156809826Y-113775781D01*
X156884369Y-113673490D01*
X156904351Y-113621505D01*
X156915837Y-113394277D01*
X156866925Y-113201296D01*
X156767016Y-113050708D01*
X156625513Y-112950658D01*
X156451816Y-112909290D01*
X156255327Y-112934750D01*
X156155860Y-112973015D01*
X156062678Y-113019604D01*
X156014722Y-113049547D01*
X156014530Y-113055363D01*
X156013496Y-113080780D01*
X155968029Y-113140309D01*
X155964921Y-113143671D01*
X155915698Y-113201128D01*
X155888678Y-113256414D01*
X155875534Y-113337088D01*
X155868259Y-113463609D01*
X155336142Y-113463609D01*
X155334333Y-113438248D01*
X155356471Y-113207364D01*
X155417707Y-112991722D01*
X155445873Y-112929142D01*
X155605146Y-112688638D01*
X155808753Y-112513876D01*
X156055489Y-112405583D01*
X156344152Y-112364489D01*
X156380094Y-112364104D01*
X156639282Y-112386555D01*
X156639282Y-112386555D01*
G37*
X156639282Y-112386555D02*
X156856027Y-112459570D01*
X157056180Y-112593259D01*
X157127163Y-112656318D01*
X157300870Y-112869449D01*
X157408908Y-113110953D01*
X157453411Y-113367928D01*
X157436508Y-113627470D01*
X157360332Y-113876678D01*
X157227014Y-114102647D01*
X157038685Y-114292476D01*
X156836500Y-114415985D01*
X156723979Y-114454385D01*
X156578840Y-114485345D01*
X156424348Y-114506298D01*
X156283774Y-114514677D01*
X156180383Y-114507915D01*
X156142352Y-114492560D01*
X156088712Y-114468843D01*
X156038631Y-114457857D01*
X155965945Y-114431830D01*
X155868467Y-114378125D01*
X155761322Y-114308016D01*
X155659633Y-114232775D01*
X155578522Y-114163675D01*
X155533114Y-114111987D01*
X155538531Y-114088984D01*
X155543343Y-114088687D01*
X155539250Y-114064313D01*
X155493049Y-114006528D01*
X155403567Y-113859411D01*
X155350346Y-113662790D01*
X155336142Y-113463609D01*
X155868259Y-113463609D01*
X155894780Y-113650305D01*
X155982892Y-113804260D01*
X156118349Y-113916177D01*
X156286909Y-113976756D01*
X156474326Y-113976698D01*
X156598375Y-113940218D01*
X156706007Y-113873531D01*
X156809826Y-113775781D01*
X156884369Y-113673490D01*
X156904351Y-113621505D01*
X156915837Y-113394277D01*
X156866925Y-113201296D01*
X156767016Y-113050708D01*
X156625513Y-112950658D01*
X156451816Y-112909290D01*
X156255327Y-112934750D01*
X156155860Y-112973015D01*
X156062678Y-113019604D01*
X156014722Y-113049547D01*
X156014530Y-113055363D01*
X156013496Y-113080780D01*
X155968029Y-113140309D01*
X155964921Y-113143671D01*
X155915698Y-113201128D01*
X155888678Y-113256414D01*
X155875534Y-113337088D01*
X155868259Y-113463609D01*
X155336142Y-113463609D01*
X155334333Y-113438248D01*
X155356471Y-113207364D01*
X155417707Y-112991722D01*
X155445873Y-112929142D01*
X155605146Y-112688638D01*
X155808753Y-112513876D01*
X156055489Y-112405583D01*
X156344152Y-112364489D01*
X156380094Y-112364104D01*
X156639282Y-112386555D01*
G36*
X158208524Y-112366426D02*
G01*
X158465244Y-112370989D01*
X158658665Y-112381354D01*
X158804807Y-112400251D01*
X158919687Y-112430411D01*
X159019323Y-112474563D01*
X159091103Y-112516861D01*
X159190752Y-112587693D01*
X159280094Y-112663538D01*
X159344207Y-112729734D01*
X159368165Y-112771621D01*
X159357948Y-112779000D01*
X159353997Y-112803581D01*
X159379712Y-112842401D01*
X159411603Y-112887545D01*
X159435490Y-112943164D01*
X159452523Y-113020665D01*
X159463848Y-113131454D01*
X159470613Y-113286940D01*
X159473965Y-113498527D01*
X159475052Y-113777623D01*
X159475064Y-113790246D01*
X159475719Y-114503837D01*
X159217738Y-114506021D01*
X158959758Y-114508205D01*
X158958922Y-113802607D01*
X158958183Y-113549413D01*
X158955724Y-113363279D01*
X158950144Y-113231892D01*
X158940044Y-113142939D01*
X158924025Y-113084104D01*
X158900686Y-113043076D01*
X158868630Y-113007539D01*
X158868548Y-113007457D01*
X158805300Y-112957430D01*
X158725946Y-112930055D01*
X158605851Y-112919139D01*
X158512326Y-112917906D01*
X158245642Y-112917906D01*
X158246370Y-114506932D01*
X157993081Y-114506932D01*
X157853173Y-114500556D01*
X157756458Y-114483534D01*
X157723246Y-114463812D01*
X157719309Y-114413887D01*
X157716788Y-114295622D01*
X157715706Y-114120038D01*
X157716087Y-113898158D01*
X157717956Y-113641004D01*
X157720889Y-113391486D01*
X157735080Y-112362281D01*
X158208524Y-112366426D01*
X158208524Y-112366426D01*
G37*
X158208524Y-112366426D02*
X158465244Y-112370989D01*
X158658665Y-112381354D01*
X158804807Y-112400251D01*
X158919687Y-112430411D01*
X159019323Y-112474563D01*
X159091103Y-112516861D01*
X159190752Y-112587693D01*
X159280094Y-112663538D01*
X159344207Y-112729734D01*
X159368165Y-112771621D01*
X159357948Y-112779000D01*
X159353997Y-112803581D01*
X159379712Y-112842401D01*
X159411603Y-112887545D01*
X159435490Y-112943164D01*
X159452523Y-113020665D01*
X159463848Y-113131454D01*
X159470613Y-113286940D01*
X159473965Y-113498527D01*
X159475052Y-113777623D01*
X159475064Y-113790246D01*
X159475719Y-114503837D01*
X159217738Y-114506021D01*
X158959758Y-114508205D01*
X158958922Y-113802607D01*
X158958183Y-113549413D01*
X158955724Y-113363279D01*
X158950144Y-113231892D01*
X158940044Y-113142939D01*
X158924025Y-113084104D01*
X158900686Y-113043076D01*
X158868630Y-113007539D01*
X158868548Y-113007457D01*
X158805300Y-112957430D01*
X158725946Y-112930055D01*
X158605851Y-112919139D01*
X158512326Y-112917906D01*
X158245642Y-112917906D01*
X158246370Y-114506932D01*
X157993081Y-114506932D01*
X157853173Y-114500556D01*
X157756458Y-114483534D01*
X157723246Y-114463812D01*
X157719309Y-114413887D01*
X157716788Y-114295622D01*
X157715706Y-114120038D01*
X157716087Y-113898158D01*
X157717956Y-113641004D01*
X157720889Y-113391486D01*
X157735080Y-112362281D01*
X158208524Y-112366426D01*
G36*
X164414449Y-112375576D02*
G01*
X164568322Y-112401113D01*
X164721956Y-112438381D01*
X164837934Y-112479672D01*
X164841705Y-112481519D01*
X164997635Y-112590272D01*
X165149667Y-112748544D01*
X165274064Y-112929001D01*
X165327067Y-113040471D01*
X165376236Y-113240474D01*
X165391609Y-113469912D01*
X165373493Y-113695374D01*
X165322197Y-113883445D01*
X165319222Y-113890250D01*
X165213727Y-114057688D01*
X165057501Y-114222538D01*
X164876074Y-114360193D01*
X164774000Y-114415762D01*
X164664695Y-114453963D01*
X164526871Y-114486242D01*
X164384697Y-114509021D01*
X164262342Y-114518723D01*
X164183974Y-114511770D01*
X164171598Y-114504931D01*
X164126050Y-114487977D01*
X164047415Y-114470507D01*
X163942648Y-114435251D01*
X163815654Y-114369845D01*
X163685376Y-114287317D01*
X163570759Y-114200696D01*
X163490749Y-114123009D01*
X163464051Y-114069326D01*
X163445703Y-114024257D01*
X163403534Y-113953447D01*
X163340215Y-113811039D01*
X163300824Y-113629004D01*
X163288472Y-113463858D01*
X163801759Y-113463858D01*
X163826119Y-113576360D01*
X163876142Y-113694091D01*
X163938176Y-113792382D01*
X163998573Y-113846565D01*
X164015733Y-113850562D01*
X164050807Y-113865308D01*
X164044071Y-113879345D01*
X164050966Y-113909854D01*
X164114463Y-113940430D01*
X164211929Y-113966503D01*
X164320726Y-113983505D01*
X164418220Y-113986867D01*
X164481773Y-113972020D01*
X164486266Y-113968600D01*
X164528293Y-113955806D01*
X164535738Y-113954742D01*
X164600006Y-113920267D01*
X164687133Y-113843617D01*
X164774783Y-113747869D01*
X164840624Y-113656100D01*
X164856978Y-113622805D01*
X164875603Y-113514285D01*
X164868797Y-113401295D01*
X164850952Y-113298135D01*
X164842268Y-113226975D01*
X164842263Y-113226858D01*
X164814406Y-113171821D01*
X164746724Y-113089830D01*
X164711605Y-113054036D01*
X164553371Y-112951879D01*
X164369658Y-112913131D01*
X164182232Y-112937420D01*
X164012860Y-113024371D01*
X163964553Y-113066840D01*
X163878539Y-113187483D01*
X163818823Y-113335031D01*
X163801759Y-113463858D01*
X163288472Y-113463858D01*
X163286050Y-113431491D01*
X163296584Y-113242650D01*
X163333114Y-113086629D01*
X163376521Y-113007422D01*
X163408354Y-112952128D01*
X163406828Y-112933182D01*
X163417976Y-112893746D01*
X163475025Y-112820029D01*
X163562276Y-112727802D01*
X163664025Y-112632837D01*
X163764571Y-112550907D01*
X163831712Y-112506391D01*
X164080705Y-112406625D01*
X164297750Y-112369475D01*
X164414449Y-112375576D01*
X164414449Y-112375576D01*
G37*
X164414449Y-112375576D02*
X164568322Y-112401113D01*
X164721956Y-112438381D01*
X164837934Y-112479672D01*
X164841705Y-112481519D01*
X164997635Y-112590272D01*
X165149667Y-112748544D01*
X165274064Y-112929001D01*
X165327067Y-113040471D01*
X165376236Y-113240474D01*
X165391609Y-113469912D01*
X165373493Y-113695374D01*
X165322197Y-113883445D01*
X165319222Y-113890250D01*
X165213727Y-114057688D01*
X165057501Y-114222538D01*
X164876074Y-114360193D01*
X164774000Y-114415762D01*
X164664695Y-114453963D01*
X164526871Y-114486242D01*
X164384697Y-114509021D01*
X164262342Y-114518723D01*
X164183974Y-114511770D01*
X164171598Y-114504931D01*
X164126050Y-114487977D01*
X164047415Y-114470507D01*
X163942648Y-114435251D01*
X163815654Y-114369845D01*
X163685376Y-114287317D01*
X163570759Y-114200696D01*
X163490749Y-114123009D01*
X163464051Y-114069326D01*
X163445703Y-114024257D01*
X163403534Y-113953447D01*
X163340215Y-113811039D01*
X163300824Y-113629004D01*
X163288472Y-113463858D01*
X163801759Y-113463858D01*
X163826119Y-113576360D01*
X163876142Y-113694091D01*
X163938176Y-113792382D01*
X163998573Y-113846565D01*
X164015733Y-113850562D01*
X164050807Y-113865308D01*
X164044071Y-113879345D01*
X164050966Y-113909854D01*
X164114463Y-113940430D01*
X164211929Y-113966503D01*
X164320726Y-113983505D01*
X164418220Y-113986867D01*
X164481773Y-113972020D01*
X164486266Y-113968600D01*
X164528293Y-113955806D01*
X164535738Y-113954742D01*
X164600006Y-113920267D01*
X164687133Y-113843617D01*
X164774783Y-113747869D01*
X164840624Y-113656100D01*
X164856978Y-113622805D01*
X164875603Y-113514285D01*
X164868797Y-113401295D01*
X164850952Y-113298135D01*
X164842268Y-113226975D01*
X164842263Y-113226858D01*
X164814406Y-113171821D01*
X164746724Y-113089830D01*
X164711605Y-113054036D01*
X164553371Y-112951879D01*
X164369658Y-112913131D01*
X164182232Y-112937420D01*
X164012860Y-113024371D01*
X163964553Y-113066840D01*
X163878539Y-113187483D01*
X163818823Y-113335031D01*
X163801759Y-113463858D01*
X163288472Y-113463858D01*
X163286050Y-113431491D01*
X163296584Y-113242650D01*
X163333114Y-113086629D01*
X163376521Y-113007422D01*
X163408354Y-112952128D01*
X163406828Y-112933182D01*
X163417976Y-112893746D01*
X163475025Y-112820029D01*
X163562276Y-112727802D01*
X163664025Y-112632837D01*
X163764571Y-112550907D01*
X163831712Y-112506391D01*
X164080705Y-112406625D01*
X164297750Y-112369475D01*
X164414449Y-112375576D01*
G36*
X169219000Y-112633393D02*
G01*
X169212580Y-112787585D01*
X169188137Y-112921167D01*
X169137893Y-113054107D01*
X169054070Y-113206377D01*
X168928893Y-113397945D01*
X168911136Y-113423921D01*
X168846367Y-113524498D01*
X168810359Y-113592890D01*
X168808913Y-113612437D01*
X168804293Y-113636962D01*
X168756738Y-113696686D01*
X168750423Y-113703488D01*
X168686589Y-113756896D01*
X168607528Y-113782793D01*
X168485711Y-113788521D01*
X168435927Y-113787380D01*
X168311159Y-113782808D01*
X168224289Y-113778356D01*
X168197833Y-113775704D01*
X168208284Y-113741438D01*
X168248791Y-113661565D01*
X168307026Y-113557593D01*
X168370658Y-113451025D01*
X168427361Y-113363367D01*
X168456389Y-113324703D01*
X168491066Y-113271980D01*
X168484781Y-113255250D01*
X168483727Y-113230853D01*
X168524469Y-113175875D01*
X168567771Y-113118616D01*
X168568761Y-113096500D01*
X168572764Y-113071980D01*
X168619820Y-113012433D01*
X168624660Y-113007203D01*
X168708099Y-112917906D01*
X168437690Y-112905691D01*
X168213255Y-112902639D01*
X168048757Y-112919855D01*
X167926385Y-112961618D01*
X167828330Y-113032208D01*
X167802197Y-113058367D01*
X167737575Y-113134344D01*
X167709370Y-113183037D01*
X167710875Y-113189755D01*
X167705310Y-113226257D01*
X167676611Y-113268558D01*
X167642345Y-113353621D01*
X167653525Y-113483018D01*
X167672434Y-113585082D01*
X167680178Y-113649789D01*
X167679829Y-113656162D01*
X167703066Y-113695217D01*
X167767518Y-113768006D01*
X167814144Y-113814912D01*
X167953178Y-113949781D01*
X168596106Y-113969625D01*
X169239035Y-113989468D01*
X169233979Y-114118453D01*
X169228512Y-114258838D01*
X169223961Y-114376741D01*
X169219000Y-114506046D01*
X168604482Y-114506046D01*
X168318524Y-114502938D01*
X168100520Y-114493048D01*
X167939271Y-114475529D01*
X167823579Y-114449534D01*
X167813369Y-114446195D01*
X167680134Y-114388913D01*
X167562028Y-114318595D01*
X167534617Y-114297046D01*
X167452369Y-114236059D01*
X167389873Y-114207961D01*
X167386459Y-114207750D01*
X167360606Y-114191248D01*
X167367472Y-114180736D01*
X167360218Y-114138228D01*
X167308903Y-114065591D01*
X167287287Y-114041829D01*
X167225662Y-113971734D01*
X167202151Y-113932773D01*
X167205002Y-113929937D01*
X167206962Y-113899935D01*
X167176873Y-113827695D01*
X167176406Y-113826792D01*
X167144093Y-113715386D01*
X167127321Y-113555330D01*
X167125936Y-113375779D01*
X167139781Y-113205890D01*
X167168700Y-113074821D01*
X167180568Y-113046890D01*
X167211076Y-112971808D01*
X167208885Y-112937911D01*
X167207370Y-112937749D01*
X167210123Y-112914642D01*
X167259421Y-112854442D01*
X167340801Y-112770835D01*
X167439801Y-112677506D01*
X167541957Y-112588140D01*
X167632806Y-112516422D01*
X167692997Y-112478252D01*
X167778349Y-112440554D01*
X167863047Y-112412988D01*
X167961787Y-112393778D01*
X168089267Y-112381145D01*
X168260184Y-112373311D01*
X168489234Y-112368497D01*
X168613766Y-112366860D01*
X169219000Y-112359688D01*
X169219000Y-112633393D01*
X169219000Y-112633393D01*
G37*
X169219000Y-112633393D02*
X169212580Y-112787585D01*
X169188137Y-112921167D01*
X169137893Y-113054107D01*
X169054070Y-113206377D01*
X168928893Y-113397945D01*
X168911136Y-113423921D01*
X168846367Y-113524498D01*
X168810359Y-113592890D01*
X168808913Y-113612437D01*
X168804293Y-113636962D01*
X168756738Y-113696686D01*
X168750423Y-113703488D01*
X168686589Y-113756896D01*
X168607528Y-113782793D01*
X168485711Y-113788521D01*
X168435927Y-113787380D01*
X168311159Y-113782808D01*
X168224289Y-113778356D01*
X168197833Y-113775704D01*
X168208284Y-113741438D01*
X168248791Y-113661565D01*
X168307026Y-113557593D01*
X168370658Y-113451025D01*
X168427361Y-113363367D01*
X168456389Y-113324703D01*
X168491066Y-113271980D01*
X168484781Y-113255250D01*
X168483727Y-113230853D01*
X168524469Y-113175875D01*
X168567771Y-113118616D01*
X168568761Y-113096500D01*
X168572764Y-113071980D01*
X168619820Y-113012433D01*
X168624660Y-113007203D01*
X168708099Y-112917906D01*
X168437690Y-112905691D01*
X168213255Y-112902639D01*
X168048757Y-112919855D01*
X167926385Y-112961618D01*
X167828330Y-113032208D01*
X167802197Y-113058367D01*
X167737575Y-113134344D01*
X167709370Y-113183037D01*
X167710875Y-113189755D01*
X167705310Y-113226257D01*
X167676611Y-113268558D01*
X167642345Y-113353621D01*
X167653525Y-113483018D01*
X167672434Y-113585082D01*
X167680178Y-113649789D01*
X167679829Y-113656162D01*
X167703066Y-113695217D01*
X167767518Y-113768006D01*
X167814144Y-113814912D01*
X167953178Y-113949781D01*
X168596106Y-113969625D01*
X169239035Y-113989468D01*
X169233979Y-114118453D01*
X169228512Y-114258838D01*
X169223961Y-114376741D01*
X169219000Y-114506046D01*
X168604482Y-114506046D01*
X168318524Y-114502938D01*
X168100520Y-114493048D01*
X167939271Y-114475529D01*
X167823579Y-114449534D01*
X167813369Y-114446195D01*
X167680134Y-114388913D01*
X167562028Y-114318595D01*
X167534617Y-114297046D01*
X167452369Y-114236059D01*
X167389873Y-114207961D01*
X167386459Y-114207750D01*
X167360606Y-114191248D01*
X167367472Y-114180736D01*
X167360218Y-114138228D01*
X167308903Y-114065591D01*
X167287287Y-114041829D01*
X167225662Y-113971734D01*
X167202151Y-113932773D01*
X167205002Y-113929937D01*
X167206962Y-113899935D01*
X167176873Y-113827695D01*
X167176406Y-113826792D01*
X167144093Y-113715386D01*
X167127321Y-113555330D01*
X167125936Y-113375779D01*
X167139781Y-113205890D01*
X167168700Y-113074821D01*
X167180568Y-113046890D01*
X167211076Y-112971808D01*
X167208885Y-112937911D01*
X167207370Y-112937749D01*
X167210123Y-112914642D01*
X167259421Y-112854442D01*
X167340801Y-112770835D01*
X167439801Y-112677506D01*
X167541957Y-112588140D01*
X167632806Y-112516422D01*
X167692997Y-112478252D01*
X167778349Y-112440554D01*
X167863047Y-112412988D01*
X167961787Y-112393778D01*
X168089267Y-112381145D01*
X168260184Y-112373311D01*
X168489234Y-112368497D01*
X168613766Y-112366860D01*
X169219000Y-112359688D01*
X169219000Y-112633393D01*
D10*
X123352779Y-74293000D02*
X123027221Y-74293000D01*
X123352779Y-75313000D02*
X123027221Y-75313000D01*
X123352779Y-73408000D02*
X123027221Y-73408000D01*
X123352779Y-72388000D02*
X123027221Y-72388000D01*
X142402779Y-72138000D02*
X142077221Y-72138000D01*
X142402779Y-71118000D02*
X142077221Y-71118000D01*
X116715000Y-77668000D02*
X116715000Y-78598000D01*
X116715000Y-80828000D02*
X116715000Y-79898000D01*
X116715000Y-80828000D02*
X118875000Y-80828000D01*
X116715000Y-77668000D02*
X118175000Y-77668000D01*
X120550000Y-65875000D02*
X120550000Y-68335000D01*
X120550000Y-68335000D02*
X122020000Y-68335000D01*
X122020000Y-68335000D02*
X122020000Y-65875000D01*
X154670000Y-63778000D02*
X170450000Y-63778000D01*
X170450000Y-63778000D02*
X170450000Y-73128000D01*
X170450000Y-73128000D02*
X154670000Y-73128000D01*
X154670000Y-73128000D02*
X154670000Y-63778000D01*
X154420000Y-73378000D02*
X156960000Y-73378000D01*
X154420000Y-73378000D02*
X154420000Y-70838000D01*
X123018733Y-71503000D02*
X123361267Y-71503000D01*
X123018733Y-70483000D02*
X123361267Y-70483000D01*
X122764733Y-78103000D02*
X123107267Y-78103000D01*
X122764733Y-79123000D02*
X123107267Y-79123000D01*
X122764733Y-81028000D02*
X123107267Y-81028000D01*
X122764733Y-80008000D02*
X123107267Y-80008000D01*
X122764733Y-81913000D02*
X123107267Y-81913000D01*
X122764733Y-82933000D02*
X123107267Y-82933000D01*
X107143733Y-68070000D02*
X107486267Y-68070000D01*
X107143733Y-69090000D02*
X107486267Y-69090000D01*
X112947267Y-82933000D02*
X112604733Y-82933000D01*
X112947267Y-81913000D02*
X112604733Y-81913000D01*
X167541000Y-87240000D02*
X167541000Y-91177000D01*
X167541000Y-95544000D02*
X167541000Y-99480000D01*
X157500000Y-87240000D02*
X157500000Y-91177000D01*
X157500000Y-95544000D02*
X157500000Y-99480000D01*
X167541000Y-87240000D02*
X165891000Y-87240000D01*
X164149000Y-87240000D02*
X163390000Y-87240000D01*
X161649000Y-87240000D02*
X160890000Y-87240000D01*
X159150000Y-87240000D02*
X157500000Y-87240000D01*
X167541000Y-99480000D02*
X157500000Y-99480000D01*
X139601000Y-99480000D02*
X129560000Y-99480000D01*
X131210000Y-87240000D02*
X129560000Y-87240000D01*
X133709000Y-87240000D02*
X132950000Y-87240000D01*
X136209000Y-87240000D02*
X135450000Y-87240000D01*
X139601000Y-87240000D02*
X137951000Y-87240000D01*
X129560000Y-95544000D02*
X129560000Y-99480000D01*
X129560000Y-87240000D02*
X129560000Y-91177000D01*
X139601000Y-95544000D02*
X139601000Y-99480000D01*
X139601000Y-87240000D02*
X139601000Y-91177000D01*
X133350000Y-83218000D02*
X137210000Y-83218000D01*
X137210000Y-83218000D02*
X137210000Y-82983000D01*
X133350000Y-83218000D02*
X129490000Y-83218000D01*
X129490000Y-83218000D02*
X129490000Y-82983000D01*
X133350000Y-70198000D02*
X137210000Y-70198000D01*
X137210000Y-70198000D02*
X137210000Y-70433000D01*
X133350000Y-70198000D02*
X129490000Y-70198000D01*
X129490000Y-70198000D02*
X129490000Y-70433000D01*
X129490000Y-70433000D02*
X127675000Y-70433000D01*
X110017779Y-74043000D02*
X109692221Y-74043000D01*
X110017779Y-73023000D02*
X109692221Y-73023000D01*
D11*
X161226666Y-106314761D02*
X161369523Y-106362380D01*
X161607619Y-106362380D01*
X161702857Y-106314761D01*
X161750476Y-106267142D01*
X161798095Y-106171904D01*
X161798095Y-106076666D01*
X161750476Y-105981428D01*
X161702857Y-105933809D01*
X161607619Y-105886190D01*
X161417142Y-105838571D01*
X161321904Y-105790952D01*
X161274285Y-105743333D01*
X161226666Y-105648095D01*
X161226666Y-105552857D01*
X161274285Y-105457619D01*
X161321904Y-105410000D01*
X161417142Y-105362380D01*
X161655238Y-105362380D01*
X161798095Y-105410000D01*
X162131428Y-105362380D02*
X162369523Y-106362380D01*
X162560000Y-105648095D01*
X162750476Y-106362380D01*
X162988571Y-105362380D01*
X163274285Y-105362380D02*
X163893333Y-105362380D01*
X163560000Y-105743333D01*
X163702857Y-105743333D01*
X163798095Y-105790952D01*
X163845714Y-105838571D01*
X163893333Y-105933809D01*
X163893333Y-106171904D01*
X163845714Y-106267142D01*
X163798095Y-106314761D01*
X163702857Y-106362380D01*
X163417142Y-106362380D01*
X163321904Y-106314761D01*
X163274285Y-106267142D01*
X133286666Y-106314761D02*
X133429523Y-106362380D01*
X133667619Y-106362380D01*
X133762857Y-106314761D01*
X133810476Y-106267142D01*
X133858095Y-106171904D01*
X133858095Y-106076666D01*
X133810476Y-105981428D01*
X133762857Y-105933809D01*
X133667619Y-105886190D01*
X133477142Y-105838571D01*
X133381904Y-105790952D01*
X133334285Y-105743333D01*
X133286666Y-105648095D01*
X133286666Y-105552857D01*
X133334285Y-105457619D01*
X133381904Y-105410000D01*
X133477142Y-105362380D01*
X133715238Y-105362380D01*
X133858095Y-105410000D01*
X134191428Y-105362380D02*
X134429523Y-106362380D01*
X134620000Y-105648095D01*
X134810476Y-106362380D01*
X135048571Y-105362380D01*
X135381904Y-105457619D02*
X135429523Y-105410000D01*
X135524761Y-105362380D01*
X135762857Y-105362380D01*
X135858095Y-105410000D01*
X135905714Y-105457619D01*
X135953333Y-105552857D01*
X135953333Y-105648095D01*
X135905714Y-105790952D01*
X135334285Y-106362380D01*
X135953333Y-106362380D01*
X104584666Y-106314761D02*
X104727523Y-106362380D01*
X104965619Y-106362380D01*
X105060857Y-106314761D01*
X105108476Y-106267142D01*
X105156095Y-106171904D01*
X105156095Y-106076666D01*
X105108476Y-105981428D01*
X105060857Y-105933809D01*
X104965619Y-105886190D01*
X104775142Y-105838571D01*
X104679904Y-105790952D01*
X104632285Y-105743333D01*
X104584666Y-105648095D01*
X104584666Y-105552857D01*
X104632285Y-105457619D01*
X104679904Y-105410000D01*
X104775142Y-105362380D01*
X105013238Y-105362380D01*
X105156095Y-105410000D01*
X105489428Y-105362380D02*
X105727523Y-106362380D01*
X105918000Y-105648095D01*
X106108476Y-106362380D01*
X106346571Y-105362380D01*
X107251333Y-106362380D02*
X106679904Y-106362380D01*
X106965619Y-106362380D02*
X106965619Y-105362380D01*
X106870380Y-105505238D01*
X106775142Y-105600476D01*
X106679904Y-105648095D01*
X104227333Y-70810380D02*
X103894000Y-70334190D01*
X103655904Y-70810380D02*
X103655904Y-69810380D01*
X104036857Y-69810380D01*
X104132095Y-69858000D01*
X104179714Y-69905619D01*
X104227333Y-70000857D01*
X104227333Y-70143714D01*
X104179714Y-70238952D01*
X104132095Y-70286571D01*
X104036857Y-70334190D01*
X103655904Y-70334190D01*
X104703523Y-70810380D02*
X104894000Y-70810380D01*
X104989238Y-70762761D01*
X105036857Y-70715142D01*
X105132095Y-70572285D01*
X105179714Y-70381809D01*
X105179714Y-70000857D01*
X105132095Y-69905619D01*
X105084476Y-69858000D01*
X104989238Y-69810380D01*
X104798761Y-69810380D01*
X104703523Y-69858000D01*
X104655904Y-69905619D01*
X104608285Y-70000857D01*
X104608285Y-70238952D01*
X104655904Y-70334190D01*
X104703523Y-70381809D01*
X104798761Y-70429428D01*
X104989238Y-70429428D01*
X105084476Y-70381809D01*
X105132095Y-70334190D01*
X105179714Y-70238952D01*
X122705904Y-69794380D02*
X122705904Y-68794380D01*
X122944000Y-68794380D01*
X123086857Y-68842000D01*
X123182095Y-68937238D01*
X123229714Y-69032476D01*
X123277333Y-69222952D01*
X123277333Y-69365809D01*
X123229714Y-69556285D01*
X123182095Y-69651523D01*
X123086857Y-69746761D01*
X122944000Y-69794380D01*
X122705904Y-69794380D01*
X123610666Y-68794380D02*
X124229714Y-68794380D01*
X123896380Y-69175333D01*
X124039238Y-69175333D01*
X124134476Y-69222952D01*
X124182095Y-69270571D01*
X124229714Y-69365809D01*
X124229714Y-69603904D01*
X124182095Y-69699142D01*
X124134476Y-69746761D01*
X124039238Y-69794380D01*
X123753523Y-69794380D01*
X123658285Y-69746761D01*
X123610666Y-69699142D01*
X124618809Y-66524190D02*
X124618809Y-67000380D01*
X124285476Y-66000380D02*
X124618809Y-66524190D01*
X124952142Y-66000380D01*
X125809285Y-67000380D02*
X125237857Y-67000380D01*
X125523571Y-67000380D02*
X125523571Y-66000380D01*
X125428333Y-66143238D01*
X125333095Y-66238476D01*
X125237857Y-66286095D01*
X109942380Y-68786333D02*
X110656666Y-68786333D01*
X110799523Y-68833952D01*
X110894761Y-68929190D01*
X110942380Y-69072047D01*
X110942380Y-69167285D01*
X110942380Y-67786333D02*
X110942380Y-68357761D01*
X110942380Y-68072047D02*
X109942380Y-68072047D01*
X110085238Y-68167285D01*
X110180476Y-68262523D01*
X110228095Y-68357761D01*
X104878761Y-94432380D02*
X104545428Y-93956190D01*
X104307333Y-94432380D02*
X104307333Y-93432380D01*
X104688285Y-93432380D01*
X104783523Y-93480000D01*
X104831142Y-93527619D01*
X104878761Y-93622857D01*
X104878761Y-93765714D01*
X104831142Y-93860952D01*
X104783523Y-93908571D01*
X104688285Y-93956190D01*
X104307333Y-93956190D01*
X105164476Y-93432380D02*
X105497809Y-94432380D01*
X105831142Y-93432380D01*
X106069238Y-93432380D02*
X106688285Y-93432380D01*
X106354952Y-93813333D01*
X106497809Y-93813333D01*
X106593047Y-93860952D01*
X106640666Y-93908571D01*
X106688285Y-94003809D01*
X106688285Y-94241904D01*
X106640666Y-94337142D01*
X106593047Y-94384761D01*
X106497809Y-94432380D01*
X106212095Y-94432380D01*
X106116857Y-94384761D01*
X106069238Y-94337142D01*
X109688333Y-79065380D02*
X109355000Y-78589190D01*
X109116904Y-79065380D02*
X109116904Y-78065380D01*
X109497857Y-78065380D01*
X109593095Y-78113000D01*
X109640714Y-78160619D01*
X109688333Y-78255857D01*
X109688333Y-78398714D01*
X109640714Y-78493952D01*
X109593095Y-78541571D01*
X109497857Y-78589190D01*
X109116904Y-78589190D01*
X110545476Y-78065380D02*
X110355000Y-78065380D01*
X110259761Y-78113000D01*
X110212142Y-78160619D01*
X110116904Y-78303476D01*
X110069285Y-78493952D01*
X110069285Y-78874904D01*
X110116904Y-78970142D01*
X110164523Y-79017761D01*
X110259761Y-79065380D01*
X110450238Y-79065380D01*
X110545476Y-79017761D01*
X110593095Y-78970142D01*
X110640714Y-78874904D01*
X110640714Y-78636809D01*
X110593095Y-78541571D01*
X110545476Y-78493952D01*
X110450238Y-78446333D01*
X110259761Y-78446333D01*
X110164523Y-78493952D01*
X110116904Y-78541571D01*
X110069285Y-78636809D01*
X109688333Y-80970380D02*
X109355000Y-80494190D01*
X109116904Y-80970380D02*
X109116904Y-79970380D01*
X109497857Y-79970380D01*
X109593095Y-80018000D01*
X109640714Y-80065619D01*
X109688333Y-80160857D01*
X109688333Y-80303714D01*
X109640714Y-80398952D01*
X109593095Y-80446571D01*
X109497857Y-80494190D01*
X109116904Y-80494190D01*
X110021666Y-79970380D02*
X110688333Y-79970380D01*
X110259761Y-80970380D01*
X103378095Y-71530380D02*
X103378095Y-72339904D01*
X103425714Y-72435142D01*
X103473333Y-72482761D01*
X103568571Y-72530380D01*
X103759047Y-72530380D01*
X103854285Y-72482761D01*
X103901904Y-72435142D01*
X103949523Y-72339904D01*
X103949523Y-71530380D01*
X104378095Y-71625619D02*
X104425714Y-71578000D01*
X104520952Y-71530380D01*
X104759047Y-71530380D01*
X104854285Y-71578000D01*
X104901904Y-71625619D01*
X104949523Y-71720857D01*
X104949523Y-71816095D01*
X104901904Y-71958952D01*
X104330476Y-72530380D01*
X104949523Y-72530380D01*
X125563333Y-75160142D02*
X125515714Y-75207761D01*
X125372857Y-75255380D01*
X125277619Y-75255380D01*
X125134761Y-75207761D01*
X125039523Y-75112523D01*
X124991904Y-75017285D01*
X124944285Y-74826809D01*
X124944285Y-74683952D01*
X124991904Y-74493476D01*
X125039523Y-74398238D01*
X125134761Y-74303000D01*
X125277619Y-74255380D01*
X125372857Y-74255380D01*
X125515714Y-74303000D01*
X125563333Y-74350619D01*
X126515714Y-75255380D02*
X125944285Y-75255380D01*
X126230000Y-75255380D02*
X126230000Y-74255380D01*
X126134761Y-74398238D01*
X126039523Y-74493476D01*
X125944285Y-74541095D01*
X125563333Y-73255142D02*
X125515714Y-73302761D01*
X125372857Y-73350380D01*
X125277619Y-73350380D01*
X125134761Y-73302761D01*
X125039523Y-73207523D01*
X124991904Y-73112285D01*
X124944285Y-72921809D01*
X124944285Y-72778952D01*
X124991904Y-72588476D01*
X125039523Y-72493238D01*
X125134761Y-72398000D01*
X125277619Y-72350380D01*
X125372857Y-72350380D01*
X125515714Y-72398000D01*
X125563333Y-72445619D01*
X125944285Y-72445619D02*
X125991904Y-72398000D01*
X126087142Y-72350380D01*
X126325238Y-72350380D01*
X126420476Y-72398000D01*
X126468095Y-72445619D01*
X126515714Y-72540857D01*
X126515714Y-72636095D01*
X126468095Y-72778952D01*
X125896666Y-73350380D01*
X126515714Y-73350380D01*
X145629333Y-71985142D02*
X145581714Y-72032761D01*
X145438857Y-72080380D01*
X145343619Y-72080380D01*
X145200761Y-72032761D01*
X145105523Y-71937523D01*
X145057904Y-71842285D01*
X145010285Y-71651809D01*
X145010285Y-71508952D01*
X145057904Y-71318476D01*
X145105523Y-71223238D01*
X145200761Y-71128000D01*
X145343619Y-71080380D01*
X145438857Y-71080380D01*
X145581714Y-71128000D01*
X145629333Y-71175619D01*
X145962666Y-71080380D02*
X146581714Y-71080380D01*
X146248380Y-71461333D01*
X146391238Y-71461333D01*
X146486476Y-71508952D01*
X146534095Y-71556571D01*
X146581714Y-71651809D01*
X146581714Y-71889904D01*
X146534095Y-71985142D01*
X146486476Y-72032761D01*
X146391238Y-72080380D01*
X146105523Y-72080380D01*
X146010285Y-72032761D01*
X145962666Y-71985142D01*
X116736904Y-77160380D02*
X116736904Y-76160380D01*
X116975000Y-76160380D01*
X117117857Y-76208000D01*
X117213095Y-76303238D01*
X117260714Y-76398476D01*
X117308333Y-76588952D01*
X117308333Y-76731809D01*
X117260714Y-76922285D01*
X117213095Y-77017523D01*
X117117857Y-77112761D01*
X116975000Y-77160380D01*
X116736904Y-77160380D01*
X118260714Y-77160380D02*
X117689285Y-77160380D01*
X117975000Y-77160380D02*
X117975000Y-76160380D01*
X117879761Y-76303238D01*
X117784523Y-76398476D01*
X117689285Y-76446095D01*
X120673904Y-69794380D02*
X120673904Y-68794380D01*
X120912000Y-68794380D01*
X121054857Y-68842000D01*
X121150095Y-68937238D01*
X121197714Y-69032476D01*
X121245333Y-69222952D01*
X121245333Y-69365809D01*
X121197714Y-69556285D01*
X121150095Y-69651523D01*
X121054857Y-69746761D01*
X120912000Y-69794380D01*
X120673904Y-69794380D01*
X121626285Y-68889619D02*
X121673904Y-68842000D01*
X121769142Y-68794380D01*
X122007238Y-68794380D01*
X122102476Y-68842000D01*
X122150095Y-68889619D01*
X122197714Y-68984857D01*
X122197714Y-69080095D01*
X122150095Y-69222952D01*
X121578666Y-69794380D01*
X122197714Y-69794380D01*
X152868380Y-68786333D02*
X153582666Y-68786333D01*
X153725523Y-68833952D01*
X153820761Y-68929190D01*
X153868380Y-69072047D01*
X153868380Y-69167285D01*
X152963619Y-68357761D02*
X152916000Y-68310142D01*
X152868380Y-68214904D01*
X152868380Y-67976809D01*
X152916000Y-67881571D01*
X152963619Y-67833952D01*
X153058857Y-67786333D01*
X153154095Y-67786333D01*
X153296952Y-67833952D01*
X153868380Y-68405380D01*
X153868380Y-67786333D01*
X125817333Y-71572380D02*
X125484000Y-71096190D01*
X125245904Y-71572380D02*
X125245904Y-70572380D01*
X125626857Y-70572380D01*
X125722095Y-70620000D01*
X125769714Y-70667619D01*
X125817333Y-70762857D01*
X125817333Y-70905714D01*
X125769714Y-71000952D01*
X125722095Y-71048571D01*
X125626857Y-71096190D01*
X125245904Y-71096190D01*
X126769714Y-71572380D02*
X126198285Y-71572380D01*
X126484000Y-71572380D02*
X126484000Y-70572380D01*
X126388761Y-70715238D01*
X126293523Y-70810476D01*
X126198285Y-70858095D01*
X125563333Y-79065380D02*
X125230000Y-78589190D01*
X124991904Y-79065380D02*
X124991904Y-78065380D01*
X125372857Y-78065380D01*
X125468095Y-78113000D01*
X125515714Y-78160619D01*
X125563333Y-78255857D01*
X125563333Y-78398714D01*
X125515714Y-78493952D01*
X125468095Y-78541571D01*
X125372857Y-78589190D01*
X124991904Y-78589190D01*
X125944285Y-78160619D02*
X125991904Y-78113000D01*
X126087142Y-78065380D01*
X126325238Y-78065380D01*
X126420476Y-78113000D01*
X126468095Y-78160619D01*
X126515714Y-78255857D01*
X126515714Y-78351095D01*
X126468095Y-78493952D01*
X125896666Y-79065380D01*
X126515714Y-79065380D01*
X125563333Y-80970380D02*
X125230000Y-80494190D01*
X124991904Y-80970380D02*
X124991904Y-79970380D01*
X125372857Y-79970380D01*
X125468095Y-80018000D01*
X125515714Y-80065619D01*
X125563333Y-80160857D01*
X125563333Y-80303714D01*
X125515714Y-80398952D01*
X125468095Y-80446571D01*
X125372857Y-80494190D01*
X124991904Y-80494190D01*
X125896666Y-79970380D02*
X126515714Y-79970380D01*
X126182380Y-80351333D01*
X126325238Y-80351333D01*
X126420476Y-80398952D01*
X126468095Y-80446571D01*
X126515714Y-80541809D01*
X126515714Y-80779904D01*
X126468095Y-80875142D01*
X126420476Y-80922761D01*
X126325238Y-80970380D01*
X126039523Y-80970380D01*
X125944285Y-80922761D01*
X125896666Y-80875142D01*
X123023333Y-84780380D02*
X122690000Y-84304190D01*
X122451904Y-84780380D02*
X122451904Y-83780380D01*
X122832857Y-83780380D01*
X122928095Y-83828000D01*
X122975714Y-83875619D01*
X123023333Y-83970857D01*
X123023333Y-84113714D01*
X122975714Y-84208952D01*
X122928095Y-84256571D01*
X122832857Y-84304190D01*
X122451904Y-84304190D01*
X123880476Y-84113714D02*
X123880476Y-84780380D01*
X123642380Y-83732761D02*
X123404285Y-84447047D01*
X124023333Y-84447047D01*
X104227333Y-69032380D02*
X103894000Y-68556190D01*
X103655904Y-69032380D02*
X103655904Y-68032380D01*
X104036857Y-68032380D01*
X104132095Y-68080000D01*
X104179714Y-68127619D01*
X104227333Y-68222857D01*
X104227333Y-68365714D01*
X104179714Y-68460952D01*
X104132095Y-68508571D01*
X104036857Y-68556190D01*
X103655904Y-68556190D01*
X105132095Y-68032380D02*
X104655904Y-68032380D01*
X104608285Y-68508571D01*
X104655904Y-68460952D01*
X104751142Y-68413333D01*
X104989238Y-68413333D01*
X105084476Y-68460952D01*
X105132095Y-68508571D01*
X105179714Y-68603809D01*
X105179714Y-68841904D01*
X105132095Y-68937142D01*
X105084476Y-68984761D01*
X104989238Y-69032380D01*
X104751142Y-69032380D01*
X104655904Y-68984761D01*
X104608285Y-68937142D01*
X109688333Y-82875380D02*
X109355000Y-82399190D01*
X109116904Y-82875380D02*
X109116904Y-81875380D01*
X109497857Y-81875380D01*
X109593095Y-81923000D01*
X109640714Y-81970619D01*
X109688333Y-82065857D01*
X109688333Y-82208714D01*
X109640714Y-82303952D01*
X109593095Y-82351571D01*
X109497857Y-82399190D01*
X109116904Y-82399190D01*
X110259761Y-82303952D02*
X110164523Y-82256333D01*
X110116904Y-82208714D01*
X110069285Y-82113476D01*
X110069285Y-82065857D01*
X110116904Y-81970619D01*
X110164523Y-81923000D01*
X110259761Y-81875380D01*
X110450238Y-81875380D01*
X110545476Y-81923000D01*
X110593095Y-81970619D01*
X110640714Y-82065857D01*
X110640714Y-82113476D01*
X110593095Y-82208714D01*
X110545476Y-82256333D01*
X110450238Y-82303952D01*
X110259761Y-82303952D01*
X110164523Y-82351571D01*
X110116904Y-82399190D01*
X110069285Y-82494428D01*
X110069285Y-82684904D01*
X110116904Y-82780142D01*
X110164523Y-82827761D01*
X110259761Y-82875380D01*
X110450238Y-82875380D01*
X110545476Y-82827761D01*
X110593095Y-82780142D01*
X110640714Y-82684904D01*
X110640714Y-82494428D01*
X110593095Y-82399190D01*
X110545476Y-82351571D01*
X110450238Y-82303952D01*
X161964761Y-94432380D02*
X161631428Y-93956190D01*
X161393333Y-94432380D02*
X161393333Y-93432380D01*
X161774285Y-93432380D01*
X161869523Y-93480000D01*
X161917142Y-93527619D01*
X161964761Y-93622857D01*
X161964761Y-93765714D01*
X161917142Y-93860952D01*
X161869523Y-93908571D01*
X161774285Y-93956190D01*
X161393333Y-93956190D01*
X162250476Y-93432380D02*
X162583809Y-94432380D01*
X162917142Y-93432380D01*
X163774285Y-94432380D02*
X163202857Y-94432380D01*
X163488571Y-94432380D02*
X163488571Y-93432380D01*
X163393333Y-93575238D01*
X163298095Y-93670476D01*
X163202857Y-93718095D01*
X134024761Y-94432380D02*
X133691428Y-93956190D01*
X133453333Y-94432380D02*
X133453333Y-93432380D01*
X133834285Y-93432380D01*
X133929523Y-93480000D01*
X133977142Y-93527619D01*
X134024761Y-93622857D01*
X134024761Y-93765714D01*
X133977142Y-93860952D01*
X133929523Y-93908571D01*
X133834285Y-93956190D01*
X133453333Y-93956190D01*
X134310476Y-93432380D02*
X134643809Y-94432380D01*
X134977142Y-93432380D01*
X135262857Y-93527619D02*
X135310476Y-93480000D01*
X135405714Y-93432380D01*
X135643809Y-93432380D01*
X135739047Y-93480000D01*
X135786666Y-93527619D01*
X135834285Y-93622857D01*
X135834285Y-93718095D01*
X135786666Y-93860952D01*
X135215238Y-94432380D01*
X135834285Y-94432380D01*
X132588095Y-83780380D02*
X132588095Y-84589904D01*
X132635714Y-84685142D01*
X132683333Y-84732761D01*
X132778571Y-84780380D01*
X132969047Y-84780380D01*
X133064285Y-84732761D01*
X133111904Y-84685142D01*
X133159523Y-84589904D01*
X133159523Y-83780380D01*
X134159523Y-84780380D02*
X133588095Y-84780380D01*
X133873809Y-84780380D02*
X133873809Y-83780380D01*
X133778571Y-83923238D01*
X133683333Y-84018476D01*
X133588095Y-84066095D01*
X109688333Y-72620142D02*
X109640714Y-72667761D01*
X109497857Y-72715380D01*
X109402619Y-72715380D01*
X109259761Y-72667761D01*
X109164523Y-72572523D01*
X109116904Y-72477285D01*
X109069285Y-72286809D01*
X109069285Y-72143952D01*
X109116904Y-71953476D01*
X109164523Y-71858238D01*
X109259761Y-71763000D01*
X109402619Y-71715380D01*
X109497857Y-71715380D01*
X109640714Y-71763000D01*
X109688333Y-71810619D01*
X110545476Y-72048714D02*
X110545476Y-72715380D01*
X110307380Y-71667761D02*
X110069285Y-72382047D01*
X110688333Y-72382047D01*
M02*
