G04 #@! TF.GenerationSoftware,KiCad,Pcbnew,(5.1.2-1)-1*
G04 #@! TF.CreationDate,2019-08-25T18:33:29+09:00*
G04 #@! TF.ProjectId,mmk3,6d6d6b33-2e6b-4696-9361-645f70636258,rev?*
G04 #@! TF.SameCoordinates,Original*
G04 #@! TF.FileFunction,Soldermask,Top*
G04 #@! TF.FilePolarity,Negative*
%FSLAX46Y46*%
G04 Gerber Fmt 4.6, Leading zero omitted, Abs format (unit mm)*
G04 Created by KiCad (PCBNEW (5.1.2-1)-1) date 2019-08-25 18:33:29*
%MOMM*%
%LPD*%
G04 APERTURE LIST*
%ADD10C,0.010000*%
%ADD11C,0.100000*%
G04 APERTURE END LIST*
D10*
G36*
X159801424Y-112397059D02*
G01*
X160095150Y-112436410D01*
X160341513Y-112537298D01*
X160537718Y-112698008D01*
X160680974Y-112916821D01*
X160694099Y-112946031D01*
X160720513Y-113022211D01*
X160739738Y-113118501D01*
X160752915Y-113248191D01*
X160761188Y-113424574D01*
X160765698Y-113660941D01*
X160766817Y-113792464D01*
X160766163Y-114064408D01*
X160760611Y-114276507D01*
X160750460Y-114422928D01*
X160736008Y-114497838D01*
X160730314Y-114505892D01*
X160671010Y-114520050D01*
X160559205Y-114530349D01*
X160450489Y-114533990D01*
X160211510Y-114536344D01*
X160213255Y-113864617D01*
X160211405Y-113614034D01*
X160204912Y-113400335D01*
X160194425Y-113235783D01*
X160180593Y-113132645D01*
X160173260Y-113109148D01*
X160083132Y-113009393D01*
X159928841Y-112947102D01*
X159724993Y-112921415D01*
X159515387Y-112911851D01*
X159526959Y-112651128D01*
X159538531Y-112390406D01*
X159801424Y-112397059D01*
X159801424Y-112397059D01*
G37*
X159801424Y-112397059D02*
X160095150Y-112436410D01*
X160341513Y-112537298D01*
X160537718Y-112698008D01*
X160680974Y-112916821D01*
X160694099Y-112946031D01*
X160720513Y-113022211D01*
X160739738Y-113118501D01*
X160752915Y-113248191D01*
X160761188Y-113424574D01*
X160765698Y-113660941D01*
X160766817Y-113792464D01*
X160766163Y-114064408D01*
X160760611Y-114276507D01*
X160750460Y-114422928D01*
X160736008Y-114497838D01*
X160730314Y-114505892D01*
X160671010Y-114520050D01*
X160559205Y-114530349D01*
X160450489Y-114533990D01*
X160211510Y-114536344D01*
X160213255Y-113864617D01*
X160211405Y-113614034D01*
X160204912Y-113400335D01*
X160194425Y-113235783D01*
X160180593Y-113132645D01*
X160173260Y-113109148D01*
X160083132Y-113009393D01*
X159928841Y-112947102D01*
X159724993Y-112921415D01*
X159515387Y-112911851D01*
X159526959Y-112651128D01*
X159538531Y-112390406D01*
X159801424Y-112397059D01*
G36*
X144619859Y-111876098D02*
G01*
X144719300Y-111885325D01*
X144756221Y-111895105D01*
X144775045Y-111944713D01*
X144783831Y-112048565D01*
X144781973Y-112154106D01*
X144768650Y-112388956D01*
X144512336Y-112391092D01*
X144256021Y-112393228D01*
X144260329Y-111876226D01*
X144488737Y-111873591D01*
X144619859Y-111876098D01*
X144619859Y-111876098D01*
G37*
X144619859Y-111876098D02*
X144719300Y-111885325D01*
X144756221Y-111895105D01*
X144775045Y-111944713D01*
X144783831Y-112048565D01*
X144781973Y-112154106D01*
X144768650Y-112388956D01*
X144512336Y-112391092D01*
X144256021Y-112393228D01*
X144260329Y-111876226D01*
X144488737Y-111873591D01*
X144619859Y-111876098D01*
D11*
G36*
X177744098Y-112547033D02*
G01*
X178208350Y-112739332D01*
X178208352Y-112739333D01*
X178626168Y-113018509D01*
X178981491Y-113373832D01*
X179260667Y-113791648D01*
X179260668Y-113791650D01*
X179452967Y-114255902D01*
X179551000Y-114748747D01*
X179551000Y-115251253D01*
X179452967Y-115744098D01*
X179260668Y-116208350D01*
X179260667Y-116208352D01*
X178981491Y-116626168D01*
X178626168Y-116981491D01*
X178208352Y-117260667D01*
X178208351Y-117260668D01*
X178208350Y-117260668D01*
X177744098Y-117452967D01*
X177251253Y-117551000D01*
X176748747Y-117551000D01*
X176255902Y-117452967D01*
X175791650Y-117260668D01*
X175791649Y-117260668D01*
X175791648Y-117260667D01*
X175373832Y-116981491D01*
X175018509Y-116626168D01*
X174739333Y-116208352D01*
X174739332Y-116208350D01*
X174547033Y-115744098D01*
X174449000Y-115251253D01*
X174449000Y-114748747D01*
X174547033Y-114255902D01*
X174739332Y-113791650D01*
X174739333Y-113791648D01*
X175018509Y-113373832D01*
X175373832Y-113018509D01*
X175791648Y-112739333D01*
X175791650Y-112739332D01*
X176255902Y-112547033D01*
X176748747Y-112449000D01*
X177251253Y-112449000D01*
X177744098Y-112547033D01*
X177744098Y-112547033D01*
G37*
G36*
X92744098Y-112547033D02*
G01*
X93208350Y-112739332D01*
X93208352Y-112739333D01*
X93626168Y-113018509D01*
X93981491Y-113373832D01*
X94260667Y-113791648D01*
X94260668Y-113791650D01*
X94452967Y-114255902D01*
X94551000Y-114748747D01*
X94551000Y-115251253D01*
X94452967Y-115744098D01*
X94260668Y-116208350D01*
X94260667Y-116208352D01*
X93981491Y-116626168D01*
X93626168Y-116981491D01*
X93208352Y-117260667D01*
X93208351Y-117260668D01*
X93208350Y-117260668D01*
X92744098Y-117452967D01*
X92251253Y-117551000D01*
X91748747Y-117551000D01*
X91255902Y-117452967D01*
X90791650Y-117260668D01*
X90791649Y-117260668D01*
X90791648Y-117260667D01*
X90373832Y-116981491D01*
X90018509Y-116626168D01*
X89739333Y-116208352D01*
X89739332Y-116208350D01*
X89547033Y-115744098D01*
X89449000Y-115251253D01*
X89449000Y-114748747D01*
X89547033Y-114255902D01*
X89739332Y-113791650D01*
X89739333Y-113791648D01*
X90018509Y-113373832D01*
X90373832Y-113018509D01*
X90791648Y-112739333D01*
X90791650Y-112739332D01*
X91255902Y-112547033D01*
X91748747Y-112449000D01*
X92251253Y-112449000D01*
X92744098Y-112547033D01*
X92744098Y-112547033D01*
G37*
G36*
X167611000Y-108411000D02*
G01*
X165909000Y-108411000D01*
X165909000Y-106909000D01*
X167611000Y-106909000D01*
X167611000Y-108411000D01*
X167611000Y-108411000D01*
G37*
G36*
X159211000Y-108411000D02*
G01*
X157509000Y-108411000D01*
X157509000Y-106909000D01*
X159211000Y-106909000D01*
X159211000Y-108411000D01*
X159211000Y-108411000D01*
G37*
G36*
X139671000Y-108411000D02*
G01*
X137969000Y-108411000D01*
X137969000Y-106909000D01*
X139671000Y-106909000D01*
X139671000Y-108411000D01*
X139671000Y-108411000D01*
G37*
G36*
X131271000Y-108411000D02*
G01*
X129569000Y-108411000D01*
X129569000Y-106909000D01*
X131271000Y-106909000D01*
X131271000Y-108411000D01*
X131271000Y-108411000D01*
G37*
G36*
X110969000Y-108411000D02*
G01*
X109267000Y-108411000D01*
X109267000Y-106909000D01*
X110969000Y-106909000D01*
X110969000Y-108411000D01*
X110969000Y-108411000D01*
G37*
G36*
X102569000Y-108411000D02*
G01*
X100867000Y-108411000D01*
X100867000Y-106909000D01*
X102569000Y-106909000D01*
X102569000Y-108411000D01*
X102569000Y-108411000D01*
G37*
G36*
X167611000Y-106161000D02*
G01*
X165909000Y-106161000D01*
X165909000Y-104659000D01*
X167611000Y-104659000D01*
X167611000Y-106161000D01*
X167611000Y-106161000D01*
G37*
G36*
X139671000Y-106161000D02*
G01*
X137969000Y-106161000D01*
X137969000Y-104659000D01*
X139671000Y-104659000D01*
X139671000Y-106161000D01*
X139671000Y-106161000D01*
G37*
G36*
X110969000Y-106161000D02*
G01*
X109267000Y-106161000D01*
X109267000Y-104659000D01*
X110969000Y-104659000D01*
X110969000Y-106161000D01*
X110969000Y-106161000D01*
G37*
G36*
X139671000Y-103911000D02*
G01*
X137969000Y-103911000D01*
X137969000Y-102409000D01*
X139671000Y-102409000D01*
X139671000Y-103911000D01*
X139671000Y-103911000D01*
G37*
G36*
X102569000Y-103911000D02*
G01*
X100867000Y-103911000D01*
X100867000Y-102409000D01*
X102569000Y-102409000D01*
X102569000Y-103911000D01*
X102569000Y-103911000D01*
G37*
G36*
X110969000Y-103911000D02*
G01*
X109267000Y-103911000D01*
X109267000Y-102409000D01*
X110969000Y-102409000D01*
X110969000Y-103911000D01*
X110969000Y-103911000D01*
G37*
G36*
X167611000Y-103911000D02*
G01*
X165909000Y-103911000D01*
X165909000Y-102409000D01*
X167611000Y-102409000D01*
X167611000Y-103911000D01*
X167611000Y-103911000D01*
G37*
G36*
X131271000Y-103911000D02*
G01*
X129569000Y-103911000D01*
X129569000Y-102409000D01*
X131271000Y-102409000D01*
X131271000Y-103911000D01*
X131271000Y-103911000D01*
G37*
G36*
X159211000Y-103911000D02*
G01*
X157509000Y-103911000D01*
X157509000Y-102409000D01*
X159211000Y-102409000D01*
X159211000Y-103911000D01*
X159211000Y-103911000D01*
G37*
G36*
X167518254Y-91387818D02*
G01*
X167891511Y-91542426D01*
X167891513Y-91542427D01*
X168227436Y-91766884D01*
X168513116Y-92052564D01*
X168737574Y-92388489D01*
X168892182Y-92761746D01*
X168971000Y-93157993D01*
X168971000Y-93562007D01*
X168892182Y-93958254D01*
X168737574Y-94331511D01*
X168737573Y-94331513D01*
X168513116Y-94667436D01*
X168227436Y-94953116D01*
X167891513Y-95177573D01*
X167891512Y-95177574D01*
X167891511Y-95177574D01*
X167518254Y-95332182D01*
X167122007Y-95411000D01*
X166717993Y-95411000D01*
X166321746Y-95332182D01*
X165948489Y-95177574D01*
X165948488Y-95177574D01*
X165948487Y-95177573D01*
X165612564Y-94953116D01*
X165326884Y-94667436D01*
X165102427Y-94331513D01*
X165102426Y-94331511D01*
X164947818Y-93958254D01*
X164869000Y-93562007D01*
X164869000Y-93157993D01*
X164947818Y-92761746D01*
X165102426Y-92388489D01*
X165326884Y-92052564D01*
X165612564Y-91766884D01*
X165948487Y-91542427D01*
X165948489Y-91542426D01*
X166321746Y-91387818D01*
X166717993Y-91309000D01*
X167122007Y-91309000D01*
X167518254Y-91387818D01*
X167518254Y-91387818D01*
G37*
G36*
X139578254Y-91387818D02*
G01*
X139951511Y-91542426D01*
X139951513Y-91542427D01*
X140287436Y-91766884D01*
X140573116Y-92052564D01*
X140797574Y-92388489D01*
X140952182Y-92761746D01*
X141031000Y-93157993D01*
X141031000Y-93562007D01*
X140952182Y-93958254D01*
X140797574Y-94331511D01*
X140797573Y-94331513D01*
X140573116Y-94667436D01*
X140287436Y-94953116D01*
X139951513Y-95177573D01*
X139951512Y-95177574D01*
X139951511Y-95177574D01*
X139578254Y-95332182D01*
X139182007Y-95411000D01*
X138777993Y-95411000D01*
X138381746Y-95332182D01*
X138008489Y-95177574D01*
X138008488Y-95177574D01*
X138008487Y-95177573D01*
X137672564Y-94953116D01*
X137386884Y-94667436D01*
X137162427Y-94331513D01*
X137162426Y-94331511D01*
X137007818Y-93958254D01*
X136929000Y-93562007D01*
X136929000Y-93157993D01*
X137007818Y-92761746D01*
X137162426Y-92388489D01*
X137386884Y-92052564D01*
X137672564Y-91766884D01*
X138008487Y-91542427D01*
X138008489Y-91542426D01*
X138381746Y-91387818D01*
X138777993Y-91309000D01*
X139182007Y-91309000D01*
X139578254Y-91387818D01*
X139578254Y-91387818D01*
G37*
G36*
X110622254Y-91387818D02*
G01*
X110995511Y-91542426D01*
X110995513Y-91542427D01*
X111331436Y-91766884D01*
X111617116Y-92052564D01*
X111841574Y-92388489D01*
X111996182Y-92761746D01*
X112075000Y-93157993D01*
X112075000Y-93562007D01*
X111996182Y-93958254D01*
X111841574Y-94331511D01*
X111841573Y-94331513D01*
X111617116Y-94667436D01*
X111331436Y-94953116D01*
X110995513Y-95177573D01*
X110995512Y-95177574D01*
X110995511Y-95177574D01*
X110622254Y-95332182D01*
X110226007Y-95411000D01*
X109821993Y-95411000D01*
X109425746Y-95332182D01*
X109052489Y-95177574D01*
X109052488Y-95177574D01*
X109052487Y-95177573D01*
X108716564Y-94953116D01*
X108430884Y-94667436D01*
X108206427Y-94331513D01*
X108206426Y-94331511D01*
X108051818Y-93958254D01*
X107973000Y-93562007D01*
X107973000Y-93157993D01*
X108051818Y-92761746D01*
X108206426Y-92388489D01*
X108430884Y-92052564D01*
X108716564Y-91766884D01*
X109052487Y-91542427D01*
X109052489Y-91542426D01*
X109425746Y-91387818D01*
X109821993Y-91309000D01*
X110226007Y-91309000D01*
X110622254Y-91387818D01*
X110622254Y-91387818D01*
G37*
G36*
X101822254Y-91387818D02*
G01*
X102195511Y-91542426D01*
X102195513Y-91542427D01*
X102531436Y-91766884D01*
X102817116Y-92052564D01*
X103041574Y-92388489D01*
X103196182Y-92761746D01*
X103275000Y-93157993D01*
X103275000Y-93562007D01*
X103196182Y-93958254D01*
X103041574Y-94331511D01*
X103041573Y-94331513D01*
X102817116Y-94667436D01*
X102531436Y-94953116D01*
X102195513Y-95177573D01*
X102195512Y-95177574D01*
X102195511Y-95177574D01*
X101822254Y-95332182D01*
X101426007Y-95411000D01*
X101021993Y-95411000D01*
X100625746Y-95332182D01*
X100252489Y-95177574D01*
X100252488Y-95177574D01*
X100252487Y-95177573D01*
X99916564Y-94953116D01*
X99630884Y-94667436D01*
X99406427Y-94331513D01*
X99406426Y-94331511D01*
X99251818Y-93958254D01*
X99173000Y-93562007D01*
X99173000Y-93157993D01*
X99251818Y-92761746D01*
X99406426Y-92388489D01*
X99630884Y-92052564D01*
X99916564Y-91766884D01*
X100252487Y-91542427D01*
X100252489Y-91542426D01*
X100625746Y-91387818D01*
X101021993Y-91309000D01*
X101426007Y-91309000D01*
X101822254Y-91387818D01*
X101822254Y-91387818D01*
G37*
G36*
X130778254Y-91387818D02*
G01*
X131151511Y-91542426D01*
X131151513Y-91542427D01*
X131487436Y-91766884D01*
X131773116Y-92052564D01*
X131997574Y-92388489D01*
X132152182Y-92761746D01*
X132231000Y-93157993D01*
X132231000Y-93562007D01*
X132152182Y-93958254D01*
X131997574Y-94331511D01*
X131997573Y-94331513D01*
X131773116Y-94667436D01*
X131487436Y-94953116D01*
X131151513Y-95177573D01*
X131151512Y-95177574D01*
X131151511Y-95177574D01*
X130778254Y-95332182D01*
X130382007Y-95411000D01*
X129977993Y-95411000D01*
X129581746Y-95332182D01*
X129208489Y-95177574D01*
X129208488Y-95177574D01*
X129208487Y-95177573D01*
X128872564Y-94953116D01*
X128586884Y-94667436D01*
X128362427Y-94331513D01*
X128362426Y-94331511D01*
X128207818Y-93958254D01*
X128129000Y-93562007D01*
X128129000Y-93157993D01*
X128207818Y-92761746D01*
X128362426Y-92388489D01*
X128586884Y-92052564D01*
X128872564Y-91766884D01*
X129208487Y-91542427D01*
X129208489Y-91542426D01*
X129581746Y-91387818D01*
X129977993Y-91309000D01*
X130382007Y-91309000D01*
X130778254Y-91387818D01*
X130778254Y-91387818D01*
G37*
G36*
X158718254Y-91387818D02*
G01*
X159091511Y-91542426D01*
X159091513Y-91542427D01*
X159427436Y-91766884D01*
X159713116Y-92052564D01*
X159937574Y-92388489D01*
X160092182Y-92761746D01*
X160171000Y-93157993D01*
X160171000Y-93562007D01*
X160092182Y-93958254D01*
X159937574Y-94331511D01*
X159937573Y-94331513D01*
X159713116Y-94667436D01*
X159427436Y-94953116D01*
X159091513Y-95177573D01*
X159091512Y-95177574D01*
X159091511Y-95177574D01*
X158718254Y-95332182D01*
X158322007Y-95411000D01*
X157917993Y-95411000D01*
X157521746Y-95332182D01*
X157148489Y-95177574D01*
X157148488Y-95177574D01*
X157148487Y-95177573D01*
X156812564Y-94953116D01*
X156526884Y-94667436D01*
X156302427Y-94331513D01*
X156302426Y-94331511D01*
X156147818Y-93958254D01*
X156069000Y-93562007D01*
X156069000Y-93157993D01*
X156147818Y-92761746D01*
X156302426Y-92388489D01*
X156526884Y-92052564D01*
X156812564Y-91766884D01*
X157148487Y-91542427D01*
X157148489Y-91542426D01*
X157521746Y-91387818D01*
X157917993Y-91309000D01*
X158322007Y-91309000D01*
X158718254Y-91387818D01*
X158718254Y-91387818D01*
G37*
G36*
X108401395Y-85445546D02*
G01*
X108574466Y-85517234D01*
X108574467Y-85517235D01*
X108730227Y-85621310D01*
X108862690Y-85753773D01*
X108862691Y-85753775D01*
X108966766Y-85909534D01*
X109038454Y-86082605D01*
X109075000Y-86266333D01*
X109075000Y-86453667D01*
X109038454Y-86637395D01*
X108966766Y-86810466D01*
X108966765Y-86810467D01*
X108862690Y-86966227D01*
X108730227Y-87098690D01*
X108651818Y-87151081D01*
X108574466Y-87202766D01*
X108401395Y-87274454D01*
X108217667Y-87311000D01*
X108030333Y-87311000D01*
X107846605Y-87274454D01*
X107673534Y-87202766D01*
X107596182Y-87151081D01*
X107517773Y-87098690D01*
X107385310Y-86966227D01*
X107281235Y-86810467D01*
X107281234Y-86810466D01*
X107209546Y-86637395D01*
X107173000Y-86453667D01*
X107173000Y-86266333D01*
X107209546Y-86082605D01*
X107281234Y-85909534D01*
X107385309Y-85753775D01*
X107385310Y-85753773D01*
X107517773Y-85621310D01*
X107673533Y-85517235D01*
X107673534Y-85517234D01*
X107846605Y-85445546D01*
X108030333Y-85409000D01*
X108217667Y-85409000D01*
X108401395Y-85445546D01*
X108401395Y-85445546D01*
G37*
G36*
X165297395Y-85445546D02*
G01*
X165470466Y-85517234D01*
X165470467Y-85517235D01*
X165626227Y-85621310D01*
X165758690Y-85753773D01*
X165758691Y-85753775D01*
X165862766Y-85909534D01*
X165934454Y-86082605D01*
X165971000Y-86266333D01*
X165971000Y-86453667D01*
X165934454Y-86637395D01*
X165862766Y-86810466D01*
X165862765Y-86810467D01*
X165758690Y-86966227D01*
X165626227Y-87098690D01*
X165547818Y-87151081D01*
X165470466Y-87202766D01*
X165297395Y-87274454D01*
X165113667Y-87311000D01*
X164926333Y-87311000D01*
X164742605Y-87274454D01*
X164569534Y-87202766D01*
X164492182Y-87151081D01*
X164413773Y-87098690D01*
X164281310Y-86966227D01*
X164177235Y-86810467D01*
X164177234Y-86810466D01*
X164105546Y-86637395D01*
X164069000Y-86453667D01*
X164069000Y-86266333D01*
X164105546Y-86082605D01*
X164177234Y-85909534D01*
X164281309Y-85753775D01*
X164281310Y-85753773D01*
X164413773Y-85621310D01*
X164569533Y-85517235D01*
X164569534Y-85517234D01*
X164742605Y-85445546D01*
X164926333Y-85409000D01*
X165113667Y-85409000D01*
X165297395Y-85445546D01*
X165297395Y-85445546D01*
G37*
G36*
X105901395Y-85445546D02*
G01*
X106074466Y-85517234D01*
X106074467Y-85517235D01*
X106230227Y-85621310D01*
X106362690Y-85753773D01*
X106362691Y-85753775D01*
X106466766Y-85909534D01*
X106538454Y-86082605D01*
X106575000Y-86266333D01*
X106575000Y-86453667D01*
X106538454Y-86637395D01*
X106466766Y-86810466D01*
X106466765Y-86810467D01*
X106362690Y-86966227D01*
X106230227Y-87098690D01*
X106151818Y-87151081D01*
X106074466Y-87202766D01*
X105901395Y-87274454D01*
X105717667Y-87311000D01*
X105530333Y-87311000D01*
X105346605Y-87274454D01*
X105173534Y-87202766D01*
X105096182Y-87151081D01*
X105017773Y-87098690D01*
X104885310Y-86966227D01*
X104781235Y-86810467D01*
X104781234Y-86810466D01*
X104709546Y-86637395D01*
X104673000Y-86453667D01*
X104673000Y-86266333D01*
X104709546Y-86082605D01*
X104781234Y-85909534D01*
X104885309Y-85753775D01*
X104885310Y-85753773D01*
X105017773Y-85621310D01*
X105173533Y-85517235D01*
X105173534Y-85517234D01*
X105346605Y-85445546D01*
X105530333Y-85409000D01*
X105717667Y-85409000D01*
X105901395Y-85445546D01*
X105901395Y-85445546D01*
G37*
G36*
X103401395Y-85445546D02*
G01*
X103574466Y-85517234D01*
X103574467Y-85517235D01*
X103730227Y-85621310D01*
X103862690Y-85753773D01*
X103862691Y-85753775D01*
X103966766Y-85909534D01*
X104038454Y-86082605D01*
X104075000Y-86266333D01*
X104075000Y-86453667D01*
X104038454Y-86637395D01*
X103966766Y-86810466D01*
X103966765Y-86810467D01*
X103862690Y-86966227D01*
X103730227Y-87098690D01*
X103651818Y-87151081D01*
X103574466Y-87202766D01*
X103401395Y-87274454D01*
X103217667Y-87311000D01*
X103030333Y-87311000D01*
X102846605Y-87274454D01*
X102673534Y-87202766D01*
X102596182Y-87151081D01*
X102517773Y-87098690D01*
X102385310Y-86966227D01*
X102281235Y-86810467D01*
X102281234Y-86810466D01*
X102209546Y-86637395D01*
X102173000Y-86453667D01*
X102173000Y-86266333D01*
X102209546Y-86082605D01*
X102281234Y-85909534D01*
X102385309Y-85753775D01*
X102385310Y-85753773D01*
X102517773Y-85621310D01*
X102673533Y-85517235D01*
X102673534Y-85517234D01*
X102846605Y-85445546D01*
X103030333Y-85409000D01*
X103217667Y-85409000D01*
X103401395Y-85445546D01*
X103401395Y-85445546D01*
G37*
G36*
X162797395Y-85445546D02*
G01*
X162970466Y-85517234D01*
X162970467Y-85517235D01*
X163126227Y-85621310D01*
X163258690Y-85753773D01*
X163258691Y-85753775D01*
X163362766Y-85909534D01*
X163434454Y-86082605D01*
X163471000Y-86266333D01*
X163471000Y-86453667D01*
X163434454Y-86637395D01*
X163362766Y-86810466D01*
X163362765Y-86810467D01*
X163258690Y-86966227D01*
X163126227Y-87098690D01*
X163047818Y-87151081D01*
X162970466Y-87202766D01*
X162797395Y-87274454D01*
X162613667Y-87311000D01*
X162426333Y-87311000D01*
X162242605Y-87274454D01*
X162069534Y-87202766D01*
X161992182Y-87151081D01*
X161913773Y-87098690D01*
X161781310Y-86966227D01*
X161677235Y-86810467D01*
X161677234Y-86810466D01*
X161605546Y-86637395D01*
X161569000Y-86453667D01*
X161569000Y-86266333D01*
X161605546Y-86082605D01*
X161677234Y-85909534D01*
X161781309Y-85753775D01*
X161781310Y-85753773D01*
X161913773Y-85621310D01*
X162069533Y-85517235D01*
X162069534Y-85517234D01*
X162242605Y-85445546D01*
X162426333Y-85409000D01*
X162613667Y-85409000D01*
X162797395Y-85445546D01*
X162797395Y-85445546D01*
G37*
G36*
X160297395Y-85445546D02*
G01*
X160470466Y-85517234D01*
X160470467Y-85517235D01*
X160626227Y-85621310D01*
X160758690Y-85753773D01*
X160758691Y-85753775D01*
X160862766Y-85909534D01*
X160934454Y-86082605D01*
X160971000Y-86266333D01*
X160971000Y-86453667D01*
X160934454Y-86637395D01*
X160862766Y-86810466D01*
X160862765Y-86810467D01*
X160758690Y-86966227D01*
X160626227Y-87098690D01*
X160547818Y-87151081D01*
X160470466Y-87202766D01*
X160297395Y-87274454D01*
X160113667Y-87311000D01*
X159926333Y-87311000D01*
X159742605Y-87274454D01*
X159569534Y-87202766D01*
X159492182Y-87151081D01*
X159413773Y-87098690D01*
X159281310Y-86966227D01*
X159177235Y-86810467D01*
X159177234Y-86810466D01*
X159105546Y-86637395D01*
X159069000Y-86453667D01*
X159069000Y-86266333D01*
X159105546Y-86082605D01*
X159177234Y-85909534D01*
X159281309Y-85753775D01*
X159281310Y-85753773D01*
X159413773Y-85621310D01*
X159569533Y-85517235D01*
X159569534Y-85517234D01*
X159742605Y-85445546D01*
X159926333Y-85409000D01*
X160113667Y-85409000D01*
X160297395Y-85445546D01*
X160297395Y-85445546D01*
G37*
G36*
X137357395Y-85445546D02*
G01*
X137530466Y-85517234D01*
X137530467Y-85517235D01*
X137686227Y-85621310D01*
X137818690Y-85753773D01*
X137818691Y-85753775D01*
X137922766Y-85909534D01*
X137994454Y-86082605D01*
X138031000Y-86266333D01*
X138031000Y-86453667D01*
X137994454Y-86637395D01*
X137922766Y-86810466D01*
X137922765Y-86810467D01*
X137818690Y-86966227D01*
X137686227Y-87098690D01*
X137607818Y-87151081D01*
X137530466Y-87202766D01*
X137357395Y-87274454D01*
X137173667Y-87311000D01*
X136986333Y-87311000D01*
X136802605Y-87274454D01*
X136629534Y-87202766D01*
X136552182Y-87151081D01*
X136473773Y-87098690D01*
X136341310Y-86966227D01*
X136237235Y-86810467D01*
X136237234Y-86810466D01*
X136165546Y-86637395D01*
X136129000Y-86453667D01*
X136129000Y-86266333D01*
X136165546Y-86082605D01*
X136237234Y-85909534D01*
X136341309Y-85753775D01*
X136341310Y-85753773D01*
X136473773Y-85621310D01*
X136629533Y-85517235D01*
X136629534Y-85517234D01*
X136802605Y-85445546D01*
X136986333Y-85409000D01*
X137173667Y-85409000D01*
X137357395Y-85445546D01*
X137357395Y-85445546D01*
G37*
G36*
X134857395Y-85445546D02*
G01*
X135030466Y-85517234D01*
X135030467Y-85517235D01*
X135186227Y-85621310D01*
X135318690Y-85753773D01*
X135318691Y-85753775D01*
X135422766Y-85909534D01*
X135494454Y-86082605D01*
X135531000Y-86266333D01*
X135531000Y-86453667D01*
X135494454Y-86637395D01*
X135422766Y-86810466D01*
X135422765Y-86810467D01*
X135318690Y-86966227D01*
X135186227Y-87098690D01*
X135107818Y-87151081D01*
X135030466Y-87202766D01*
X134857395Y-87274454D01*
X134673667Y-87311000D01*
X134486333Y-87311000D01*
X134302605Y-87274454D01*
X134129534Y-87202766D01*
X134052182Y-87151081D01*
X133973773Y-87098690D01*
X133841310Y-86966227D01*
X133737235Y-86810467D01*
X133737234Y-86810466D01*
X133665546Y-86637395D01*
X133629000Y-86453667D01*
X133629000Y-86266333D01*
X133665546Y-86082605D01*
X133737234Y-85909534D01*
X133841309Y-85753775D01*
X133841310Y-85753773D01*
X133973773Y-85621310D01*
X134129533Y-85517235D01*
X134129534Y-85517234D01*
X134302605Y-85445546D01*
X134486333Y-85409000D01*
X134673667Y-85409000D01*
X134857395Y-85445546D01*
X134857395Y-85445546D01*
G37*
G36*
X132357395Y-85445546D02*
G01*
X132530466Y-85517234D01*
X132530467Y-85517235D01*
X132686227Y-85621310D01*
X132818690Y-85753773D01*
X132818691Y-85753775D01*
X132922766Y-85909534D01*
X132994454Y-86082605D01*
X133031000Y-86266333D01*
X133031000Y-86453667D01*
X132994454Y-86637395D01*
X132922766Y-86810466D01*
X132922765Y-86810467D01*
X132818690Y-86966227D01*
X132686227Y-87098690D01*
X132607818Y-87151081D01*
X132530466Y-87202766D01*
X132357395Y-87274454D01*
X132173667Y-87311000D01*
X131986333Y-87311000D01*
X131802605Y-87274454D01*
X131629534Y-87202766D01*
X131552182Y-87151081D01*
X131473773Y-87098690D01*
X131341310Y-86966227D01*
X131237235Y-86810467D01*
X131237234Y-86810466D01*
X131165546Y-86637395D01*
X131129000Y-86453667D01*
X131129000Y-86266333D01*
X131165546Y-86082605D01*
X131237234Y-85909534D01*
X131341309Y-85753775D01*
X131341310Y-85753773D01*
X131473773Y-85621310D01*
X131629533Y-85517235D01*
X131629534Y-85517234D01*
X131802605Y-85445546D01*
X131986333Y-85409000D01*
X132173667Y-85409000D01*
X132357395Y-85445546D01*
X132357395Y-85445546D01*
G37*
G36*
X112315499Y-81901445D02*
G01*
X112352995Y-81912820D01*
X112387554Y-81931292D01*
X112417847Y-81956153D01*
X112442708Y-81986446D01*
X112461180Y-82021005D01*
X112472555Y-82058501D01*
X112477000Y-82103638D01*
X112477000Y-82742362D01*
X112472555Y-82787499D01*
X112461180Y-82824995D01*
X112442708Y-82859554D01*
X112417847Y-82889847D01*
X112387554Y-82914708D01*
X112352995Y-82933180D01*
X112315499Y-82944555D01*
X112270362Y-82949000D01*
X111531638Y-82949000D01*
X111486501Y-82944555D01*
X111449005Y-82933180D01*
X111414446Y-82914708D01*
X111384153Y-82889847D01*
X111359292Y-82859554D01*
X111340820Y-82824995D01*
X111329445Y-82787499D01*
X111325000Y-82742362D01*
X111325000Y-82103638D01*
X111329445Y-82058501D01*
X111340820Y-82021005D01*
X111359292Y-81986446D01*
X111384153Y-81956153D01*
X111414446Y-81931292D01*
X111449005Y-81912820D01*
X111486501Y-81901445D01*
X111531638Y-81897000D01*
X112270362Y-81897000D01*
X112315499Y-81901445D01*
X112315499Y-81901445D01*
G37*
G36*
X122475499Y-81901445D02*
G01*
X122512995Y-81912820D01*
X122547554Y-81931292D01*
X122577847Y-81956153D01*
X122602708Y-81986446D01*
X122621180Y-82021005D01*
X122632555Y-82058501D01*
X122637000Y-82103638D01*
X122637000Y-82742362D01*
X122632555Y-82787499D01*
X122621180Y-82824995D01*
X122602708Y-82859554D01*
X122577847Y-82889847D01*
X122547554Y-82914708D01*
X122512995Y-82933180D01*
X122475499Y-82944555D01*
X122430362Y-82949000D01*
X121691638Y-82949000D01*
X121646501Y-82944555D01*
X121609005Y-82933180D01*
X121574446Y-82914708D01*
X121544153Y-82889847D01*
X121519292Y-82859554D01*
X121500820Y-82824995D01*
X121489445Y-82787499D01*
X121485000Y-82742362D01*
X121485000Y-82103638D01*
X121489445Y-82058501D01*
X121500820Y-82021005D01*
X121519292Y-81986446D01*
X121544153Y-81956153D01*
X121574446Y-81931292D01*
X121609005Y-81912820D01*
X121646501Y-81901445D01*
X121691638Y-81897000D01*
X122430362Y-81897000D01*
X122475499Y-81901445D01*
X122475499Y-81901445D01*
G37*
G36*
X124225499Y-81901445D02*
G01*
X124262995Y-81912820D01*
X124297554Y-81931292D01*
X124327847Y-81956153D01*
X124352708Y-81986446D01*
X124371180Y-82021005D01*
X124382555Y-82058501D01*
X124387000Y-82103638D01*
X124387000Y-82742362D01*
X124382555Y-82787499D01*
X124371180Y-82824995D01*
X124352708Y-82859554D01*
X124327847Y-82889847D01*
X124297554Y-82914708D01*
X124262995Y-82933180D01*
X124225499Y-82944555D01*
X124180362Y-82949000D01*
X123441638Y-82949000D01*
X123396501Y-82944555D01*
X123359005Y-82933180D01*
X123324446Y-82914708D01*
X123294153Y-82889847D01*
X123269292Y-82859554D01*
X123250820Y-82824995D01*
X123239445Y-82787499D01*
X123235000Y-82742362D01*
X123235000Y-82103638D01*
X123239445Y-82058501D01*
X123250820Y-82021005D01*
X123269292Y-81986446D01*
X123294153Y-81956153D01*
X123324446Y-81931292D01*
X123359005Y-81912820D01*
X123396501Y-81901445D01*
X123441638Y-81897000D01*
X124180362Y-81897000D01*
X124225499Y-81901445D01*
X124225499Y-81901445D01*
G37*
G36*
X114065499Y-81901445D02*
G01*
X114102995Y-81912820D01*
X114137554Y-81931292D01*
X114167847Y-81956153D01*
X114192708Y-81986446D01*
X114211180Y-82021005D01*
X114222555Y-82058501D01*
X114227000Y-82103638D01*
X114227000Y-82742362D01*
X114222555Y-82787499D01*
X114211180Y-82824995D01*
X114192708Y-82859554D01*
X114167847Y-82889847D01*
X114137554Y-82914708D01*
X114102995Y-82933180D01*
X114065499Y-82944555D01*
X114020362Y-82949000D01*
X113281638Y-82949000D01*
X113236501Y-82944555D01*
X113199005Y-82933180D01*
X113164446Y-82914708D01*
X113134153Y-82889847D01*
X113109292Y-82859554D01*
X113090820Y-82824995D01*
X113079445Y-82787499D01*
X113075000Y-82742362D01*
X113075000Y-82103638D01*
X113079445Y-82058501D01*
X113090820Y-82021005D01*
X113109292Y-81986446D01*
X113134153Y-81956153D01*
X113164446Y-81931292D01*
X113199005Y-81912820D01*
X113236501Y-81901445D01*
X113281638Y-81897000D01*
X114020362Y-81897000D01*
X114065499Y-81901445D01*
X114065499Y-81901445D01*
G37*
G36*
X138984928Y-82074764D02*
G01*
X139006009Y-82081160D01*
X139025445Y-82091548D01*
X139042476Y-82105524D01*
X139056452Y-82122555D01*
X139066840Y-82141991D01*
X139073236Y-82163072D01*
X139076000Y-82191140D01*
X139076000Y-82654860D01*
X139073236Y-82682928D01*
X139066840Y-82704009D01*
X139056452Y-82723445D01*
X139042476Y-82740476D01*
X139025445Y-82754452D01*
X139006009Y-82764840D01*
X138984928Y-82771236D01*
X138956860Y-82774000D01*
X137043140Y-82774000D01*
X137015072Y-82771236D01*
X136993991Y-82764840D01*
X136974555Y-82754452D01*
X136957524Y-82740476D01*
X136943548Y-82723445D01*
X136933160Y-82704009D01*
X136926764Y-82682928D01*
X136924000Y-82654860D01*
X136924000Y-82191140D01*
X136926764Y-82163072D01*
X136933160Y-82141991D01*
X136943548Y-82122555D01*
X136957524Y-82105524D01*
X136974555Y-82091548D01*
X136993991Y-82081160D01*
X137015072Y-82074764D01*
X137043140Y-82072000D01*
X138956860Y-82072000D01*
X138984928Y-82074764D01*
X138984928Y-82074764D01*
G37*
G36*
X129684928Y-82074764D02*
G01*
X129706009Y-82081160D01*
X129725445Y-82091548D01*
X129742476Y-82105524D01*
X129756452Y-82122555D01*
X129766840Y-82141991D01*
X129773236Y-82163072D01*
X129776000Y-82191140D01*
X129776000Y-82654860D01*
X129773236Y-82682928D01*
X129766840Y-82704009D01*
X129756452Y-82723445D01*
X129742476Y-82740476D01*
X129725445Y-82754452D01*
X129706009Y-82764840D01*
X129684928Y-82771236D01*
X129656860Y-82774000D01*
X127743140Y-82774000D01*
X127715072Y-82771236D01*
X127693991Y-82764840D01*
X127674555Y-82754452D01*
X127657524Y-82740476D01*
X127643548Y-82723445D01*
X127633160Y-82704009D01*
X127626764Y-82682928D01*
X127624000Y-82654860D01*
X127624000Y-82191140D01*
X127626764Y-82163072D01*
X127633160Y-82141991D01*
X127643548Y-82122555D01*
X127657524Y-82105524D01*
X127674555Y-82091548D01*
X127693991Y-82081160D01*
X127715072Y-82074764D01*
X127743140Y-82072000D01*
X129656860Y-82072000D01*
X129684928Y-82074764D01*
X129684928Y-82074764D01*
G37*
G36*
X102599928Y-82074764D02*
G01*
X102621009Y-82081160D01*
X102640445Y-82091548D01*
X102657476Y-82105524D01*
X102671452Y-82122555D01*
X102681840Y-82141991D01*
X102688236Y-82163072D01*
X102691000Y-82191140D01*
X102691000Y-82654860D01*
X102688236Y-82682928D01*
X102681840Y-82704009D01*
X102671452Y-82723445D01*
X102657476Y-82740476D01*
X102640445Y-82754452D01*
X102621009Y-82764840D01*
X102599928Y-82771236D01*
X102571860Y-82774000D01*
X100758140Y-82774000D01*
X100730072Y-82771236D01*
X100708991Y-82764840D01*
X100689555Y-82754452D01*
X100672524Y-82740476D01*
X100658548Y-82723445D01*
X100648160Y-82704009D01*
X100641764Y-82682928D01*
X100639000Y-82654860D01*
X100639000Y-82191140D01*
X100641764Y-82163072D01*
X100648160Y-82141991D01*
X100658548Y-82122555D01*
X100672524Y-82105524D01*
X100689555Y-82091548D01*
X100708991Y-82081160D01*
X100730072Y-82074764D01*
X100758140Y-82072000D01*
X102571860Y-82072000D01*
X102599928Y-82074764D01*
X102599928Y-82074764D01*
G37*
G36*
X107549928Y-82074764D02*
G01*
X107571009Y-82081160D01*
X107590445Y-82091548D01*
X107607476Y-82105524D01*
X107621452Y-82122555D01*
X107631840Y-82141991D01*
X107638236Y-82163072D01*
X107641000Y-82191140D01*
X107641000Y-82654860D01*
X107638236Y-82682928D01*
X107631840Y-82704009D01*
X107621452Y-82723445D01*
X107607476Y-82740476D01*
X107590445Y-82754452D01*
X107571009Y-82764840D01*
X107549928Y-82771236D01*
X107521860Y-82774000D01*
X105708140Y-82774000D01*
X105680072Y-82771236D01*
X105658991Y-82764840D01*
X105639555Y-82754452D01*
X105622524Y-82740476D01*
X105608548Y-82723445D01*
X105598160Y-82704009D01*
X105591764Y-82682928D01*
X105589000Y-82654860D01*
X105589000Y-82191140D01*
X105591764Y-82163072D01*
X105598160Y-82141991D01*
X105608548Y-82122555D01*
X105622524Y-82105524D01*
X105639555Y-82091548D01*
X105658991Y-82081160D01*
X105680072Y-82074764D01*
X105708140Y-82072000D01*
X107521860Y-82072000D01*
X107549928Y-82074764D01*
X107549928Y-82074764D01*
G37*
G36*
X129684928Y-80804764D02*
G01*
X129706009Y-80811160D01*
X129725445Y-80821548D01*
X129742476Y-80835524D01*
X129756452Y-80852555D01*
X129766840Y-80871991D01*
X129773236Y-80893072D01*
X129776000Y-80921140D01*
X129776000Y-81384860D01*
X129773236Y-81412928D01*
X129766840Y-81434009D01*
X129756452Y-81453445D01*
X129742476Y-81470476D01*
X129725445Y-81484452D01*
X129706009Y-81494840D01*
X129684928Y-81501236D01*
X129656860Y-81504000D01*
X127743140Y-81504000D01*
X127715072Y-81501236D01*
X127693991Y-81494840D01*
X127674555Y-81484452D01*
X127657524Y-81470476D01*
X127643548Y-81453445D01*
X127633160Y-81434009D01*
X127626764Y-81412928D01*
X127624000Y-81384860D01*
X127624000Y-80921140D01*
X127626764Y-80893072D01*
X127633160Y-80871991D01*
X127643548Y-80852555D01*
X127657524Y-80835524D01*
X127674555Y-80821548D01*
X127693991Y-80811160D01*
X127715072Y-80804764D01*
X127743140Y-80802000D01*
X129656860Y-80802000D01*
X129684928Y-80804764D01*
X129684928Y-80804764D01*
G37*
G36*
X107549928Y-80804764D02*
G01*
X107571009Y-80811160D01*
X107590445Y-80821548D01*
X107607476Y-80835524D01*
X107621452Y-80852555D01*
X107631840Y-80871991D01*
X107638236Y-80893072D01*
X107641000Y-80921140D01*
X107641000Y-81384860D01*
X107638236Y-81412928D01*
X107631840Y-81434009D01*
X107621452Y-81453445D01*
X107607476Y-81470476D01*
X107590445Y-81484452D01*
X107571009Y-81494840D01*
X107549928Y-81501236D01*
X107521860Y-81504000D01*
X105708140Y-81504000D01*
X105680072Y-81501236D01*
X105658991Y-81494840D01*
X105639555Y-81484452D01*
X105622524Y-81470476D01*
X105608548Y-81453445D01*
X105598160Y-81434009D01*
X105591764Y-81412928D01*
X105589000Y-81384860D01*
X105589000Y-80921140D01*
X105591764Y-80893072D01*
X105598160Y-80871991D01*
X105608548Y-80852555D01*
X105622524Y-80835524D01*
X105639555Y-80821548D01*
X105658991Y-80811160D01*
X105680072Y-80804764D01*
X105708140Y-80802000D01*
X107521860Y-80802000D01*
X107549928Y-80804764D01*
X107549928Y-80804764D01*
G37*
G36*
X102599928Y-80804764D02*
G01*
X102621009Y-80811160D01*
X102640445Y-80821548D01*
X102657476Y-80835524D01*
X102671452Y-80852555D01*
X102681840Y-80871991D01*
X102688236Y-80893072D01*
X102691000Y-80921140D01*
X102691000Y-81384860D01*
X102688236Y-81412928D01*
X102681840Y-81434009D01*
X102671452Y-81453445D01*
X102657476Y-81470476D01*
X102640445Y-81484452D01*
X102621009Y-81494840D01*
X102599928Y-81501236D01*
X102571860Y-81504000D01*
X100758140Y-81504000D01*
X100730072Y-81501236D01*
X100708991Y-81494840D01*
X100689555Y-81484452D01*
X100672524Y-81470476D01*
X100658548Y-81453445D01*
X100648160Y-81434009D01*
X100641764Y-81412928D01*
X100639000Y-81384860D01*
X100639000Y-80921140D01*
X100641764Y-80893072D01*
X100648160Y-80871991D01*
X100658548Y-80852555D01*
X100672524Y-80835524D01*
X100689555Y-80821548D01*
X100708991Y-80811160D01*
X100730072Y-80804764D01*
X100758140Y-80802000D01*
X102571860Y-80802000D01*
X102599928Y-80804764D01*
X102599928Y-80804764D01*
G37*
G36*
X138984928Y-80804764D02*
G01*
X139006009Y-80811160D01*
X139025445Y-80821548D01*
X139042476Y-80835524D01*
X139056452Y-80852555D01*
X139066840Y-80871991D01*
X139073236Y-80893072D01*
X139076000Y-80921140D01*
X139076000Y-81384860D01*
X139073236Y-81412928D01*
X139066840Y-81434009D01*
X139056452Y-81453445D01*
X139042476Y-81470476D01*
X139025445Y-81484452D01*
X139006009Y-81494840D01*
X138984928Y-81501236D01*
X138956860Y-81504000D01*
X137043140Y-81504000D01*
X137015072Y-81501236D01*
X136993991Y-81494840D01*
X136974555Y-81484452D01*
X136957524Y-81470476D01*
X136943548Y-81453445D01*
X136933160Y-81434009D01*
X136926764Y-81412928D01*
X136924000Y-81384860D01*
X136924000Y-80921140D01*
X136926764Y-80893072D01*
X136933160Y-80871991D01*
X136943548Y-80852555D01*
X136957524Y-80835524D01*
X136974555Y-80821548D01*
X136993991Y-80811160D01*
X137015072Y-80804764D01*
X137043140Y-80802000D01*
X138956860Y-80802000D01*
X138984928Y-80804764D01*
X138984928Y-80804764D01*
G37*
G36*
X112315499Y-79996445D02*
G01*
X112352995Y-80007820D01*
X112387554Y-80026292D01*
X112417847Y-80051153D01*
X112442708Y-80081446D01*
X112461180Y-80116005D01*
X112472555Y-80153501D01*
X112477000Y-80198638D01*
X112477000Y-80837362D01*
X112472555Y-80882499D01*
X112461180Y-80919995D01*
X112442708Y-80954554D01*
X112417847Y-80984847D01*
X112387554Y-81009708D01*
X112352995Y-81028180D01*
X112315499Y-81039555D01*
X112270362Y-81044000D01*
X111531638Y-81044000D01*
X111486501Y-81039555D01*
X111449005Y-81028180D01*
X111414446Y-81009708D01*
X111384153Y-80984847D01*
X111359292Y-80954554D01*
X111340820Y-80919995D01*
X111329445Y-80882499D01*
X111325000Y-80837362D01*
X111325000Y-80198638D01*
X111329445Y-80153501D01*
X111340820Y-80116005D01*
X111359292Y-80081446D01*
X111384153Y-80051153D01*
X111414446Y-80026292D01*
X111449005Y-80007820D01*
X111486501Y-79996445D01*
X111531638Y-79992000D01*
X112270362Y-79992000D01*
X112315499Y-79996445D01*
X112315499Y-79996445D01*
G37*
G36*
X114065499Y-79996445D02*
G01*
X114102995Y-80007820D01*
X114137554Y-80026292D01*
X114167847Y-80051153D01*
X114192708Y-80081446D01*
X114211180Y-80116005D01*
X114222555Y-80153501D01*
X114227000Y-80198638D01*
X114227000Y-80837362D01*
X114222555Y-80882499D01*
X114211180Y-80919995D01*
X114192708Y-80954554D01*
X114167847Y-80984847D01*
X114137554Y-81009708D01*
X114102995Y-81028180D01*
X114065499Y-81039555D01*
X114020362Y-81044000D01*
X113281638Y-81044000D01*
X113236501Y-81039555D01*
X113199005Y-81028180D01*
X113164446Y-81009708D01*
X113134153Y-80984847D01*
X113109292Y-80954554D01*
X113090820Y-80919995D01*
X113079445Y-80882499D01*
X113075000Y-80837362D01*
X113075000Y-80198638D01*
X113079445Y-80153501D01*
X113090820Y-80116005D01*
X113109292Y-80081446D01*
X113134153Y-80051153D01*
X113164446Y-80026292D01*
X113199005Y-80007820D01*
X113236501Y-79996445D01*
X113281638Y-79992000D01*
X114020362Y-79992000D01*
X114065499Y-79996445D01*
X114065499Y-79996445D01*
G37*
G36*
X122475499Y-79996445D02*
G01*
X122512995Y-80007820D01*
X122547554Y-80026292D01*
X122577847Y-80051153D01*
X122602708Y-80081446D01*
X122621180Y-80116005D01*
X122632555Y-80153501D01*
X122637000Y-80198638D01*
X122637000Y-80837362D01*
X122632555Y-80882499D01*
X122621180Y-80919995D01*
X122602708Y-80954554D01*
X122577847Y-80984847D01*
X122547554Y-81009708D01*
X122512995Y-81028180D01*
X122475499Y-81039555D01*
X122430362Y-81044000D01*
X121691638Y-81044000D01*
X121646501Y-81039555D01*
X121609005Y-81028180D01*
X121574446Y-81009708D01*
X121544153Y-80984847D01*
X121519292Y-80954554D01*
X121500820Y-80919995D01*
X121489445Y-80882499D01*
X121485000Y-80837362D01*
X121485000Y-80198638D01*
X121489445Y-80153501D01*
X121500820Y-80116005D01*
X121519292Y-80081446D01*
X121544153Y-80051153D01*
X121574446Y-80026292D01*
X121609005Y-80007820D01*
X121646501Y-79996445D01*
X121691638Y-79992000D01*
X122430362Y-79992000D01*
X122475499Y-79996445D01*
X122475499Y-79996445D01*
G37*
G36*
X124225499Y-79996445D02*
G01*
X124262995Y-80007820D01*
X124297554Y-80026292D01*
X124327847Y-80051153D01*
X124352708Y-80081446D01*
X124371180Y-80116005D01*
X124382555Y-80153501D01*
X124387000Y-80198638D01*
X124387000Y-80837362D01*
X124382555Y-80882499D01*
X124371180Y-80919995D01*
X124352708Y-80954554D01*
X124327847Y-80984847D01*
X124297554Y-81009708D01*
X124262995Y-81028180D01*
X124225499Y-81039555D01*
X124180362Y-81044000D01*
X123441638Y-81044000D01*
X123396501Y-81039555D01*
X123359005Y-81028180D01*
X123324446Y-81009708D01*
X123294153Y-80984847D01*
X123269292Y-80954554D01*
X123250820Y-80919995D01*
X123239445Y-80882499D01*
X123235000Y-80837362D01*
X123235000Y-80198638D01*
X123239445Y-80153501D01*
X123250820Y-80116005D01*
X123269292Y-80081446D01*
X123294153Y-80051153D01*
X123324446Y-80026292D01*
X123359005Y-80007820D01*
X123396501Y-79996445D01*
X123441638Y-79992000D01*
X124180362Y-79992000D01*
X124225499Y-79996445D01*
X124225499Y-79996445D01*
G37*
G36*
X118976000Y-80649000D02*
G01*
X117974000Y-80649000D01*
X117974000Y-79747000D01*
X118976000Y-79747000D01*
X118976000Y-80649000D01*
X118976000Y-80649000D01*
G37*
G36*
X107549928Y-79534764D02*
G01*
X107571009Y-79541160D01*
X107590445Y-79551548D01*
X107607476Y-79565524D01*
X107621452Y-79582555D01*
X107631840Y-79601991D01*
X107638236Y-79623072D01*
X107641000Y-79651140D01*
X107641000Y-80114860D01*
X107638236Y-80142928D01*
X107631840Y-80164009D01*
X107621452Y-80183445D01*
X107607476Y-80200476D01*
X107590445Y-80214452D01*
X107571009Y-80224840D01*
X107549928Y-80231236D01*
X107521860Y-80234000D01*
X105708140Y-80234000D01*
X105680072Y-80231236D01*
X105658991Y-80224840D01*
X105639555Y-80214452D01*
X105622524Y-80200476D01*
X105608548Y-80183445D01*
X105598160Y-80164009D01*
X105591764Y-80142928D01*
X105589000Y-80114860D01*
X105589000Y-79651140D01*
X105591764Y-79623072D01*
X105598160Y-79601991D01*
X105608548Y-79582555D01*
X105622524Y-79565524D01*
X105639555Y-79551548D01*
X105658991Y-79541160D01*
X105680072Y-79534764D01*
X105708140Y-79532000D01*
X107521860Y-79532000D01*
X107549928Y-79534764D01*
X107549928Y-79534764D01*
G37*
G36*
X102599928Y-79534764D02*
G01*
X102621009Y-79541160D01*
X102640445Y-79551548D01*
X102657476Y-79565524D01*
X102671452Y-79582555D01*
X102681840Y-79601991D01*
X102688236Y-79623072D01*
X102691000Y-79651140D01*
X102691000Y-80114860D01*
X102688236Y-80142928D01*
X102681840Y-80164009D01*
X102671452Y-80183445D01*
X102657476Y-80200476D01*
X102640445Y-80214452D01*
X102621009Y-80224840D01*
X102599928Y-80231236D01*
X102571860Y-80234000D01*
X100758140Y-80234000D01*
X100730072Y-80231236D01*
X100708991Y-80224840D01*
X100689555Y-80214452D01*
X100672524Y-80200476D01*
X100658548Y-80183445D01*
X100648160Y-80164009D01*
X100641764Y-80142928D01*
X100639000Y-80114860D01*
X100639000Y-79651140D01*
X100641764Y-79623072D01*
X100648160Y-79601991D01*
X100658548Y-79582555D01*
X100672524Y-79565524D01*
X100689555Y-79551548D01*
X100708991Y-79541160D01*
X100730072Y-79534764D01*
X100758140Y-79532000D01*
X102571860Y-79532000D01*
X102599928Y-79534764D01*
X102599928Y-79534764D01*
G37*
G36*
X129684928Y-79534764D02*
G01*
X129706009Y-79541160D01*
X129725445Y-79551548D01*
X129742476Y-79565524D01*
X129756452Y-79582555D01*
X129766840Y-79601991D01*
X129773236Y-79623072D01*
X129776000Y-79651140D01*
X129776000Y-80114860D01*
X129773236Y-80142928D01*
X129766840Y-80164009D01*
X129756452Y-80183445D01*
X129742476Y-80200476D01*
X129725445Y-80214452D01*
X129706009Y-80224840D01*
X129684928Y-80231236D01*
X129656860Y-80234000D01*
X127743140Y-80234000D01*
X127715072Y-80231236D01*
X127693991Y-80224840D01*
X127674555Y-80214452D01*
X127657524Y-80200476D01*
X127643548Y-80183445D01*
X127633160Y-80164009D01*
X127626764Y-80142928D01*
X127624000Y-80114860D01*
X127624000Y-79651140D01*
X127626764Y-79623072D01*
X127633160Y-79601991D01*
X127643548Y-79582555D01*
X127657524Y-79565524D01*
X127674555Y-79551548D01*
X127693991Y-79541160D01*
X127715072Y-79534764D01*
X127743140Y-79532000D01*
X129656860Y-79532000D01*
X129684928Y-79534764D01*
X129684928Y-79534764D01*
G37*
G36*
X138984928Y-79534764D02*
G01*
X139006009Y-79541160D01*
X139025445Y-79551548D01*
X139042476Y-79565524D01*
X139056452Y-79582555D01*
X139066840Y-79601991D01*
X139073236Y-79623072D01*
X139076000Y-79651140D01*
X139076000Y-80114860D01*
X139073236Y-80142928D01*
X139066840Y-80164009D01*
X139056452Y-80183445D01*
X139042476Y-80200476D01*
X139025445Y-80214452D01*
X139006009Y-80224840D01*
X138984928Y-80231236D01*
X138956860Y-80234000D01*
X137043140Y-80234000D01*
X137015072Y-80231236D01*
X136993991Y-80224840D01*
X136974555Y-80214452D01*
X136957524Y-80200476D01*
X136943548Y-80183445D01*
X136933160Y-80164009D01*
X136926764Y-80142928D01*
X136924000Y-80114860D01*
X136924000Y-79651140D01*
X136926764Y-79623072D01*
X136933160Y-79601991D01*
X136943548Y-79582555D01*
X136957524Y-79565524D01*
X136974555Y-79551548D01*
X136993991Y-79541160D01*
X137015072Y-79534764D01*
X137043140Y-79532000D01*
X138956860Y-79532000D01*
X138984928Y-79534764D01*
X138984928Y-79534764D01*
G37*
G36*
X116976000Y-79699000D02*
G01*
X115974000Y-79699000D01*
X115974000Y-78797000D01*
X116976000Y-78797000D01*
X116976000Y-79699000D01*
X116976000Y-79699000D01*
G37*
G36*
X124225499Y-78091445D02*
G01*
X124262995Y-78102820D01*
X124297554Y-78121292D01*
X124327847Y-78146153D01*
X124352708Y-78176446D01*
X124371180Y-78211005D01*
X124382555Y-78248501D01*
X124387000Y-78293638D01*
X124387000Y-78932362D01*
X124382555Y-78977499D01*
X124371180Y-79014995D01*
X124352708Y-79049554D01*
X124327847Y-79079847D01*
X124297554Y-79104708D01*
X124262995Y-79123180D01*
X124225499Y-79134555D01*
X124180362Y-79139000D01*
X123441638Y-79139000D01*
X123396501Y-79134555D01*
X123359005Y-79123180D01*
X123324446Y-79104708D01*
X123294153Y-79079847D01*
X123269292Y-79049554D01*
X123250820Y-79014995D01*
X123239445Y-78977499D01*
X123235000Y-78932362D01*
X123235000Y-78293638D01*
X123239445Y-78248501D01*
X123250820Y-78211005D01*
X123269292Y-78176446D01*
X123294153Y-78146153D01*
X123324446Y-78121292D01*
X123359005Y-78102820D01*
X123396501Y-78091445D01*
X123441638Y-78087000D01*
X124180362Y-78087000D01*
X124225499Y-78091445D01*
X124225499Y-78091445D01*
G37*
G36*
X122475499Y-78091445D02*
G01*
X122512995Y-78102820D01*
X122547554Y-78121292D01*
X122577847Y-78146153D01*
X122602708Y-78176446D01*
X122621180Y-78211005D01*
X122632555Y-78248501D01*
X122637000Y-78293638D01*
X122637000Y-78932362D01*
X122632555Y-78977499D01*
X122621180Y-79014995D01*
X122602708Y-79049554D01*
X122577847Y-79079847D01*
X122547554Y-79104708D01*
X122512995Y-79123180D01*
X122475499Y-79134555D01*
X122430362Y-79139000D01*
X121691638Y-79139000D01*
X121646501Y-79134555D01*
X121609005Y-79123180D01*
X121574446Y-79104708D01*
X121544153Y-79079847D01*
X121519292Y-79049554D01*
X121500820Y-79014995D01*
X121489445Y-78977499D01*
X121485000Y-78932362D01*
X121485000Y-78293638D01*
X121489445Y-78248501D01*
X121500820Y-78211005D01*
X121519292Y-78176446D01*
X121544153Y-78146153D01*
X121574446Y-78121292D01*
X121609005Y-78102820D01*
X121646501Y-78091445D01*
X121691638Y-78087000D01*
X122430362Y-78087000D01*
X122475499Y-78091445D01*
X122475499Y-78091445D01*
G37*
G36*
X112315499Y-78091445D02*
G01*
X112352995Y-78102820D01*
X112387554Y-78121292D01*
X112417847Y-78146153D01*
X112442708Y-78176446D01*
X112461180Y-78211005D01*
X112472555Y-78248501D01*
X112477000Y-78293638D01*
X112477000Y-78932362D01*
X112472555Y-78977499D01*
X112461180Y-79014995D01*
X112442708Y-79049554D01*
X112417847Y-79079847D01*
X112387554Y-79104708D01*
X112352995Y-79123180D01*
X112315499Y-79134555D01*
X112270362Y-79139000D01*
X111531638Y-79139000D01*
X111486501Y-79134555D01*
X111449005Y-79123180D01*
X111414446Y-79104708D01*
X111384153Y-79079847D01*
X111359292Y-79049554D01*
X111340820Y-79014995D01*
X111329445Y-78977499D01*
X111325000Y-78932362D01*
X111325000Y-78293638D01*
X111329445Y-78248501D01*
X111340820Y-78211005D01*
X111359292Y-78176446D01*
X111384153Y-78146153D01*
X111414446Y-78121292D01*
X111449005Y-78102820D01*
X111486501Y-78091445D01*
X111531638Y-78087000D01*
X112270362Y-78087000D01*
X112315499Y-78091445D01*
X112315499Y-78091445D01*
G37*
G36*
X114065499Y-78091445D02*
G01*
X114102995Y-78102820D01*
X114137554Y-78121292D01*
X114167847Y-78146153D01*
X114192708Y-78176446D01*
X114211180Y-78211005D01*
X114222555Y-78248501D01*
X114227000Y-78293638D01*
X114227000Y-78932362D01*
X114222555Y-78977499D01*
X114211180Y-79014995D01*
X114192708Y-79049554D01*
X114167847Y-79079847D01*
X114137554Y-79104708D01*
X114102995Y-79123180D01*
X114065499Y-79134555D01*
X114020362Y-79139000D01*
X113281638Y-79139000D01*
X113236501Y-79134555D01*
X113199005Y-79123180D01*
X113164446Y-79104708D01*
X113134153Y-79079847D01*
X113109292Y-79049554D01*
X113090820Y-79014995D01*
X113079445Y-78977499D01*
X113075000Y-78932362D01*
X113075000Y-78293638D01*
X113079445Y-78248501D01*
X113090820Y-78211005D01*
X113109292Y-78176446D01*
X113134153Y-78146153D01*
X113164446Y-78121292D01*
X113199005Y-78102820D01*
X113236501Y-78091445D01*
X113281638Y-78087000D01*
X114020362Y-78087000D01*
X114065499Y-78091445D01*
X114065499Y-78091445D01*
G37*
G36*
X129684928Y-78264764D02*
G01*
X129706009Y-78271160D01*
X129725445Y-78281548D01*
X129742476Y-78295524D01*
X129756452Y-78312555D01*
X129766840Y-78331991D01*
X129773236Y-78353072D01*
X129776000Y-78381140D01*
X129776000Y-78844860D01*
X129773236Y-78872928D01*
X129766840Y-78894009D01*
X129756452Y-78913445D01*
X129742476Y-78930476D01*
X129725445Y-78944452D01*
X129706009Y-78954840D01*
X129684928Y-78961236D01*
X129656860Y-78964000D01*
X127743140Y-78964000D01*
X127715072Y-78961236D01*
X127693991Y-78954840D01*
X127674555Y-78944452D01*
X127657524Y-78930476D01*
X127643548Y-78913445D01*
X127633160Y-78894009D01*
X127626764Y-78872928D01*
X127624000Y-78844860D01*
X127624000Y-78381140D01*
X127626764Y-78353072D01*
X127633160Y-78331991D01*
X127643548Y-78312555D01*
X127657524Y-78295524D01*
X127674555Y-78281548D01*
X127693991Y-78271160D01*
X127715072Y-78264764D01*
X127743140Y-78262000D01*
X129656860Y-78262000D01*
X129684928Y-78264764D01*
X129684928Y-78264764D01*
G37*
G36*
X102599928Y-78264764D02*
G01*
X102621009Y-78271160D01*
X102640445Y-78281548D01*
X102657476Y-78295524D01*
X102671452Y-78312555D01*
X102681840Y-78331991D01*
X102688236Y-78353072D01*
X102691000Y-78381140D01*
X102691000Y-78844860D01*
X102688236Y-78872928D01*
X102681840Y-78894009D01*
X102671452Y-78913445D01*
X102657476Y-78930476D01*
X102640445Y-78944452D01*
X102621009Y-78954840D01*
X102599928Y-78961236D01*
X102571860Y-78964000D01*
X100758140Y-78964000D01*
X100730072Y-78961236D01*
X100708991Y-78954840D01*
X100689555Y-78944452D01*
X100672524Y-78930476D01*
X100658548Y-78913445D01*
X100648160Y-78894009D01*
X100641764Y-78872928D01*
X100639000Y-78844860D01*
X100639000Y-78381140D01*
X100641764Y-78353072D01*
X100648160Y-78331991D01*
X100658548Y-78312555D01*
X100672524Y-78295524D01*
X100689555Y-78281548D01*
X100708991Y-78271160D01*
X100730072Y-78264764D01*
X100758140Y-78262000D01*
X102571860Y-78262000D01*
X102599928Y-78264764D01*
X102599928Y-78264764D01*
G37*
G36*
X138984928Y-78264764D02*
G01*
X139006009Y-78271160D01*
X139025445Y-78281548D01*
X139042476Y-78295524D01*
X139056452Y-78312555D01*
X139066840Y-78331991D01*
X139073236Y-78353072D01*
X139076000Y-78381140D01*
X139076000Y-78844860D01*
X139073236Y-78872928D01*
X139066840Y-78894009D01*
X139056452Y-78913445D01*
X139042476Y-78930476D01*
X139025445Y-78944452D01*
X139006009Y-78954840D01*
X138984928Y-78961236D01*
X138956860Y-78964000D01*
X137043140Y-78964000D01*
X137015072Y-78961236D01*
X136993991Y-78954840D01*
X136974555Y-78944452D01*
X136957524Y-78930476D01*
X136943548Y-78913445D01*
X136933160Y-78894009D01*
X136926764Y-78872928D01*
X136924000Y-78844860D01*
X136924000Y-78381140D01*
X136926764Y-78353072D01*
X136933160Y-78331991D01*
X136943548Y-78312555D01*
X136957524Y-78295524D01*
X136974555Y-78281548D01*
X136993991Y-78271160D01*
X137015072Y-78264764D01*
X137043140Y-78262000D01*
X138956860Y-78262000D01*
X138984928Y-78264764D01*
X138984928Y-78264764D01*
G37*
G36*
X107549928Y-78264764D02*
G01*
X107571009Y-78271160D01*
X107590445Y-78281548D01*
X107607476Y-78295524D01*
X107621452Y-78312555D01*
X107631840Y-78331991D01*
X107638236Y-78353072D01*
X107641000Y-78381140D01*
X107641000Y-78844860D01*
X107638236Y-78872928D01*
X107631840Y-78894009D01*
X107621452Y-78913445D01*
X107607476Y-78930476D01*
X107590445Y-78944452D01*
X107571009Y-78954840D01*
X107549928Y-78961236D01*
X107521860Y-78964000D01*
X105708140Y-78964000D01*
X105680072Y-78961236D01*
X105658991Y-78954840D01*
X105639555Y-78944452D01*
X105622524Y-78930476D01*
X105608548Y-78913445D01*
X105598160Y-78894009D01*
X105591764Y-78872928D01*
X105589000Y-78844860D01*
X105589000Y-78381140D01*
X105591764Y-78353072D01*
X105598160Y-78331991D01*
X105608548Y-78312555D01*
X105622524Y-78295524D01*
X105639555Y-78281548D01*
X105658991Y-78271160D01*
X105680072Y-78264764D01*
X105708140Y-78262000D01*
X107521860Y-78262000D01*
X107549928Y-78264764D01*
X107549928Y-78264764D01*
G37*
G36*
X118976000Y-78749000D02*
G01*
X117974000Y-78749000D01*
X117974000Y-77847000D01*
X118976000Y-77847000D01*
X118976000Y-78749000D01*
X118976000Y-78749000D01*
G37*
G36*
X138984928Y-76994764D02*
G01*
X139006009Y-77001160D01*
X139025445Y-77011548D01*
X139042476Y-77025524D01*
X139056452Y-77042555D01*
X139066840Y-77061991D01*
X139073236Y-77083072D01*
X139076000Y-77111140D01*
X139076000Y-77574860D01*
X139073236Y-77602928D01*
X139066840Y-77624009D01*
X139056452Y-77643445D01*
X139042476Y-77660476D01*
X139025445Y-77674452D01*
X139006009Y-77684840D01*
X138984928Y-77691236D01*
X138956860Y-77694000D01*
X137043140Y-77694000D01*
X137015072Y-77691236D01*
X136993991Y-77684840D01*
X136974555Y-77674452D01*
X136957524Y-77660476D01*
X136943548Y-77643445D01*
X136933160Y-77624009D01*
X136926764Y-77602928D01*
X136924000Y-77574860D01*
X136924000Y-77111140D01*
X136926764Y-77083072D01*
X136933160Y-77061991D01*
X136943548Y-77042555D01*
X136957524Y-77025524D01*
X136974555Y-77011548D01*
X136993991Y-77001160D01*
X137015072Y-76994764D01*
X137043140Y-76992000D01*
X138956860Y-76992000D01*
X138984928Y-76994764D01*
X138984928Y-76994764D01*
G37*
G36*
X129684928Y-76994764D02*
G01*
X129706009Y-77001160D01*
X129725445Y-77011548D01*
X129742476Y-77025524D01*
X129756452Y-77042555D01*
X129766840Y-77061991D01*
X129773236Y-77083072D01*
X129776000Y-77111140D01*
X129776000Y-77574860D01*
X129773236Y-77602928D01*
X129766840Y-77624009D01*
X129756452Y-77643445D01*
X129742476Y-77660476D01*
X129725445Y-77674452D01*
X129706009Y-77684840D01*
X129684928Y-77691236D01*
X129656860Y-77694000D01*
X127743140Y-77694000D01*
X127715072Y-77691236D01*
X127693991Y-77684840D01*
X127674555Y-77674452D01*
X127657524Y-77660476D01*
X127643548Y-77643445D01*
X127633160Y-77624009D01*
X127626764Y-77602928D01*
X127624000Y-77574860D01*
X127624000Y-77111140D01*
X127626764Y-77083072D01*
X127633160Y-77061991D01*
X127643548Y-77042555D01*
X127657524Y-77025524D01*
X127674555Y-77011548D01*
X127693991Y-77001160D01*
X127715072Y-76994764D01*
X127743140Y-76992000D01*
X129656860Y-76992000D01*
X129684928Y-76994764D01*
X129684928Y-76994764D01*
G37*
G36*
X107549928Y-76994764D02*
G01*
X107571009Y-77001160D01*
X107590445Y-77011548D01*
X107607476Y-77025524D01*
X107621452Y-77042555D01*
X107631840Y-77061991D01*
X107638236Y-77083072D01*
X107641000Y-77111140D01*
X107641000Y-77574860D01*
X107638236Y-77602928D01*
X107631840Y-77624009D01*
X107621452Y-77643445D01*
X107607476Y-77660476D01*
X107590445Y-77674452D01*
X107571009Y-77684840D01*
X107549928Y-77691236D01*
X107521860Y-77694000D01*
X105708140Y-77694000D01*
X105680072Y-77691236D01*
X105658991Y-77684840D01*
X105639555Y-77674452D01*
X105622524Y-77660476D01*
X105608548Y-77643445D01*
X105598160Y-77624009D01*
X105591764Y-77602928D01*
X105589000Y-77574860D01*
X105589000Y-77111140D01*
X105591764Y-77083072D01*
X105598160Y-77061991D01*
X105608548Y-77042555D01*
X105622524Y-77025524D01*
X105639555Y-77011548D01*
X105658991Y-77001160D01*
X105680072Y-76994764D01*
X105708140Y-76992000D01*
X107521860Y-76992000D01*
X107549928Y-76994764D01*
X107549928Y-76994764D01*
G37*
G36*
X102599928Y-76994764D02*
G01*
X102621009Y-77001160D01*
X102640445Y-77011548D01*
X102657476Y-77025524D01*
X102671452Y-77042555D01*
X102681840Y-77061991D01*
X102688236Y-77083072D01*
X102691000Y-77111140D01*
X102691000Y-77574860D01*
X102688236Y-77602928D01*
X102681840Y-77624009D01*
X102671452Y-77643445D01*
X102657476Y-77660476D01*
X102640445Y-77674452D01*
X102621009Y-77684840D01*
X102599928Y-77691236D01*
X102571860Y-77694000D01*
X100758140Y-77694000D01*
X100730072Y-77691236D01*
X100708991Y-77684840D01*
X100689555Y-77674452D01*
X100672524Y-77660476D01*
X100658548Y-77643445D01*
X100648160Y-77624009D01*
X100641764Y-77602928D01*
X100639000Y-77574860D01*
X100639000Y-77111140D01*
X100641764Y-77083072D01*
X100648160Y-77061991D01*
X100658548Y-77042555D01*
X100672524Y-77025524D01*
X100689555Y-77011548D01*
X100708991Y-77001160D01*
X100730072Y-76994764D01*
X100758140Y-76992000D01*
X102571860Y-76992000D01*
X102599928Y-76994764D01*
X102599928Y-76994764D01*
G37*
G36*
X129684928Y-75724764D02*
G01*
X129706009Y-75731160D01*
X129725445Y-75741548D01*
X129742476Y-75755524D01*
X129756452Y-75772555D01*
X129766840Y-75791991D01*
X129773236Y-75813072D01*
X129776000Y-75841140D01*
X129776000Y-76304860D01*
X129773236Y-76332928D01*
X129766840Y-76354009D01*
X129756452Y-76373445D01*
X129742476Y-76390476D01*
X129725445Y-76404452D01*
X129706009Y-76414840D01*
X129684928Y-76421236D01*
X129656860Y-76424000D01*
X127743140Y-76424000D01*
X127715072Y-76421236D01*
X127693991Y-76414840D01*
X127674555Y-76404452D01*
X127657524Y-76390476D01*
X127643548Y-76373445D01*
X127633160Y-76354009D01*
X127626764Y-76332928D01*
X127624000Y-76304860D01*
X127624000Y-75841140D01*
X127626764Y-75813072D01*
X127633160Y-75791991D01*
X127643548Y-75772555D01*
X127657524Y-75755524D01*
X127674555Y-75741548D01*
X127693991Y-75731160D01*
X127715072Y-75724764D01*
X127743140Y-75722000D01*
X129656860Y-75722000D01*
X129684928Y-75724764D01*
X129684928Y-75724764D01*
G37*
G36*
X107549928Y-75724764D02*
G01*
X107571009Y-75731160D01*
X107590445Y-75741548D01*
X107607476Y-75755524D01*
X107621452Y-75772555D01*
X107631840Y-75791991D01*
X107638236Y-75813072D01*
X107641000Y-75841140D01*
X107641000Y-76304860D01*
X107638236Y-76332928D01*
X107631840Y-76354009D01*
X107621452Y-76373445D01*
X107607476Y-76390476D01*
X107590445Y-76404452D01*
X107571009Y-76414840D01*
X107549928Y-76421236D01*
X107521860Y-76424000D01*
X105708140Y-76424000D01*
X105680072Y-76421236D01*
X105658991Y-76414840D01*
X105639555Y-76404452D01*
X105622524Y-76390476D01*
X105608548Y-76373445D01*
X105598160Y-76354009D01*
X105591764Y-76332928D01*
X105589000Y-76304860D01*
X105589000Y-75841140D01*
X105591764Y-75813072D01*
X105598160Y-75791991D01*
X105608548Y-75772555D01*
X105622524Y-75755524D01*
X105639555Y-75741548D01*
X105658991Y-75731160D01*
X105680072Y-75724764D01*
X105708140Y-75722000D01*
X107521860Y-75722000D01*
X107549928Y-75724764D01*
X107549928Y-75724764D01*
G37*
G36*
X138984928Y-75724764D02*
G01*
X139006009Y-75731160D01*
X139025445Y-75741548D01*
X139042476Y-75755524D01*
X139056452Y-75772555D01*
X139066840Y-75791991D01*
X139073236Y-75813072D01*
X139076000Y-75841140D01*
X139076000Y-76304860D01*
X139073236Y-76332928D01*
X139066840Y-76354009D01*
X139056452Y-76373445D01*
X139042476Y-76390476D01*
X139025445Y-76404452D01*
X139006009Y-76414840D01*
X138984928Y-76421236D01*
X138956860Y-76424000D01*
X137043140Y-76424000D01*
X137015072Y-76421236D01*
X136993991Y-76414840D01*
X136974555Y-76404452D01*
X136957524Y-76390476D01*
X136943548Y-76373445D01*
X136933160Y-76354009D01*
X136926764Y-76332928D01*
X136924000Y-76304860D01*
X136924000Y-75841140D01*
X136926764Y-75813072D01*
X136933160Y-75791991D01*
X136943548Y-75772555D01*
X136957524Y-75755524D01*
X136974555Y-75741548D01*
X136993991Y-75731160D01*
X137015072Y-75724764D01*
X137043140Y-75722000D01*
X138956860Y-75722000D01*
X138984928Y-75724764D01*
X138984928Y-75724764D01*
G37*
G36*
X102599928Y-75724764D02*
G01*
X102621009Y-75731160D01*
X102640445Y-75741548D01*
X102657476Y-75755524D01*
X102671452Y-75772555D01*
X102681840Y-75791991D01*
X102688236Y-75813072D01*
X102691000Y-75841140D01*
X102691000Y-76304860D01*
X102688236Y-76332928D01*
X102681840Y-76354009D01*
X102671452Y-76373445D01*
X102657476Y-76390476D01*
X102640445Y-76404452D01*
X102621009Y-76414840D01*
X102599928Y-76421236D01*
X102571860Y-76424000D01*
X100758140Y-76424000D01*
X100730072Y-76421236D01*
X100708991Y-76414840D01*
X100689555Y-76404452D01*
X100672524Y-76390476D01*
X100658548Y-76373445D01*
X100648160Y-76354009D01*
X100641764Y-76332928D01*
X100639000Y-76304860D01*
X100639000Y-75841140D01*
X100641764Y-75813072D01*
X100648160Y-75791991D01*
X100658548Y-75772555D01*
X100672524Y-75755524D01*
X100689555Y-75741548D01*
X100708991Y-75731160D01*
X100730072Y-75724764D01*
X100758140Y-75722000D01*
X102571860Y-75722000D01*
X102599928Y-75724764D01*
X102599928Y-75724764D01*
G37*
G36*
X124319591Y-74281085D02*
G01*
X124353569Y-74291393D01*
X124384890Y-74308134D01*
X124412339Y-74330661D01*
X124434866Y-74358110D01*
X124451607Y-74389431D01*
X124461915Y-74423409D01*
X124466000Y-74464890D01*
X124466000Y-75141110D01*
X124461915Y-75182591D01*
X124451607Y-75216569D01*
X124434866Y-75247890D01*
X124412339Y-75275339D01*
X124384890Y-75297866D01*
X124353569Y-75314607D01*
X124319591Y-75324915D01*
X124278110Y-75329000D01*
X123676890Y-75329000D01*
X123635409Y-75324915D01*
X123601431Y-75314607D01*
X123570110Y-75297866D01*
X123542661Y-75275339D01*
X123520134Y-75247890D01*
X123503393Y-75216569D01*
X123493085Y-75182591D01*
X123489000Y-75141110D01*
X123489000Y-74464890D01*
X123493085Y-74423409D01*
X123503393Y-74389431D01*
X123520134Y-74358110D01*
X123542661Y-74330661D01*
X123570110Y-74308134D01*
X123601431Y-74291393D01*
X123635409Y-74281085D01*
X123676890Y-74277000D01*
X124278110Y-74277000D01*
X124319591Y-74281085D01*
X124319591Y-74281085D01*
G37*
G36*
X122744591Y-74281085D02*
G01*
X122778569Y-74291393D01*
X122809890Y-74308134D01*
X122837339Y-74330661D01*
X122859866Y-74358110D01*
X122876607Y-74389431D01*
X122886915Y-74423409D01*
X122891000Y-74464890D01*
X122891000Y-75141110D01*
X122886915Y-75182591D01*
X122876607Y-75216569D01*
X122859866Y-75247890D01*
X122837339Y-75275339D01*
X122809890Y-75297866D01*
X122778569Y-75314607D01*
X122744591Y-75324915D01*
X122703110Y-75329000D01*
X122101890Y-75329000D01*
X122060409Y-75324915D01*
X122026431Y-75314607D01*
X121995110Y-75297866D01*
X121967661Y-75275339D01*
X121945134Y-75247890D01*
X121928393Y-75216569D01*
X121918085Y-75182591D01*
X121914000Y-75141110D01*
X121914000Y-74464890D01*
X121918085Y-74423409D01*
X121928393Y-74389431D01*
X121945134Y-74358110D01*
X121967661Y-74330661D01*
X121995110Y-74308134D01*
X122026431Y-74291393D01*
X122060409Y-74281085D01*
X122101890Y-74277000D01*
X122703110Y-74277000D01*
X122744591Y-74281085D01*
X122744591Y-74281085D01*
G37*
G36*
X129684928Y-74454764D02*
G01*
X129706009Y-74461160D01*
X129725445Y-74471548D01*
X129742476Y-74485524D01*
X129756452Y-74502555D01*
X129766840Y-74521991D01*
X129773236Y-74543072D01*
X129776000Y-74571140D01*
X129776000Y-75034860D01*
X129773236Y-75062928D01*
X129766840Y-75084009D01*
X129756452Y-75103445D01*
X129742476Y-75120476D01*
X129725445Y-75134452D01*
X129706009Y-75144840D01*
X129684928Y-75151236D01*
X129656860Y-75154000D01*
X127743140Y-75154000D01*
X127715072Y-75151236D01*
X127693991Y-75144840D01*
X127674555Y-75134452D01*
X127657524Y-75120476D01*
X127643548Y-75103445D01*
X127633160Y-75084009D01*
X127626764Y-75062928D01*
X127624000Y-75034860D01*
X127624000Y-74571140D01*
X127626764Y-74543072D01*
X127633160Y-74521991D01*
X127643548Y-74502555D01*
X127657524Y-74485524D01*
X127674555Y-74471548D01*
X127693991Y-74461160D01*
X127715072Y-74454764D01*
X127743140Y-74452000D01*
X129656860Y-74452000D01*
X129684928Y-74454764D01*
X129684928Y-74454764D01*
G37*
G36*
X102599928Y-74454764D02*
G01*
X102621009Y-74461160D01*
X102640445Y-74471548D01*
X102657476Y-74485524D01*
X102671452Y-74502555D01*
X102681840Y-74521991D01*
X102688236Y-74543072D01*
X102691000Y-74571140D01*
X102691000Y-75034860D01*
X102688236Y-75062928D01*
X102681840Y-75084009D01*
X102671452Y-75103445D01*
X102657476Y-75120476D01*
X102640445Y-75134452D01*
X102621009Y-75144840D01*
X102599928Y-75151236D01*
X102571860Y-75154000D01*
X100758140Y-75154000D01*
X100730072Y-75151236D01*
X100708991Y-75144840D01*
X100689555Y-75134452D01*
X100672524Y-75120476D01*
X100658548Y-75103445D01*
X100648160Y-75084009D01*
X100641764Y-75062928D01*
X100639000Y-75034860D01*
X100639000Y-74571140D01*
X100641764Y-74543072D01*
X100648160Y-74521991D01*
X100658548Y-74502555D01*
X100672524Y-74485524D01*
X100689555Y-74471548D01*
X100708991Y-74461160D01*
X100730072Y-74454764D01*
X100758140Y-74452000D01*
X102571860Y-74452000D01*
X102599928Y-74454764D01*
X102599928Y-74454764D01*
G37*
G36*
X107549928Y-74454764D02*
G01*
X107571009Y-74461160D01*
X107590445Y-74471548D01*
X107607476Y-74485524D01*
X107621452Y-74502555D01*
X107631840Y-74521991D01*
X107638236Y-74543072D01*
X107641000Y-74571140D01*
X107641000Y-75034860D01*
X107638236Y-75062928D01*
X107631840Y-75084009D01*
X107621452Y-75103445D01*
X107607476Y-75120476D01*
X107590445Y-75134452D01*
X107571009Y-75144840D01*
X107549928Y-75151236D01*
X107521860Y-75154000D01*
X105708140Y-75154000D01*
X105680072Y-75151236D01*
X105658991Y-75144840D01*
X105639555Y-75134452D01*
X105622524Y-75120476D01*
X105608548Y-75103445D01*
X105598160Y-75084009D01*
X105591764Y-75062928D01*
X105589000Y-75034860D01*
X105589000Y-74571140D01*
X105591764Y-74543072D01*
X105598160Y-74521991D01*
X105608548Y-74502555D01*
X105622524Y-74485524D01*
X105639555Y-74471548D01*
X105658991Y-74461160D01*
X105680072Y-74454764D01*
X105708140Y-74452000D01*
X107521860Y-74452000D01*
X107549928Y-74454764D01*
X107549928Y-74454764D01*
G37*
G36*
X138984928Y-74454764D02*
G01*
X139006009Y-74461160D01*
X139025445Y-74471548D01*
X139042476Y-74485524D01*
X139056452Y-74502555D01*
X139066840Y-74521991D01*
X139073236Y-74543072D01*
X139076000Y-74571140D01*
X139076000Y-75034860D01*
X139073236Y-75062928D01*
X139066840Y-75084009D01*
X139056452Y-75103445D01*
X139042476Y-75120476D01*
X139025445Y-75134452D01*
X139006009Y-75144840D01*
X138984928Y-75151236D01*
X138956860Y-75154000D01*
X137043140Y-75154000D01*
X137015072Y-75151236D01*
X136993991Y-75144840D01*
X136974555Y-75134452D01*
X136957524Y-75120476D01*
X136943548Y-75103445D01*
X136933160Y-75084009D01*
X136926764Y-75062928D01*
X136924000Y-75034860D01*
X136924000Y-74571140D01*
X136926764Y-74543072D01*
X136933160Y-74521991D01*
X136943548Y-74502555D01*
X136957524Y-74485524D01*
X136974555Y-74471548D01*
X136993991Y-74461160D01*
X137015072Y-74454764D01*
X137043140Y-74452000D01*
X138956860Y-74452000D01*
X138984928Y-74454764D01*
X138984928Y-74454764D01*
G37*
G36*
X109409591Y-73011085D02*
G01*
X109443569Y-73021393D01*
X109474890Y-73038134D01*
X109502339Y-73060661D01*
X109524866Y-73088110D01*
X109541607Y-73119431D01*
X109551915Y-73153409D01*
X109556000Y-73194890D01*
X109556000Y-73871110D01*
X109551915Y-73912591D01*
X109541607Y-73946569D01*
X109524866Y-73977890D01*
X109502339Y-74005339D01*
X109474890Y-74027866D01*
X109443569Y-74044607D01*
X109409591Y-74054915D01*
X109368110Y-74059000D01*
X108766890Y-74059000D01*
X108725409Y-74054915D01*
X108691431Y-74044607D01*
X108660110Y-74027866D01*
X108632661Y-74005339D01*
X108610134Y-73977890D01*
X108593393Y-73946569D01*
X108583085Y-73912591D01*
X108579000Y-73871110D01*
X108579000Y-73194890D01*
X108583085Y-73153409D01*
X108593393Y-73119431D01*
X108610134Y-73088110D01*
X108632661Y-73060661D01*
X108660110Y-73038134D01*
X108691431Y-73021393D01*
X108725409Y-73011085D01*
X108766890Y-73007000D01*
X109368110Y-73007000D01*
X109409591Y-73011085D01*
X109409591Y-73011085D01*
G37*
G36*
X110984591Y-73011085D02*
G01*
X111018569Y-73021393D01*
X111049890Y-73038134D01*
X111077339Y-73060661D01*
X111099866Y-73088110D01*
X111116607Y-73119431D01*
X111126915Y-73153409D01*
X111131000Y-73194890D01*
X111131000Y-73871110D01*
X111126915Y-73912591D01*
X111116607Y-73946569D01*
X111099866Y-73977890D01*
X111077339Y-74005339D01*
X111049890Y-74027866D01*
X111018569Y-74044607D01*
X110984591Y-74054915D01*
X110943110Y-74059000D01*
X110341890Y-74059000D01*
X110300409Y-74054915D01*
X110266431Y-74044607D01*
X110235110Y-74027866D01*
X110207661Y-74005339D01*
X110185134Y-73977890D01*
X110168393Y-73946569D01*
X110158085Y-73912591D01*
X110154000Y-73871110D01*
X110154000Y-73194890D01*
X110158085Y-73153409D01*
X110168393Y-73119431D01*
X110185134Y-73088110D01*
X110207661Y-73060661D01*
X110235110Y-73038134D01*
X110266431Y-73021393D01*
X110300409Y-73011085D01*
X110341890Y-73007000D01*
X110943110Y-73007000D01*
X110984591Y-73011085D01*
X110984591Y-73011085D01*
G37*
G36*
X129684928Y-73184764D02*
G01*
X129706009Y-73191160D01*
X129725445Y-73201548D01*
X129742476Y-73215524D01*
X129756452Y-73232555D01*
X129766840Y-73251991D01*
X129773236Y-73273072D01*
X129776000Y-73301140D01*
X129776000Y-73764860D01*
X129773236Y-73792928D01*
X129766840Y-73814009D01*
X129756452Y-73833445D01*
X129742476Y-73850476D01*
X129725445Y-73864452D01*
X129706009Y-73874840D01*
X129684928Y-73881236D01*
X129656860Y-73884000D01*
X127743140Y-73884000D01*
X127715072Y-73881236D01*
X127693991Y-73874840D01*
X127674555Y-73864452D01*
X127657524Y-73850476D01*
X127643548Y-73833445D01*
X127633160Y-73814009D01*
X127626764Y-73792928D01*
X127624000Y-73764860D01*
X127624000Y-73301140D01*
X127626764Y-73273072D01*
X127633160Y-73251991D01*
X127643548Y-73232555D01*
X127657524Y-73215524D01*
X127674555Y-73201548D01*
X127693991Y-73191160D01*
X127715072Y-73184764D01*
X127743140Y-73182000D01*
X129656860Y-73182000D01*
X129684928Y-73184764D01*
X129684928Y-73184764D01*
G37*
G36*
X138984928Y-73184764D02*
G01*
X139006009Y-73191160D01*
X139025445Y-73201548D01*
X139042476Y-73215524D01*
X139056452Y-73232555D01*
X139066840Y-73251991D01*
X139073236Y-73273072D01*
X139076000Y-73301140D01*
X139076000Y-73764860D01*
X139073236Y-73792928D01*
X139066840Y-73814009D01*
X139056452Y-73833445D01*
X139042476Y-73850476D01*
X139025445Y-73864452D01*
X139006009Y-73874840D01*
X138984928Y-73881236D01*
X138956860Y-73884000D01*
X137043140Y-73884000D01*
X137015072Y-73881236D01*
X136993991Y-73874840D01*
X136974555Y-73864452D01*
X136957524Y-73850476D01*
X136943548Y-73833445D01*
X136933160Y-73814009D01*
X136926764Y-73792928D01*
X136924000Y-73764860D01*
X136924000Y-73301140D01*
X136926764Y-73273072D01*
X136933160Y-73251991D01*
X136943548Y-73232555D01*
X136957524Y-73215524D01*
X136974555Y-73201548D01*
X136993991Y-73191160D01*
X137015072Y-73184764D01*
X137043140Y-73182000D01*
X138956860Y-73182000D01*
X138984928Y-73184764D01*
X138984928Y-73184764D01*
G37*
G36*
X102599928Y-73184764D02*
G01*
X102621009Y-73191160D01*
X102640445Y-73201548D01*
X102657476Y-73215524D01*
X102671452Y-73232555D01*
X102681840Y-73251991D01*
X102688236Y-73273072D01*
X102691000Y-73301140D01*
X102691000Y-73764860D01*
X102688236Y-73792928D01*
X102681840Y-73814009D01*
X102671452Y-73833445D01*
X102657476Y-73850476D01*
X102640445Y-73864452D01*
X102621009Y-73874840D01*
X102599928Y-73881236D01*
X102571860Y-73884000D01*
X100758140Y-73884000D01*
X100730072Y-73881236D01*
X100708991Y-73874840D01*
X100689555Y-73864452D01*
X100672524Y-73850476D01*
X100658548Y-73833445D01*
X100648160Y-73814009D01*
X100641764Y-73792928D01*
X100639000Y-73764860D01*
X100639000Y-73301140D01*
X100641764Y-73273072D01*
X100648160Y-73251991D01*
X100658548Y-73232555D01*
X100672524Y-73215524D01*
X100689555Y-73201548D01*
X100708991Y-73191160D01*
X100730072Y-73184764D01*
X100758140Y-73182000D01*
X102571860Y-73182000D01*
X102599928Y-73184764D01*
X102599928Y-73184764D01*
G37*
G36*
X107549928Y-73184764D02*
G01*
X107571009Y-73191160D01*
X107590445Y-73201548D01*
X107607476Y-73215524D01*
X107621452Y-73232555D01*
X107631840Y-73251991D01*
X107638236Y-73273072D01*
X107641000Y-73301140D01*
X107641000Y-73764860D01*
X107638236Y-73792928D01*
X107631840Y-73814009D01*
X107621452Y-73833445D01*
X107607476Y-73850476D01*
X107590445Y-73864452D01*
X107571009Y-73874840D01*
X107549928Y-73881236D01*
X107521860Y-73884000D01*
X105708140Y-73884000D01*
X105680072Y-73881236D01*
X105658991Y-73874840D01*
X105639555Y-73864452D01*
X105622524Y-73850476D01*
X105608548Y-73833445D01*
X105598160Y-73814009D01*
X105591764Y-73792928D01*
X105589000Y-73764860D01*
X105589000Y-73301140D01*
X105591764Y-73273072D01*
X105598160Y-73251991D01*
X105608548Y-73232555D01*
X105622524Y-73215524D01*
X105639555Y-73201548D01*
X105658991Y-73191160D01*
X105680072Y-73184764D01*
X105708140Y-73182000D01*
X107521860Y-73182000D01*
X107549928Y-73184764D01*
X107549928Y-73184764D01*
G37*
G36*
X124319591Y-72376085D02*
G01*
X124353569Y-72386393D01*
X124384890Y-72403134D01*
X124412339Y-72425661D01*
X124434866Y-72453110D01*
X124451607Y-72484431D01*
X124461915Y-72518409D01*
X124466000Y-72559890D01*
X124466000Y-73236110D01*
X124461915Y-73277591D01*
X124451607Y-73311569D01*
X124434866Y-73342890D01*
X124412339Y-73370339D01*
X124384890Y-73392866D01*
X124353569Y-73409607D01*
X124319591Y-73419915D01*
X124278110Y-73424000D01*
X123676890Y-73424000D01*
X123635409Y-73419915D01*
X123601431Y-73409607D01*
X123570110Y-73392866D01*
X123542661Y-73370339D01*
X123520134Y-73342890D01*
X123503393Y-73311569D01*
X123493085Y-73277591D01*
X123489000Y-73236110D01*
X123489000Y-72559890D01*
X123493085Y-72518409D01*
X123503393Y-72484431D01*
X123520134Y-72453110D01*
X123542661Y-72425661D01*
X123570110Y-72403134D01*
X123601431Y-72386393D01*
X123635409Y-72376085D01*
X123676890Y-72372000D01*
X124278110Y-72372000D01*
X124319591Y-72376085D01*
X124319591Y-72376085D01*
G37*
G36*
X122744591Y-72376085D02*
G01*
X122778569Y-72386393D01*
X122809890Y-72403134D01*
X122837339Y-72425661D01*
X122859866Y-72453110D01*
X122876607Y-72484431D01*
X122886915Y-72518409D01*
X122891000Y-72559890D01*
X122891000Y-73236110D01*
X122886915Y-73277591D01*
X122876607Y-73311569D01*
X122859866Y-73342890D01*
X122837339Y-73370339D01*
X122809890Y-73392866D01*
X122778569Y-73409607D01*
X122744591Y-73419915D01*
X122703110Y-73424000D01*
X122101890Y-73424000D01*
X122060409Y-73419915D01*
X122026431Y-73409607D01*
X121995110Y-73392866D01*
X121967661Y-73370339D01*
X121945134Y-73342890D01*
X121928393Y-73311569D01*
X121918085Y-73277591D01*
X121914000Y-73236110D01*
X121914000Y-72559890D01*
X121918085Y-72518409D01*
X121928393Y-72484431D01*
X121945134Y-72453110D01*
X121967661Y-72425661D01*
X121995110Y-72403134D01*
X122026431Y-72386393D01*
X122060409Y-72376085D01*
X122101890Y-72372000D01*
X122703110Y-72372000D01*
X122744591Y-72376085D01*
X122744591Y-72376085D01*
G37*
G36*
X129684928Y-71914764D02*
G01*
X129706009Y-71921160D01*
X129725445Y-71931548D01*
X129742476Y-71945524D01*
X129756452Y-71962555D01*
X129766840Y-71981991D01*
X129773236Y-72003072D01*
X129776000Y-72031140D01*
X129776000Y-72494860D01*
X129773236Y-72522928D01*
X129766840Y-72544009D01*
X129756452Y-72563445D01*
X129742476Y-72580476D01*
X129725445Y-72594452D01*
X129706009Y-72604840D01*
X129684928Y-72611236D01*
X129656860Y-72614000D01*
X127743140Y-72614000D01*
X127715072Y-72611236D01*
X127693991Y-72604840D01*
X127674555Y-72594452D01*
X127657524Y-72580476D01*
X127643548Y-72563445D01*
X127633160Y-72544009D01*
X127626764Y-72522928D01*
X127624000Y-72494860D01*
X127624000Y-72031140D01*
X127626764Y-72003072D01*
X127633160Y-71981991D01*
X127643548Y-71962555D01*
X127657524Y-71945524D01*
X127674555Y-71931548D01*
X127693991Y-71921160D01*
X127715072Y-71914764D01*
X127743140Y-71912000D01*
X129656860Y-71912000D01*
X129684928Y-71914764D01*
X129684928Y-71914764D01*
G37*
G36*
X138984928Y-71914764D02*
G01*
X139006009Y-71921160D01*
X139025445Y-71931548D01*
X139042476Y-71945524D01*
X139056452Y-71962555D01*
X139066840Y-71981991D01*
X139073236Y-72003072D01*
X139076000Y-72031140D01*
X139076000Y-72494860D01*
X139073236Y-72522928D01*
X139066840Y-72544009D01*
X139056452Y-72563445D01*
X139042476Y-72580476D01*
X139025445Y-72594452D01*
X139006009Y-72604840D01*
X138984928Y-72611236D01*
X138956860Y-72614000D01*
X137043140Y-72614000D01*
X137015072Y-72611236D01*
X136993991Y-72604840D01*
X136974555Y-72594452D01*
X136957524Y-72580476D01*
X136943548Y-72563445D01*
X136933160Y-72544009D01*
X136926764Y-72522928D01*
X136924000Y-72494860D01*
X136924000Y-72031140D01*
X136926764Y-72003072D01*
X136933160Y-71981991D01*
X136943548Y-71962555D01*
X136957524Y-71945524D01*
X136974555Y-71931548D01*
X136993991Y-71921160D01*
X137015072Y-71914764D01*
X137043140Y-71912000D01*
X138956860Y-71912000D01*
X138984928Y-71914764D01*
X138984928Y-71914764D01*
G37*
G36*
X141794591Y-71106085D02*
G01*
X141828569Y-71116393D01*
X141859890Y-71133134D01*
X141887339Y-71155661D01*
X141909866Y-71183110D01*
X141926607Y-71214431D01*
X141936915Y-71248409D01*
X141941000Y-71289890D01*
X141941000Y-71966110D01*
X141936915Y-72007591D01*
X141926607Y-72041569D01*
X141909866Y-72072890D01*
X141887339Y-72100339D01*
X141859890Y-72122866D01*
X141828569Y-72139607D01*
X141794591Y-72149915D01*
X141753110Y-72154000D01*
X141151890Y-72154000D01*
X141110409Y-72149915D01*
X141076431Y-72139607D01*
X141045110Y-72122866D01*
X141017661Y-72100339D01*
X140995134Y-72072890D01*
X140978393Y-72041569D01*
X140968085Y-72007591D01*
X140964000Y-71966110D01*
X140964000Y-71289890D01*
X140968085Y-71248409D01*
X140978393Y-71214431D01*
X140995134Y-71183110D01*
X141017661Y-71155661D01*
X141045110Y-71133134D01*
X141076431Y-71116393D01*
X141110409Y-71106085D01*
X141151890Y-71102000D01*
X141753110Y-71102000D01*
X141794591Y-71106085D01*
X141794591Y-71106085D01*
G37*
G36*
X143369591Y-71106085D02*
G01*
X143403569Y-71116393D01*
X143434890Y-71133134D01*
X143462339Y-71155661D01*
X143484866Y-71183110D01*
X143501607Y-71214431D01*
X143511915Y-71248409D01*
X143516000Y-71289890D01*
X143516000Y-71966110D01*
X143511915Y-72007591D01*
X143501607Y-72041569D01*
X143484866Y-72072890D01*
X143462339Y-72100339D01*
X143434890Y-72122866D01*
X143403569Y-72139607D01*
X143369591Y-72149915D01*
X143328110Y-72154000D01*
X142726890Y-72154000D01*
X142685409Y-72149915D01*
X142651431Y-72139607D01*
X142620110Y-72122866D01*
X142592661Y-72100339D01*
X142570134Y-72072890D01*
X142553393Y-72041569D01*
X142543085Y-72007591D01*
X142539000Y-71966110D01*
X142539000Y-71289890D01*
X142543085Y-71248409D01*
X142553393Y-71214431D01*
X142570134Y-71183110D01*
X142592661Y-71155661D01*
X142620110Y-71133134D01*
X142651431Y-71116393D01*
X142685409Y-71106085D01*
X142726890Y-71102000D01*
X143328110Y-71102000D01*
X143369591Y-71106085D01*
X143369591Y-71106085D01*
G37*
G36*
X113757818Y-70075696D02*
G01*
X113871105Y-70110062D01*
X113975512Y-70165869D01*
X114067027Y-70240973D01*
X114142131Y-70332488D01*
X114197938Y-70436895D01*
X114232304Y-70550182D01*
X114241000Y-70638481D01*
X114241000Y-71247519D01*
X114232304Y-71335818D01*
X114197938Y-71449105D01*
X114142131Y-71553512D01*
X114142130Y-71553513D01*
X114067027Y-71645027D01*
X113991923Y-71706662D01*
X113975511Y-71720131D01*
X113871104Y-71775938D01*
X113757817Y-71810304D01*
X113640000Y-71821907D01*
X113522182Y-71810304D01*
X113408895Y-71775938D01*
X113304488Y-71720131D01*
X113290572Y-71708711D01*
X113212973Y-71645027D01*
X113137870Y-71553512D01*
X113137869Y-71553511D01*
X113082062Y-71449104D01*
X113047696Y-71335817D01*
X113039000Y-71247518D01*
X113039000Y-70638481D01*
X113047696Y-70550182D01*
X113082061Y-70436898D01*
X113137871Y-70332486D01*
X113212974Y-70240973D01*
X113304489Y-70165869D01*
X113408896Y-70110062D01*
X113522183Y-70075696D01*
X113640000Y-70064093D01*
X113757818Y-70075696D01*
X113757818Y-70075696D01*
G37*
G36*
X116957818Y-70075696D02*
G01*
X117071105Y-70110062D01*
X117175512Y-70165869D01*
X117267027Y-70240973D01*
X117342131Y-70332488D01*
X117397938Y-70436895D01*
X117432304Y-70550182D01*
X117441000Y-70638481D01*
X117441000Y-71247519D01*
X117432304Y-71335818D01*
X117397938Y-71449105D01*
X117342131Y-71553512D01*
X117342130Y-71553513D01*
X117267027Y-71645027D01*
X117191923Y-71706662D01*
X117175511Y-71720131D01*
X117071104Y-71775938D01*
X116957817Y-71810304D01*
X116840000Y-71821907D01*
X116722182Y-71810304D01*
X116608895Y-71775938D01*
X116504488Y-71720131D01*
X116490572Y-71708711D01*
X116412973Y-71645027D01*
X116337870Y-71553512D01*
X116337869Y-71553511D01*
X116282062Y-71449104D01*
X116247696Y-71335817D01*
X116239000Y-71247518D01*
X116239000Y-70638481D01*
X116247696Y-70550182D01*
X116282061Y-70436898D01*
X116337871Y-70332486D01*
X116412974Y-70240973D01*
X116504489Y-70165869D01*
X116608896Y-70110062D01*
X116722183Y-70075696D01*
X116840000Y-70064093D01*
X116957818Y-70075696D01*
X116957818Y-70075696D01*
G37*
G36*
X115357818Y-70075696D02*
G01*
X115471105Y-70110062D01*
X115575512Y-70165869D01*
X115667027Y-70240973D01*
X115742131Y-70332488D01*
X115797938Y-70436895D01*
X115832304Y-70550182D01*
X115841000Y-70638481D01*
X115841000Y-71247519D01*
X115832304Y-71335818D01*
X115797938Y-71449105D01*
X115742131Y-71553512D01*
X115742130Y-71553513D01*
X115667027Y-71645027D01*
X115591923Y-71706662D01*
X115575511Y-71720131D01*
X115471104Y-71775938D01*
X115357817Y-71810304D01*
X115240000Y-71821907D01*
X115122182Y-71810304D01*
X115008895Y-71775938D01*
X114904488Y-71720131D01*
X114890572Y-71708711D01*
X114812973Y-71645027D01*
X114737870Y-71553512D01*
X114737869Y-71553511D01*
X114682062Y-71449104D01*
X114647696Y-71335817D01*
X114639000Y-71247518D01*
X114639000Y-70638481D01*
X114647696Y-70550182D01*
X114682061Y-70436898D01*
X114737871Y-70332486D01*
X114812974Y-70240973D01*
X114904489Y-70165869D01*
X115008896Y-70110062D01*
X115122183Y-70075696D01*
X115240000Y-70064093D01*
X115357818Y-70075696D01*
X115357818Y-70075696D01*
G37*
G36*
X124479499Y-70471445D02*
G01*
X124516995Y-70482820D01*
X124551554Y-70501292D01*
X124581847Y-70526153D01*
X124606708Y-70556446D01*
X124625180Y-70591005D01*
X124636555Y-70628501D01*
X124641000Y-70673638D01*
X124641000Y-71312362D01*
X124636555Y-71357499D01*
X124625180Y-71394995D01*
X124606708Y-71429554D01*
X124581847Y-71459847D01*
X124551554Y-71484708D01*
X124516995Y-71503180D01*
X124479499Y-71514555D01*
X124434362Y-71519000D01*
X123695638Y-71519000D01*
X123650501Y-71514555D01*
X123613005Y-71503180D01*
X123578446Y-71484708D01*
X123548153Y-71459847D01*
X123523292Y-71429554D01*
X123504820Y-71394995D01*
X123493445Y-71357499D01*
X123489000Y-71312362D01*
X123489000Y-70673638D01*
X123493445Y-70628501D01*
X123504820Y-70591005D01*
X123523292Y-70556446D01*
X123548153Y-70526153D01*
X123578446Y-70501292D01*
X123613005Y-70482820D01*
X123650501Y-70471445D01*
X123695638Y-70467000D01*
X124434362Y-70467000D01*
X124479499Y-70471445D01*
X124479499Y-70471445D01*
G37*
G36*
X122729499Y-70471445D02*
G01*
X122766995Y-70482820D01*
X122801554Y-70501292D01*
X122831847Y-70526153D01*
X122856708Y-70556446D01*
X122875180Y-70591005D01*
X122886555Y-70628501D01*
X122891000Y-70673638D01*
X122891000Y-71312362D01*
X122886555Y-71357499D01*
X122875180Y-71394995D01*
X122856708Y-71429554D01*
X122831847Y-71459847D01*
X122801554Y-71484708D01*
X122766995Y-71503180D01*
X122729499Y-71514555D01*
X122684362Y-71519000D01*
X121945638Y-71519000D01*
X121900501Y-71514555D01*
X121863005Y-71503180D01*
X121828446Y-71484708D01*
X121798153Y-71459847D01*
X121773292Y-71429554D01*
X121754820Y-71394995D01*
X121743445Y-71357499D01*
X121739000Y-71312362D01*
X121739000Y-70673638D01*
X121743445Y-70628501D01*
X121754820Y-70591005D01*
X121773292Y-70556446D01*
X121798153Y-70526153D01*
X121828446Y-70501292D01*
X121863005Y-70482820D01*
X121900501Y-70471445D01*
X121945638Y-70467000D01*
X122684362Y-70467000D01*
X122729499Y-70471445D01*
X122729499Y-70471445D01*
G37*
G36*
X138984928Y-70644764D02*
G01*
X139006009Y-70651160D01*
X139025445Y-70661548D01*
X139042476Y-70675524D01*
X139056452Y-70692555D01*
X139066840Y-70711991D01*
X139073236Y-70733072D01*
X139076000Y-70761140D01*
X139076000Y-71224860D01*
X139073236Y-71252928D01*
X139066840Y-71274009D01*
X139056452Y-71293445D01*
X139042476Y-71310476D01*
X139025445Y-71324452D01*
X139006009Y-71334840D01*
X138984928Y-71341236D01*
X138956860Y-71344000D01*
X137043140Y-71344000D01*
X137015072Y-71341236D01*
X136993991Y-71334840D01*
X136974555Y-71324452D01*
X136957524Y-71310476D01*
X136943548Y-71293445D01*
X136933160Y-71274009D01*
X136926764Y-71252928D01*
X136924000Y-71224860D01*
X136924000Y-70761140D01*
X136926764Y-70733072D01*
X136933160Y-70711991D01*
X136943548Y-70692555D01*
X136957524Y-70675524D01*
X136974555Y-70661548D01*
X136993991Y-70651160D01*
X137015072Y-70644764D01*
X137043140Y-70642000D01*
X138956860Y-70642000D01*
X138984928Y-70644764D01*
X138984928Y-70644764D01*
G37*
G36*
X129684928Y-70644764D02*
G01*
X129706009Y-70651160D01*
X129725445Y-70661548D01*
X129742476Y-70675524D01*
X129756452Y-70692555D01*
X129766840Y-70711991D01*
X129773236Y-70733072D01*
X129776000Y-70761140D01*
X129776000Y-71224860D01*
X129773236Y-71252928D01*
X129766840Y-71274009D01*
X129756452Y-71293445D01*
X129742476Y-71310476D01*
X129725445Y-71324452D01*
X129706009Y-71334840D01*
X129684928Y-71341236D01*
X129656860Y-71344000D01*
X127743140Y-71344000D01*
X127715072Y-71341236D01*
X127693991Y-71334840D01*
X127674555Y-71324452D01*
X127657524Y-71310476D01*
X127643548Y-71293445D01*
X127633160Y-71274009D01*
X127626764Y-71252928D01*
X127624000Y-71224860D01*
X127624000Y-70761140D01*
X127626764Y-70733072D01*
X127633160Y-70711991D01*
X127643548Y-70692555D01*
X127657524Y-70675524D01*
X127674555Y-70661548D01*
X127693991Y-70651160D01*
X127715072Y-70644764D01*
X127743140Y-70642000D01*
X129656860Y-70642000D01*
X129684928Y-70644764D01*
X129684928Y-70644764D01*
G37*
G36*
X108604499Y-69963445D02*
G01*
X108641995Y-69974820D01*
X108676554Y-69993292D01*
X108706847Y-70018153D01*
X108731708Y-70048446D01*
X108750180Y-70083005D01*
X108761555Y-70120501D01*
X108766000Y-70165638D01*
X108766000Y-70804362D01*
X108761555Y-70849499D01*
X108750180Y-70886995D01*
X108731708Y-70921554D01*
X108706847Y-70951847D01*
X108676554Y-70976708D01*
X108641995Y-70995180D01*
X108604499Y-71006555D01*
X108559362Y-71011000D01*
X107820638Y-71011000D01*
X107775501Y-71006555D01*
X107738005Y-70995180D01*
X107703446Y-70976708D01*
X107673153Y-70951847D01*
X107648292Y-70921554D01*
X107629820Y-70886995D01*
X107618445Y-70849499D01*
X107614000Y-70804362D01*
X107614000Y-70165638D01*
X107618445Y-70120501D01*
X107629820Y-70083005D01*
X107648292Y-70048446D01*
X107673153Y-70018153D01*
X107703446Y-69993292D01*
X107738005Y-69974820D01*
X107775501Y-69963445D01*
X107820638Y-69959000D01*
X108559362Y-69959000D01*
X108604499Y-69963445D01*
X108604499Y-69963445D01*
G37*
G36*
X106854499Y-69963445D02*
G01*
X106891995Y-69974820D01*
X106926554Y-69993292D01*
X106956847Y-70018153D01*
X106981708Y-70048446D01*
X107000180Y-70083005D01*
X107011555Y-70120501D01*
X107016000Y-70165638D01*
X107016000Y-70804362D01*
X107011555Y-70849499D01*
X107000180Y-70886995D01*
X106981708Y-70921554D01*
X106956847Y-70951847D01*
X106926554Y-70976708D01*
X106891995Y-70995180D01*
X106854499Y-71006555D01*
X106809362Y-71011000D01*
X106070638Y-71011000D01*
X106025501Y-71006555D01*
X105988005Y-70995180D01*
X105953446Y-70976708D01*
X105923153Y-70951847D01*
X105898292Y-70921554D01*
X105879820Y-70886995D01*
X105868445Y-70849499D01*
X105864000Y-70804362D01*
X105864000Y-70165638D01*
X105868445Y-70120501D01*
X105879820Y-70083005D01*
X105898292Y-70048446D01*
X105923153Y-70018153D01*
X105953446Y-69993292D01*
X105988005Y-69974820D01*
X106025501Y-69963445D01*
X106070638Y-69959000D01*
X106809362Y-69959000D01*
X106854499Y-69963445D01*
X106854499Y-69963445D01*
G37*
G36*
X165279294Y-68821633D02*
G01*
X165451695Y-68873931D01*
X165610583Y-68958858D01*
X165749849Y-69073151D01*
X165864142Y-69212417D01*
X165949069Y-69371305D01*
X166001367Y-69543706D01*
X166019025Y-69723000D01*
X166001367Y-69902294D01*
X165949069Y-70074695D01*
X165864142Y-70233583D01*
X165749849Y-70372849D01*
X165610583Y-70487142D01*
X165451695Y-70572069D01*
X165279294Y-70624367D01*
X165144931Y-70637600D01*
X165055069Y-70637600D01*
X164920706Y-70624367D01*
X164748305Y-70572069D01*
X164589417Y-70487142D01*
X164450151Y-70372849D01*
X164335858Y-70233583D01*
X164250931Y-70074695D01*
X164198633Y-69902294D01*
X164180975Y-69723000D01*
X164198633Y-69543706D01*
X164250931Y-69371305D01*
X164335858Y-69212417D01*
X164450151Y-69073151D01*
X164589417Y-68958858D01*
X164748305Y-68873931D01*
X164920706Y-68821633D01*
X165055069Y-68808400D01*
X165144931Y-68808400D01*
X165279294Y-68821633D01*
X165279294Y-68821633D01*
G37*
G36*
X162739294Y-68821633D02*
G01*
X162911695Y-68873931D01*
X163070583Y-68958858D01*
X163209849Y-69073151D01*
X163324142Y-69212417D01*
X163409069Y-69371305D01*
X163461367Y-69543706D01*
X163479025Y-69723000D01*
X163461367Y-69902294D01*
X163409069Y-70074695D01*
X163324142Y-70233583D01*
X163209849Y-70372849D01*
X163070583Y-70487142D01*
X162911695Y-70572069D01*
X162739294Y-70624367D01*
X162604931Y-70637600D01*
X162515069Y-70637600D01*
X162380706Y-70624367D01*
X162208305Y-70572069D01*
X162049417Y-70487142D01*
X161910151Y-70372849D01*
X161795858Y-70233583D01*
X161710931Y-70074695D01*
X161658633Y-69902294D01*
X161640975Y-69723000D01*
X161658633Y-69543706D01*
X161710931Y-69371305D01*
X161795858Y-69212417D01*
X161910151Y-69073151D01*
X162049417Y-68958858D01*
X162208305Y-68873931D01*
X162380706Y-68821633D01*
X162515069Y-68808400D01*
X162604931Y-68808400D01*
X162739294Y-68821633D01*
X162739294Y-68821633D01*
G37*
G36*
X160934600Y-70637600D02*
G01*
X159105400Y-70637600D01*
X159105400Y-68808400D01*
X160934600Y-68808400D01*
X160934600Y-70637600D01*
X160934600Y-70637600D01*
G37*
G36*
X116157818Y-68185696D02*
G01*
X116271105Y-68220062D01*
X116375512Y-68275869D01*
X116467027Y-68350973D01*
X116542131Y-68442488D01*
X116597938Y-68546895D01*
X116632304Y-68660182D01*
X116641000Y-68748481D01*
X116641000Y-69357519D01*
X116632304Y-69445818D01*
X116597938Y-69559105D01*
X116542131Y-69663512D01*
X116542130Y-69663513D01*
X116467027Y-69755027D01*
X116391923Y-69816662D01*
X116375511Y-69830131D01*
X116271104Y-69885938D01*
X116157817Y-69920304D01*
X116040000Y-69931907D01*
X115922182Y-69920304D01*
X115808895Y-69885938D01*
X115704488Y-69830131D01*
X115690572Y-69818711D01*
X115612973Y-69755027D01*
X115537870Y-69663512D01*
X115537869Y-69663511D01*
X115482062Y-69559104D01*
X115447696Y-69445817D01*
X115439000Y-69357518D01*
X115439000Y-68748481D01*
X115447696Y-68660182D01*
X115482061Y-68546898D01*
X115537871Y-68442486D01*
X115612974Y-68350973D01*
X115704489Y-68275869D01*
X115808896Y-68220062D01*
X115922183Y-68185696D01*
X116040000Y-68174093D01*
X116157818Y-68185696D01*
X116157818Y-68185696D01*
G37*
G36*
X114557818Y-68185696D02*
G01*
X114671105Y-68220062D01*
X114775512Y-68275869D01*
X114867027Y-68350973D01*
X114942131Y-68442488D01*
X114997938Y-68546895D01*
X115032304Y-68660182D01*
X115041000Y-68748481D01*
X115041000Y-69357519D01*
X115032304Y-69445818D01*
X114997938Y-69559105D01*
X114942131Y-69663512D01*
X114942130Y-69663513D01*
X114867027Y-69755027D01*
X114791923Y-69816662D01*
X114775511Y-69830131D01*
X114671104Y-69885938D01*
X114557817Y-69920304D01*
X114440000Y-69931907D01*
X114322182Y-69920304D01*
X114208895Y-69885938D01*
X114104488Y-69830131D01*
X114090572Y-69818711D01*
X114012973Y-69755027D01*
X113937870Y-69663512D01*
X113937869Y-69663511D01*
X113882062Y-69559104D01*
X113847696Y-69445817D01*
X113839000Y-69357518D01*
X113839000Y-68748481D01*
X113847696Y-68660182D01*
X113882061Y-68546898D01*
X113937871Y-68442486D01*
X114012974Y-68350973D01*
X114104489Y-68275869D01*
X114208896Y-68220062D01*
X114322183Y-68185696D01*
X114440000Y-68174093D01*
X114557818Y-68185696D01*
X114557818Y-68185696D01*
G37*
G36*
X106854499Y-68058445D02*
G01*
X106891995Y-68069820D01*
X106926554Y-68088292D01*
X106956847Y-68113153D01*
X106981708Y-68143446D01*
X107000180Y-68178005D01*
X107011555Y-68215501D01*
X107016000Y-68260638D01*
X107016000Y-68899362D01*
X107011555Y-68944499D01*
X107000180Y-68981995D01*
X106981708Y-69016554D01*
X106956847Y-69046847D01*
X106926554Y-69071708D01*
X106891995Y-69090180D01*
X106854499Y-69101555D01*
X106809362Y-69106000D01*
X106070638Y-69106000D01*
X106025501Y-69101555D01*
X105988005Y-69090180D01*
X105953446Y-69071708D01*
X105923153Y-69046847D01*
X105898292Y-69016554D01*
X105879820Y-68981995D01*
X105868445Y-68944499D01*
X105864000Y-68899362D01*
X105864000Y-68260638D01*
X105868445Y-68215501D01*
X105879820Y-68178005D01*
X105898292Y-68143446D01*
X105923153Y-68113153D01*
X105953446Y-68088292D01*
X105988005Y-68069820D01*
X106025501Y-68058445D01*
X106070638Y-68054000D01*
X106809362Y-68054000D01*
X106854499Y-68058445D01*
X106854499Y-68058445D01*
G37*
G36*
X108604499Y-68058445D02*
G01*
X108641995Y-68069820D01*
X108676554Y-68088292D01*
X108706847Y-68113153D01*
X108731708Y-68143446D01*
X108750180Y-68178005D01*
X108761555Y-68215501D01*
X108766000Y-68260638D01*
X108766000Y-68899362D01*
X108761555Y-68944499D01*
X108750180Y-68981995D01*
X108731708Y-69016554D01*
X108706847Y-69046847D01*
X108676554Y-69071708D01*
X108641995Y-69090180D01*
X108604499Y-69101555D01*
X108559362Y-69106000D01*
X107820638Y-69106000D01*
X107775501Y-69101555D01*
X107738005Y-69090180D01*
X107703446Y-69071708D01*
X107673153Y-69046847D01*
X107648292Y-69016554D01*
X107629820Y-68981995D01*
X107618445Y-68944499D01*
X107614000Y-68899362D01*
X107614000Y-68260638D01*
X107618445Y-68215501D01*
X107629820Y-68178005D01*
X107648292Y-68143446D01*
X107673153Y-68113153D01*
X107703446Y-68088292D01*
X107738005Y-68069820D01*
X107775501Y-68058445D01*
X107820638Y-68054000D01*
X108559362Y-68054000D01*
X108604499Y-68058445D01*
X108604499Y-68058445D01*
G37*
G36*
X177744098Y-63547033D02*
G01*
X178208350Y-63739332D01*
X178208352Y-63739333D01*
X178626168Y-64018509D01*
X178981491Y-64373832D01*
X179153682Y-64631534D01*
X179260668Y-64791650D01*
X179452967Y-65255902D01*
X179551000Y-65748747D01*
X179551000Y-66251253D01*
X179452967Y-66744098D01*
X179260668Y-67208350D01*
X179260667Y-67208352D01*
X178981491Y-67626168D01*
X178626168Y-67981491D01*
X178208352Y-68260667D01*
X178208351Y-68260668D01*
X178208350Y-68260668D01*
X177744098Y-68452967D01*
X177251253Y-68551000D01*
X176748747Y-68551000D01*
X176255902Y-68452967D01*
X175791650Y-68260668D01*
X175791649Y-68260668D01*
X175791648Y-68260667D01*
X175373832Y-67981491D01*
X175018509Y-67626168D01*
X174739333Y-67208352D01*
X174739332Y-67208350D01*
X174547033Y-66744098D01*
X174449000Y-66251253D01*
X174449000Y-65748747D01*
X174547033Y-65255902D01*
X174739332Y-64791650D01*
X174846318Y-64631534D01*
X175018509Y-64373832D01*
X175373832Y-64018509D01*
X175791648Y-63739333D01*
X175791650Y-63739332D01*
X176255902Y-63547033D01*
X176748747Y-63449000D01*
X177251253Y-63449000D01*
X177744098Y-63547033D01*
X177744098Y-63547033D01*
G37*
G36*
X92744098Y-63547033D02*
G01*
X93208350Y-63739332D01*
X93208352Y-63739333D01*
X93626168Y-64018509D01*
X93981491Y-64373832D01*
X94153682Y-64631534D01*
X94260668Y-64791650D01*
X94452967Y-65255902D01*
X94551000Y-65748747D01*
X94551000Y-66251253D01*
X94452967Y-66744098D01*
X94260668Y-67208350D01*
X94260667Y-67208352D01*
X93981491Y-67626168D01*
X93626168Y-67981491D01*
X93208352Y-68260667D01*
X93208351Y-68260668D01*
X93208350Y-68260668D01*
X92744098Y-68452967D01*
X92251253Y-68551000D01*
X91748747Y-68551000D01*
X91255902Y-68452967D01*
X90791650Y-68260668D01*
X90791649Y-68260668D01*
X90791648Y-68260667D01*
X90373832Y-67981491D01*
X90018509Y-67626168D01*
X89739333Y-67208352D01*
X89739332Y-67208350D01*
X89547033Y-66744098D01*
X89449000Y-66251253D01*
X89449000Y-65748747D01*
X89547033Y-65255902D01*
X89739332Y-64791650D01*
X89846318Y-64631534D01*
X90018509Y-64373832D01*
X90373832Y-64018509D01*
X90791648Y-63739333D01*
X90791650Y-63739332D01*
X91255902Y-63547033D01*
X91748747Y-63449000D01*
X92251253Y-63449000D01*
X92744098Y-63547033D01*
X92744098Y-63547033D01*
G37*
G36*
X121649499Y-66978445D02*
G01*
X121686995Y-66989820D01*
X121721554Y-67008292D01*
X121751847Y-67033153D01*
X121776708Y-67063446D01*
X121795180Y-67098005D01*
X121806555Y-67135501D01*
X121811000Y-67180638D01*
X121811000Y-67919362D01*
X121806555Y-67964499D01*
X121795180Y-68001995D01*
X121776708Y-68036554D01*
X121751847Y-68066847D01*
X121721554Y-68091708D01*
X121686995Y-68110180D01*
X121649499Y-68121555D01*
X121604362Y-68126000D01*
X120965638Y-68126000D01*
X120920501Y-68121555D01*
X120883005Y-68110180D01*
X120848446Y-68091708D01*
X120818153Y-68066847D01*
X120793292Y-68036554D01*
X120774820Y-68001995D01*
X120763445Y-67964499D01*
X120759000Y-67919362D01*
X120759000Y-67180638D01*
X120763445Y-67135501D01*
X120774820Y-67098005D01*
X120793292Y-67063446D01*
X120818153Y-67033153D01*
X120848446Y-67008292D01*
X120883005Y-66989820D01*
X120920501Y-66978445D01*
X120965638Y-66974000D01*
X121604362Y-66974000D01*
X121649499Y-66978445D01*
X121649499Y-66978445D01*
G37*
G36*
X123554499Y-66978445D02*
G01*
X123591995Y-66989820D01*
X123626554Y-67008292D01*
X123656847Y-67033153D01*
X123681708Y-67063446D01*
X123700180Y-67098005D01*
X123711555Y-67135501D01*
X123716000Y-67180638D01*
X123716000Y-67919362D01*
X123711555Y-67964499D01*
X123700180Y-68001995D01*
X123681708Y-68036554D01*
X123656847Y-68066847D01*
X123626554Y-68091708D01*
X123591995Y-68110180D01*
X123554499Y-68121555D01*
X123509362Y-68126000D01*
X122870638Y-68126000D01*
X122825501Y-68121555D01*
X122788005Y-68110180D01*
X122753446Y-68091708D01*
X122723153Y-68066847D01*
X122698292Y-68036554D01*
X122679820Y-68001995D01*
X122668445Y-67964499D01*
X122664000Y-67919362D01*
X122664000Y-67180638D01*
X122668445Y-67135501D01*
X122679820Y-67098005D01*
X122698292Y-67063446D01*
X122723153Y-67033153D01*
X122753446Y-67008292D01*
X122788005Y-66989820D01*
X122825501Y-66978445D01*
X122870638Y-66974000D01*
X123509362Y-66974000D01*
X123554499Y-66978445D01*
X123554499Y-66978445D01*
G37*
G36*
X162739294Y-66281633D02*
G01*
X162911695Y-66333931D01*
X163070583Y-66418858D01*
X163209849Y-66533151D01*
X163324142Y-66672417D01*
X163409069Y-66831305D01*
X163461367Y-67003706D01*
X163479025Y-67183000D01*
X163461367Y-67362294D01*
X163409069Y-67534695D01*
X163324142Y-67693583D01*
X163209849Y-67832849D01*
X163070583Y-67947142D01*
X162911695Y-68032069D01*
X162739294Y-68084367D01*
X162604931Y-68097600D01*
X162515069Y-68097600D01*
X162380706Y-68084367D01*
X162208305Y-68032069D01*
X162049417Y-67947142D01*
X161910151Y-67832849D01*
X161795858Y-67693583D01*
X161710931Y-67534695D01*
X161658633Y-67362294D01*
X161640975Y-67183000D01*
X161658633Y-67003706D01*
X161710931Y-66831305D01*
X161795858Y-66672417D01*
X161910151Y-66533151D01*
X162049417Y-66418858D01*
X162208305Y-66333931D01*
X162380706Y-66281633D01*
X162515069Y-66268400D01*
X162604931Y-66268400D01*
X162739294Y-66281633D01*
X162739294Y-66281633D01*
G37*
G36*
X160199294Y-66281633D02*
G01*
X160371695Y-66333931D01*
X160530583Y-66418858D01*
X160669849Y-66533151D01*
X160784142Y-66672417D01*
X160869069Y-66831305D01*
X160921367Y-67003706D01*
X160939025Y-67183000D01*
X160921367Y-67362294D01*
X160869069Y-67534695D01*
X160784142Y-67693583D01*
X160669849Y-67832849D01*
X160530583Y-67947142D01*
X160371695Y-68032069D01*
X160199294Y-68084367D01*
X160064931Y-68097600D01*
X159975069Y-68097600D01*
X159840706Y-68084367D01*
X159668305Y-68032069D01*
X159509417Y-67947142D01*
X159370151Y-67832849D01*
X159255858Y-67693583D01*
X159170931Y-67534695D01*
X159118633Y-67362294D01*
X159100975Y-67183000D01*
X159118633Y-67003706D01*
X159170931Y-66831305D01*
X159255858Y-66672417D01*
X159370151Y-66533151D01*
X159509417Y-66418858D01*
X159668305Y-66333931D01*
X159840706Y-66281633D01*
X159975069Y-66268400D01*
X160064931Y-66268400D01*
X160199294Y-66281633D01*
X160199294Y-66281633D01*
G37*
G36*
X165279294Y-66281633D02*
G01*
X165451695Y-66333931D01*
X165610583Y-66418858D01*
X165749849Y-66533151D01*
X165864142Y-66672417D01*
X165949069Y-66831305D01*
X166001367Y-67003706D01*
X166019025Y-67183000D01*
X166001367Y-67362294D01*
X165949069Y-67534695D01*
X165864142Y-67693583D01*
X165749849Y-67832849D01*
X165610583Y-67947142D01*
X165451695Y-68032069D01*
X165279294Y-68084367D01*
X165144931Y-68097600D01*
X165055069Y-68097600D01*
X164920706Y-68084367D01*
X164748305Y-68032069D01*
X164589417Y-67947142D01*
X164450151Y-67832849D01*
X164335858Y-67693583D01*
X164250931Y-67534695D01*
X164198633Y-67362294D01*
X164180975Y-67183000D01*
X164198633Y-67003706D01*
X164250931Y-66831305D01*
X164335858Y-66672417D01*
X164450151Y-66533151D01*
X164589417Y-66418858D01*
X164748305Y-66333931D01*
X164920706Y-66281633D01*
X165055069Y-66268400D01*
X165144931Y-66268400D01*
X165279294Y-66281633D01*
X165279294Y-66281633D01*
G37*
G36*
X142671000Y-67599000D02*
G01*
X136569000Y-67599000D01*
X136569000Y-65497000D01*
X142671000Y-65497000D01*
X142671000Y-67599000D01*
X142671000Y-67599000D01*
G37*
G36*
X132671000Y-67599000D02*
G01*
X126569000Y-67599000D01*
X126569000Y-65497000D01*
X132671000Y-65497000D01*
X132671000Y-67599000D01*
X132671000Y-67599000D01*
G37*
G36*
X111766627Y-64090037D02*
G01*
X111936466Y-64141557D01*
X112092991Y-64225222D01*
X112128729Y-64254552D01*
X112230186Y-64337814D01*
X112313448Y-64439271D01*
X112342778Y-64475009D01*
X112426443Y-64631534D01*
X112477963Y-64801373D01*
X112491000Y-64933742D01*
X112491000Y-66022258D01*
X112477963Y-66154627D01*
X112426443Y-66324466D01*
X112342778Y-66480991D01*
X112313448Y-66516729D01*
X112230186Y-66618186D01*
X112092989Y-66730779D01*
X111936467Y-66814442D01*
X111936465Y-66814443D01*
X111766626Y-66865963D01*
X111590000Y-66883359D01*
X111413373Y-66865963D01*
X111243534Y-66814443D01*
X111087009Y-66730778D01*
X111015896Y-66672417D01*
X110949814Y-66618186D01*
X110837221Y-66480989D01*
X110753558Y-66324467D01*
X110753557Y-66324465D01*
X110702037Y-66154626D01*
X110689000Y-66022257D01*
X110689001Y-64933742D01*
X110702038Y-64801373D01*
X110753558Y-64631534D01*
X110837223Y-64475009D01*
X110866553Y-64439271D01*
X110949815Y-64337814D01*
X111051272Y-64254552D01*
X111087010Y-64225222D01*
X111243535Y-64141557D01*
X111413374Y-64090037D01*
X111590000Y-64072641D01*
X111766627Y-64090037D01*
X111766627Y-64090037D01*
G37*
G36*
X119066627Y-64090037D02*
G01*
X119236466Y-64141557D01*
X119392991Y-64225222D01*
X119428729Y-64254552D01*
X119530186Y-64337814D01*
X119613448Y-64439271D01*
X119642778Y-64475009D01*
X119726443Y-64631534D01*
X119777963Y-64801373D01*
X119791000Y-64933742D01*
X119791000Y-66022258D01*
X119777963Y-66154627D01*
X119726443Y-66324466D01*
X119642778Y-66480991D01*
X119613448Y-66516729D01*
X119530186Y-66618186D01*
X119392989Y-66730779D01*
X119236467Y-66814442D01*
X119236465Y-66814443D01*
X119066626Y-66865963D01*
X118890000Y-66883359D01*
X118713373Y-66865963D01*
X118543534Y-66814443D01*
X118387009Y-66730778D01*
X118315896Y-66672417D01*
X118249814Y-66618186D01*
X118137221Y-66480989D01*
X118053558Y-66324467D01*
X118053557Y-66324465D01*
X118002037Y-66154626D01*
X117989000Y-66022257D01*
X117989001Y-64933742D01*
X118002038Y-64801373D01*
X118053558Y-64631534D01*
X118137223Y-64475009D01*
X118166553Y-64439271D01*
X118249815Y-64337814D01*
X118351272Y-64254552D01*
X118387010Y-64225222D01*
X118543535Y-64141557D01*
X118713374Y-64090037D01*
X118890000Y-64072641D01*
X119066627Y-64090037D01*
X119066627Y-64090037D01*
G37*
G36*
X121649499Y-65228445D02*
G01*
X121686995Y-65239820D01*
X121721554Y-65258292D01*
X121751847Y-65283153D01*
X121776708Y-65313446D01*
X121795180Y-65348005D01*
X121806555Y-65385501D01*
X121811000Y-65430638D01*
X121811000Y-66169362D01*
X121806555Y-66214499D01*
X121795180Y-66251995D01*
X121776708Y-66286554D01*
X121751847Y-66316847D01*
X121721554Y-66341708D01*
X121686995Y-66360180D01*
X121649499Y-66371555D01*
X121604362Y-66376000D01*
X120965638Y-66376000D01*
X120920501Y-66371555D01*
X120883005Y-66360180D01*
X120848446Y-66341708D01*
X120818153Y-66316847D01*
X120793292Y-66286554D01*
X120774820Y-66251995D01*
X120763445Y-66214499D01*
X120759000Y-66169362D01*
X120759000Y-65430638D01*
X120763445Y-65385501D01*
X120774820Y-65348005D01*
X120793292Y-65313446D01*
X120818153Y-65283153D01*
X120848446Y-65258292D01*
X120883005Y-65239820D01*
X120920501Y-65228445D01*
X120965638Y-65224000D01*
X121604362Y-65224000D01*
X121649499Y-65228445D01*
X121649499Y-65228445D01*
G37*
G36*
X123554499Y-65228445D02*
G01*
X123591995Y-65239820D01*
X123626554Y-65258292D01*
X123656847Y-65283153D01*
X123681708Y-65313446D01*
X123700180Y-65348005D01*
X123711555Y-65385501D01*
X123716000Y-65430638D01*
X123716000Y-66169362D01*
X123711555Y-66214499D01*
X123700180Y-66251995D01*
X123681708Y-66286554D01*
X123656847Y-66316847D01*
X123626554Y-66341708D01*
X123591995Y-66360180D01*
X123554499Y-66371555D01*
X123509362Y-66376000D01*
X122870638Y-66376000D01*
X122825501Y-66371555D01*
X122788005Y-66360180D01*
X122753446Y-66341708D01*
X122723153Y-66316847D01*
X122698292Y-66286554D01*
X122679820Y-66251995D01*
X122668445Y-66214499D01*
X122664000Y-66169362D01*
X122664000Y-65430638D01*
X122668445Y-65385501D01*
X122679820Y-65348005D01*
X122698292Y-65313446D01*
X122723153Y-65283153D01*
X122753446Y-65258292D01*
X122788005Y-65239820D01*
X122825501Y-65228445D01*
X122870638Y-65224000D01*
X123509362Y-65224000D01*
X123554499Y-65228445D01*
X123554499Y-65228445D01*
G37*
M02*
