G04 #@! TF.GenerationSoftware,KiCad,Pcbnew,(5.1.2-1)-1*
G04 #@! TF.CreationDate,2019-08-25T18:33:29+09:00*
G04 #@! TF.ProjectId,mmk3,6d6d6b33-2e6b-4696-9361-645f70636258,rev?*
G04 #@! TF.SameCoordinates,Original*
G04 #@! TF.FileFunction,Copper,L2,Bot*
G04 #@! TF.FilePolarity,Positive*
%FSLAX46Y46*%
G04 Gerber Fmt 4.6, Leading zero omitted, Abs format (unit mm)*
G04 Created by KiCad (PCBNEW (5.1.2-1)-1) date 2019-08-25 18:33:29*
%MOMM*%
%LPD*%
G04 APERTURE LIST*
%ADD10C,5.000000*%
%ADD11O,1.100000X1.650000*%
%ADD12O,1.700000X2.700000*%
%ADD13C,4.000000*%
%ADD14C,1.800000*%
%ADD15R,1.727200X1.727200*%
%ADD16O,1.727200X1.727200*%
%ADD17C,0.800000*%
%ADD18C,0.500000*%
%ADD19C,0.250000*%
%ADD20C,0.254000*%
G04 APERTURE END LIST*
D10*
X177000000Y-115000000D03*
X177000000Y-66000000D03*
X92000000Y-66000000D03*
D11*
X116840000Y-70943000D03*
X115240000Y-70943000D03*
X113640000Y-70943000D03*
X114440000Y-69053000D03*
X116040000Y-69053000D03*
D12*
X111590000Y-65478000D03*
X118890000Y-65478000D03*
D13*
X101224000Y-93360000D03*
X110024000Y-93360000D03*
D14*
X103124000Y-86360000D03*
X105624000Y-86360000D03*
X108124000Y-86360000D03*
D10*
X92000000Y-115000000D03*
D15*
X160020000Y-69723000D03*
D16*
X160020000Y-67183000D03*
X162560000Y-69723000D03*
X162560000Y-67183000D03*
X165100000Y-69723000D03*
X165100000Y-67183000D03*
D14*
X165020000Y-86360000D03*
X162520000Y-86360000D03*
X160020000Y-86360000D03*
D13*
X166920000Y-93360000D03*
X158120000Y-93360000D03*
X130180000Y-93360000D03*
X138980000Y-93360000D03*
D14*
X132080000Y-86360000D03*
X134580000Y-86360000D03*
X137080000Y-86360000D03*
D17*
X127000000Y-82423000D03*
X108585000Y-76073000D03*
X111760000Y-72898000D03*
X120650000Y-82423000D03*
X104775000Y-82550000D03*
X144272000Y-71628000D03*
X120650000Y-73660000D03*
X141605000Y-70358000D03*
X125095000Y-82423000D03*
X108585000Y-74803000D03*
X104775000Y-74930000D03*
X120650001Y-70667999D03*
X140716000Y-81280000D03*
X140716000Y-89210021D03*
X141732000Y-81280000D03*
X141732000Y-89205359D03*
X139700000Y-81280000D03*
X139695340Y-89205361D03*
D18*
X141295000Y-70668000D02*
X141605000Y-70358000D01*
X116840000Y-70668000D02*
X120960000Y-70668000D01*
X141295000Y-70668000D02*
X140645000Y-70668000D01*
X155265000Y-70668000D02*
X141295000Y-70668000D01*
X158750000Y-67183000D02*
X155265000Y-70668000D01*
X160020000Y-67183000D02*
X158750000Y-67183000D01*
X103124000Y-86360000D02*
X103124000Y-76581000D01*
X103124000Y-76581000D02*
X104775000Y-74930000D01*
X130627000Y-70668000D02*
X140645000Y-70668000D01*
X160020000Y-75423000D02*
X155265000Y-70668000D01*
X160020000Y-86360000D02*
X160020000Y-75423000D01*
X125095000Y-71755000D02*
X124008000Y-70668000D01*
X125095000Y-82423000D02*
X125095000Y-71755000D01*
X124008000Y-70668000D02*
X130627000Y-70668000D01*
X120960000Y-70668000D02*
X124008000Y-70668000D01*
X131127500Y-70668000D02*
X130627000Y-70668000D01*
X132080000Y-71620500D02*
X131127500Y-70668000D01*
X132080000Y-86360000D02*
X132080000Y-71620500D01*
X109150685Y-74803000D02*
X108585000Y-74803000D01*
X115697000Y-74803000D02*
X109150685Y-74803000D01*
X116840000Y-73660000D02*
X115697000Y-74803000D01*
X116840000Y-70668000D02*
X116840000Y-73660000D01*
D19*
X140716000Y-81280000D02*
X140716000Y-89210021D01*
X141732000Y-81280000D02*
X141732000Y-89205359D01*
X139700000Y-89200701D02*
X139695340Y-89205361D01*
X139700000Y-81280000D02*
X139700000Y-89200701D01*
D20*
G36*
X110760987Y-63737294D02*
G01*
X110534867Y-63922866D01*
X110349294Y-64148986D01*
X110211401Y-64406966D01*
X110126487Y-64686889D01*
X110105000Y-64905050D01*
X110105000Y-66050949D01*
X110126487Y-66269110D01*
X110211401Y-66549033D01*
X110349294Y-66807013D01*
X110534866Y-67033134D01*
X110760986Y-67218706D01*
X111018966Y-67356599D01*
X111298889Y-67441513D01*
X111590000Y-67470185D01*
X111881110Y-67441513D01*
X112161033Y-67356599D01*
X112419013Y-67218706D01*
X112645134Y-67033134D01*
X112830706Y-66807014D01*
X112968599Y-66549034D01*
X113053513Y-66269111D01*
X113075000Y-66050950D01*
X113075000Y-64905050D01*
X113053513Y-64686889D01*
X112968599Y-64406966D01*
X112830706Y-64148986D01*
X112645134Y-63922866D01*
X112419014Y-63737294D01*
X112274407Y-63660000D01*
X118205594Y-63660000D01*
X118060987Y-63737294D01*
X117834867Y-63922866D01*
X117649294Y-64148986D01*
X117511401Y-64406966D01*
X117426487Y-64686889D01*
X117405000Y-64905050D01*
X117405000Y-66050949D01*
X117426487Y-66269110D01*
X117511401Y-66549033D01*
X117649294Y-66807013D01*
X117834866Y-67033134D01*
X118060986Y-67218706D01*
X118318966Y-67356599D01*
X118598889Y-67441513D01*
X118890000Y-67470185D01*
X119181110Y-67441513D01*
X119461033Y-67356599D01*
X119719013Y-67218706D01*
X119945134Y-67033134D01*
X120130706Y-66807014D01*
X120268599Y-66549034D01*
X120353513Y-66269111D01*
X120375000Y-66050950D01*
X120375000Y-64905050D01*
X120353513Y-64686889D01*
X120268599Y-64406966D01*
X120130706Y-64148986D01*
X119945134Y-63922866D01*
X119719014Y-63737294D01*
X119574407Y-63660000D01*
X174906440Y-63660000D01*
X174564886Y-64001554D01*
X174221799Y-64515021D01*
X173985476Y-65085554D01*
X173865000Y-65691229D01*
X173865000Y-66308771D01*
X173985476Y-66914446D01*
X174221799Y-67484979D01*
X174564886Y-67998446D01*
X175001554Y-68435114D01*
X175515021Y-68778201D01*
X176085554Y-69014524D01*
X176691229Y-69135000D01*
X177308771Y-69135000D01*
X177914446Y-69014524D01*
X178484979Y-68778201D01*
X178998446Y-68435114D01*
X179340000Y-68093560D01*
X179340001Y-112906441D01*
X178998446Y-112564886D01*
X178484979Y-112221799D01*
X177914446Y-111985476D01*
X177308771Y-111865000D01*
X176691229Y-111865000D01*
X176085554Y-111985476D01*
X175515021Y-112221799D01*
X175001554Y-112564886D01*
X174564886Y-113001554D01*
X174221799Y-113515021D01*
X173985476Y-114085554D01*
X173865000Y-114691229D01*
X173865000Y-115308771D01*
X173985476Y-115914446D01*
X174221799Y-116484979D01*
X174564886Y-116998446D01*
X174906440Y-117340000D01*
X94093560Y-117340000D01*
X94435114Y-116998446D01*
X94778201Y-116484979D01*
X95014524Y-115914446D01*
X95135000Y-115308771D01*
X95135000Y-114691229D01*
X95014524Y-114085554D01*
X94778201Y-113515021D01*
X94435114Y-113001554D01*
X93998446Y-112564886D01*
X93484979Y-112221799D01*
X92914446Y-111985476D01*
X92308771Y-111865000D01*
X91691229Y-111865000D01*
X91085554Y-111985476D01*
X90515021Y-112221799D01*
X90001554Y-112564886D01*
X89660000Y-112906440D01*
X89660000Y-93100475D01*
X98589000Y-93100475D01*
X98589000Y-93619525D01*
X98690261Y-94128601D01*
X98888893Y-94608141D01*
X99177262Y-95039715D01*
X99544285Y-95406738D01*
X99975859Y-95695107D01*
X100455399Y-95893739D01*
X100964475Y-95995000D01*
X101483525Y-95995000D01*
X101992601Y-95893739D01*
X102472141Y-95695107D01*
X102903715Y-95406738D01*
X103270738Y-95039715D01*
X103559107Y-94608141D01*
X103757739Y-94128601D01*
X103859000Y-93619525D01*
X103859000Y-93100475D01*
X107389000Y-93100475D01*
X107389000Y-93619525D01*
X107490261Y-94128601D01*
X107688893Y-94608141D01*
X107977262Y-95039715D01*
X108344285Y-95406738D01*
X108775859Y-95695107D01*
X109255399Y-95893739D01*
X109764475Y-95995000D01*
X110283525Y-95995000D01*
X110792601Y-95893739D01*
X111272141Y-95695107D01*
X111703715Y-95406738D01*
X112070738Y-95039715D01*
X112359107Y-94608141D01*
X112557739Y-94128601D01*
X112659000Y-93619525D01*
X112659000Y-93100475D01*
X127545000Y-93100475D01*
X127545000Y-93619525D01*
X127646261Y-94128601D01*
X127844893Y-94608141D01*
X128133262Y-95039715D01*
X128500285Y-95406738D01*
X128931859Y-95695107D01*
X129411399Y-95893739D01*
X129920475Y-95995000D01*
X130439525Y-95995000D01*
X130948601Y-95893739D01*
X131428141Y-95695107D01*
X131859715Y-95406738D01*
X132226738Y-95039715D01*
X132515107Y-94608141D01*
X132713739Y-94128601D01*
X132815000Y-93619525D01*
X132815000Y-93100475D01*
X136345000Y-93100475D01*
X136345000Y-93619525D01*
X136446261Y-94128601D01*
X136644893Y-94608141D01*
X136933262Y-95039715D01*
X137300285Y-95406738D01*
X137731859Y-95695107D01*
X138211399Y-95893739D01*
X138720475Y-95995000D01*
X139239525Y-95995000D01*
X139748601Y-95893739D01*
X140228141Y-95695107D01*
X140659715Y-95406738D01*
X141026738Y-95039715D01*
X141315107Y-94608141D01*
X141513739Y-94128601D01*
X141615000Y-93619525D01*
X141615000Y-93100475D01*
X155485000Y-93100475D01*
X155485000Y-93619525D01*
X155586261Y-94128601D01*
X155784893Y-94608141D01*
X156073262Y-95039715D01*
X156440285Y-95406738D01*
X156871859Y-95695107D01*
X157351399Y-95893739D01*
X157860475Y-95995000D01*
X158379525Y-95995000D01*
X158888601Y-95893739D01*
X159368141Y-95695107D01*
X159799715Y-95406738D01*
X160166738Y-95039715D01*
X160455107Y-94608141D01*
X160653739Y-94128601D01*
X160755000Y-93619525D01*
X160755000Y-93100475D01*
X164285000Y-93100475D01*
X164285000Y-93619525D01*
X164386261Y-94128601D01*
X164584893Y-94608141D01*
X164873262Y-95039715D01*
X165240285Y-95406738D01*
X165671859Y-95695107D01*
X166151399Y-95893739D01*
X166660475Y-95995000D01*
X167179525Y-95995000D01*
X167688601Y-95893739D01*
X168168141Y-95695107D01*
X168599715Y-95406738D01*
X168966738Y-95039715D01*
X169255107Y-94608141D01*
X169453739Y-94128601D01*
X169555000Y-93619525D01*
X169555000Y-93100475D01*
X169453739Y-92591399D01*
X169255107Y-92111859D01*
X168966738Y-91680285D01*
X168599715Y-91313262D01*
X168168141Y-91024893D01*
X167688601Y-90826261D01*
X167179525Y-90725000D01*
X166660475Y-90725000D01*
X166151399Y-90826261D01*
X165671859Y-91024893D01*
X165240285Y-91313262D01*
X164873262Y-91680285D01*
X164584893Y-92111859D01*
X164386261Y-92591399D01*
X164285000Y-93100475D01*
X160755000Y-93100475D01*
X160653739Y-92591399D01*
X160455107Y-92111859D01*
X160166738Y-91680285D01*
X159799715Y-91313262D01*
X159368141Y-91024893D01*
X158888601Y-90826261D01*
X158379525Y-90725000D01*
X157860475Y-90725000D01*
X157351399Y-90826261D01*
X156871859Y-91024893D01*
X156440285Y-91313262D01*
X156073262Y-91680285D01*
X155784893Y-92111859D01*
X155586261Y-92591399D01*
X155485000Y-93100475D01*
X141615000Y-93100475D01*
X141513739Y-92591399D01*
X141315107Y-92111859D01*
X141026738Y-91680285D01*
X140659715Y-91313262D01*
X140228141Y-91024893D01*
X139748601Y-90826261D01*
X139239525Y-90725000D01*
X138720475Y-90725000D01*
X138211399Y-90826261D01*
X137731859Y-91024893D01*
X137300285Y-91313262D01*
X136933262Y-91680285D01*
X136644893Y-92111859D01*
X136446261Y-92591399D01*
X136345000Y-93100475D01*
X132815000Y-93100475D01*
X132713739Y-92591399D01*
X132515107Y-92111859D01*
X132226738Y-91680285D01*
X131859715Y-91313262D01*
X131428141Y-91024893D01*
X130948601Y-90826261D01*
X130439525Y-90725000D01*
X129920475Y-90725000D01*
X129411399Y-90826261D01*
X128931859Y-91024893D01*
X128500285Y-91313262D01*
X128133262Y-91680285D01*
X127844893Y-92111859D01*
X127646261Y-92591399D01*
X127545000Y-93100475D01*
X112659000Y-93100475D01*
X112557739Y-92591399D01*
X112359107Y-92111859D01*
X112070738Y-91680285D01*
X111703715Y-91313262D01*
X111272141Y-91024893D01*
X110792601Y-90826261D01*
X110283525Y-90725000D01*
X109764475Y-90725000D01*
X109255399Y-90826261D01*
X108775859Y-91024893D01*
X108344285Y-91313262D01*
X107977262Y-91680285D01*
X107688893Y-92111859D01*
X107490261Y-92591399D01*
X107389000Y-93100475D01*
X103859000Y-93100475D01*
X103757739Y-92591399D01*
X103559107Y-92111859D01*
X103270738Y-91680285D01*
X102903715Y-91313262D01*
X102472141Y-91024893D01*
X101992601Y-90826261D01*
X101483525Y-90725000D01*
X100964475Y-90725000D01*
X100455399Y-90826261D01*
X99975859Y-91024893D01*
X99544285Y-91313262D01*
X99177262Y-91680285D01*
X98888893Y-92111859D01*
X98690261Y-92591399D01*
X98589000Y-93100475D01*
X89660000Y-93100475D01*
X89660000Y-89103422D01*
X138660340Y-89103422D01*
X138660340Y-89307300D01*
X138700114Y-89507259D01*
X138778135Y-89695617D01*
X138891403Y-89865135D01*
X139035566Y-90009298D01*
X139205084Y-90122566D01*
X139393442Y-90200587D01*
X139593401Y-90240361D01*
X139797279Y-90240361D01*
X139997238Y-90200587D01*
X140185596Y-90122566D01*
X140202183Y-90111483D01*
X140225744Y-90127226D01*
X140414102Y-90205247D01*
X140614061Y-90245021D01*
X140817939Y-90245021D01*
X141017898Y-90205247D01*
X141206256Y-90127226D01*
X141227489Y-90113039D01*
X141241744Y-90122564D01*
X141430102Y-90200585D01*
X141630061Y-90240359D01*
X141833939Y-90240359D01*
X142033898Y-90200585D01*
X142222256Y-90122564D01*
X142391774Y-90009296D01*
X142535937Y-89865133D01*
X142649205Y-89695615D01*
X142727226Y-89507257D01*
X142767000Y-89307298D01*
X142767000Y-89103420D01*
X142727226Y-88903461D01*
X142649205Y-88715103D01*
X142535937Y-88545585D01*
X142492000Y-88501648D01*
X142492000Y-81983711D01*
X142535937Y-81939774D01*
X142649205Y-81770256D01*
X142727226Y-81581898D01*
X142767000Y-81381939D01*
X142767000Y-81178061D01*
X142727226Y-80978102D01*
X142649205Y-80789744D01*
X142535937Y-80620226D01*
X142391774Y-80476063D01*
X142222256Y-80362795D01*
X142033898Y-80284774D01*
X141833939Y-80245000D01*
X141630061Y-80245000D01*
X141430102Y-80284774D01*
X141241744Y-80362795D01*
X141224000Y-80374651D01*
X141206256Y-80362795D01*
X141017898Y-80284774D01*
X140817939Y-80245000D01*
X140614061Y-80245000D01*
X140414102Y-80284774D01*
X140225744Y-80362795D01*
X140208000Y-80374651D01*
X140190256Y-80362795D01*
X140001898Y-80284774D01*
X139801939Y-80245000D01*
X139598061Y-80245000D01*
X139398102Y-80284774D01*
X139209744Y-80362795D01*
X139040226Y-80476063D01*
X138896063Y-80620226D01*
X138782795Y-80789744D01*
X138704774Y-80978102D01*
X138665000Y-81178061D01*
X138665000Y-81381939D01*
X138704774Y-81581898D01*
X138782795Y-81770256D01*
X138896063Y-81939774D01*
X138940000Y-81983711D01*
X138940001Y-88496989D01*
X138891403Y-88545587D01*
X138778135Y-88715105D01*
X138700114Y-88903463D01*
X138660340Y-89103422D01*
X89660000Y-89103422D01*
X89660000Y-86208816D01*
X101589000Y-86208816D01*
X101589000Y-86511184D01*
X101647989Y-86807743D01*
X101763701Y-87087095D01*
X101931688Y-87338505D01*
X102145495Y-87552312D01*
X102396905Y-87720299D01*
X102676257Y-87836011D01*
X102972816Y-87895000D01*
X103275184Y-87895000D01*
X103571743Y-87836011D01*
X103851095Y-87720299D01*
X104102505Y-87552312D01*
X104316312Y-87338505D01*
X104374000Y-87252169D01*
X104431688Y-87338505D01*
X104645495Y-87552312D01*
X104896905Y-87720299D01*
X105176257Y-87836011D01*
X105472816Y-87895000D01*
X105775184Y-87895000D01*
X106071743Y-87836011D01*
X106351095Y-87720299D01*
X106602505Y-87552312D01*
X106730737Y-87424080D01*
X107239525Y-87424080D01*
X107323208Y-87678261D01*
X107595775Y-87809158D01*
X107888642Y-87884365D01*
X108190553Y-87900991D01*
X108489907Y-87858397D01*
X108775199Y-87758222D01*
X108924792Y-87678261D01*
X109008475Y-87424080D01*
X108124000Y-86539605D01*
X107239525Y-87424080D01*
X106730737Y-87424080D01*
X106816312Y-87338505D01*
X106911738Y-87195690D01*
X107059920Y-87244475D01*
X107944395Y-86360000D01*
X108303605Y-86360000D01*
X109188080Y-87244475D01*
X109442261Y-87160792D01*
X109573158Y-86888225D01*
X109648365Y-86595358D01*
X109664991Y-86293447D01*
X109622397Y-85994093D01*
X109522222Y-85708801D01*
X109442261Y-85559208D01*
X109188080Y-85475525D01*
X108303605Y-86360000D01*
X107944395Y-86360000D01*
X107059920Y-85475525D01*
X106911738Y-85524310D01*
X106816312Y-85381495D01*
X106730737Y-85295920D01*
X107239525Y-85295920D01*
X108124000Y-86180395D01*
X109008475Y-85295920D01*
X108924792Y-85041739D01*
X108652225Y-84910842D01*
X108359358Y-84835635D01*
X108057447Y-84819009D01*
X107758093Y-84861603D01*
X107472801Y-84961778D01*
X107323208Y-85041739D01*
X107239525Y-85295920D01*
X106730737Y-85295920D01*
X106602505Y-85167688D01*
X106351095Y-84999701D01*
X106071743Y-84883989D01*
X105775184Y-84825000D01*
X105472816Y-84825000D01*
X105176257Y-84883989D01*
X104896905Y-84999701D01*
X104645495Y-85167688D01*
X104431688Y-85381495D01*
X104374000Y-85467831D01*
X104316312Y-85381495D01*
X104102505Y-85167688D01*
X104009000Y-85105210D01*
X104009000Y-76947578D01*
X105020044Y-75936535D01*
X105076898Y-75925226D01*
X105265256Y-75847205D01*
X105434774Y-75733937D01*
X105578937Y-75589774D01*
X105692205Y-75420256D01*
X105770226Y-75231898D01*
X105810000Y-75031939D01*
X105810000Y-74828061D01*
X105784739Y-74701061D01*
X107550000Y-74701061D01*
X107550000Y-74904939D01*
X107589774Y-75104898D01*
X107667795Y-75293256D01*
X107781063Y-75462774D01*
X107925226Y-75606937D01*
X108094744Y-75720205D01*
X108283102Y-75798226D01*
X108483061Y-75838000D01*
X108686939Y-75838000D01*
X108886898Y-75798226D01*
X109075256Y-75720205D01*
X109123454Y-75688000D01*
X115653531Y-75688000D01*
X115697000Y-75692281D01*
X115740469Y-75688000D01*
X115740477Y-75688000D01*
X115870490Y-75675195D01*
X116037313Y-75624589D01*
X116191059Y-75542411D01*
X116325817Y-75431817D01*
X116353534Y-75398044D01*
X117435049Y-74316530D01*
X117468817Y-74288817D01*
X117579411Y-74154059D01*
X117661589Y-74000313D01*
X117712195Y-73833490D01*
X117725000Y-73703477D01*
X117725000Y-73703467D01*
X117729281Y-73660001D01*
X117725000Y-73616535D01*
X117725000Y-72007549D01*
X117830058Y-71879536D01*
X117940094Y-71673674D01*
X117976700Y-71553000D01*
X120111548Y-71553000D01*
X120159745Y-71585204D01*
X120348103Y-71663225D01*
X120548062Y-71702999D01*
X120751940Y-71702999D01*
X120951899Y-71663225D01*
X121140257Y-71585204D01*
X121188454Y-71553000D01*
X123641422Y-71553000D01*
X124210001Y-72121580D01*
X124210000Y-81884546D01*
X124177795Y-81932744D01*
X124099774Y-82121102D01*
X124060000Y-82321061D01*
X124060000Y-82524939D01*
X124099774Y-82724898D01*
X124177795Y-82913256D01*
X124291063Y-83082774D01*
X124435226Y-83226937D01*
X124604744Y-83340205D01*
X124793102Y-83418226D01*
X124993061Y-83458000D01*
X125196939Y-83458000D01*
X125396898Y-83418226D01*
X125585256Y-83340205D01*
X125754774Y-83226937D01*
X125898937Y-83082774D01*
X126012205Y-82913256D01*
X126090226Y-82724898D01*
X126130000Y-82524939D01*
X126130000Y-82321061D01*
X126090226Y-82121102D01*
X126012205Y-81932744D01*
X125980000Y-81884546D01*
X125980000Y-71798465D01*
X125984281Y-71754999D01*
X125980000Y-71711533D01*
X125980000Y-71711523D01*
X125967195Y-71581510D01*
X125958546Y-71553000D01*
X130760922Y-71553000D01*
X131195001Y-71987080D01*
X131195000Y-85105210D01*
X131101495Y-85167688D01*
X130887688Y-85381495D01*
X130719701Y-85632905D01*
X130603989Y-85912257D01*
X130545000Y-86208816D01*
X130545000Y-86511184D01*
X130603989Y-86807743D01*
X130719701Y-87087095D01*
X130887688Y-87338505D01*
X131101495Y-87552312D01*
X131352905Y-87720299D01*
X131632257Y-87836011D01*
X131928816Y-87895000D01*
X132231184Y-87895000D01*
X132527743Y-87836011D01*
X132807095Y-87720299D01*
X133058505Y-87552312D01*
X133272312Y-87338505D01*
X133330000Y-87252169D01*
X133387688Y-87338505D01*
X133601495Y-87552312D01*
X133852905Y-87720299D01*
X134132257Y-87836011D01*
X134428816Y-87895000D01*
X134731184Y-87895000D01*
X135027743Y-87836011D01*
X135307095Y-87720299D01*
X135558505Y-87552312D01*
X135686737Y-87424080D01*
X136195525Y-87424080D01*
X136279208Y-87678261D01*
X136551775Y-87809158D01*
X136844642Y-87884365D01*
X137146553Y-87900991D01*
X137445907Y-87858397D01*
X137731199Y-87758222D01*
X137880792Y-87678261D01*
X137964475Y-87424080D01*
X137080000Y-86539605D01*
X136195525Y-87424080D01*
X135686737Y-87424080D01*
X135772312Y-87338505D01*
X135867738Y-87195690D01*
X136015920Y-87244475D01*
X136900395Y-86360000D01*
X137259605Y-86360000D01*
X138144080Y-87244475D01*
X138398261Y-87160792D01*
X138529158Y-86888225D01*
X138604365Y-86595358D01*
X138620991Y-86293447D01*
X138578397Y-85994093D01*
X138478222Y-85708801D01*
X138398261Y-85559208D01*
X138144080Y-85475525D01*
X137259605Y-86360000D01*
X136900395Y-86360000D01*
X136015920Y-85475525D01*
X135867738Y-85524310D01*
X135772312Y-85381495D01*
X135686737Y-85295920D01*
X136195525Y-85295920D01*
X137080000Y-86180395D01*
X137964475Y-85295920D01*
X137880792Y-85041739D01*
X137608225Y-84910842D01*
X137315358Y-84835635D01*
X137013447Y-84819009D01*
X136714093Y-84861603D01*
X136428801Y-84961778D01*
X136279208Y-85041739D01*
X136195525Y-85295920D01*
X135686737Y-85295920D01*
X135558505Y-85167688D01*
X135307095Y-84999701D01*
X135027743Y-84883989D01*
X134731184Y-84825000D01*
X134428816Y-84825000D01*
X134132257Y-84883989D01*
X133852905Y-84999701D01*
X133601495Y-85167688D01*
X133387688Y-85381495D01*
X133330000Y-85467831D01*
X133272312Y-85381495D01*
X133058505Y-85167688D01*
X132965000Y-85105210D01*
X132965000Y-71663965D01*
X132969281Y-71620499D01*
X132965000Y-71577033D01*
X132965000Y-71577023D01*
X132962634Y-71553000D01*
X141251531Y-71553000D01*
X141295000Y-71557281D01*
X141338469Y-71553000D01*
X154898422Y-71553000D01*
X159135001Y-75789580D01*
X159135000Y-85105210D01*
X159041495Y-85167688D01*
X158827688Y-85381495D01*
X158659701Y-85632905D01*
X158543989Y-85912257D01*
X158485000Y-86208816D01*
X158485000Y-86511184D01*
X158543989Y-86807743D01*
X158659701Y-87087095D01*
X158827688Y-87338505D01*
X159041495Y-87552312D01*
X159292905Y-87720299D01*
X159572257Y-87836011D01*
X159868816Y-87895000D01*
X160171184Y-87895000D01*
X160467743Y-87836011D01*
X160747095Y-87720299D01*
X160998505Y-87552312D01*
X161212312Y-87338505D01*
X161270000Y-87252169D01*
X161327688Y-87338505D01*
X161541495Y-87552312D01*
X161792905Y-87720299D01*
X162072257Y-87836011D01*
X162368816Y-87895000D01*
X162671184Y-87895000D01*
X162967743Y-87836011D01*
X163247095Y-87720299D01*
X163498505Y-87552312D01*
X163626737Y-87424080D01*
X164135525Y-87424080D01*
X164219208Y-87678261D01*
X164491775Y-87809158D01*
X164784642Y-87884365D01*
X165086553Y-87900991D01*
X165385907Y-87858397D01*
X165671199Y-87758222D01*
X165820792Y-87678261D01*
X165904475Y-87424080D01*
X165020000Y-86539605D01*
X164135525Y-87424080D01*
X163626737Y-87424080D01*
X163712312Y-87338505D01*
X163807738Y-87195690D01*
X163955920Y-87244475D01*
X164840395Y-86360000D01*
X165199605Y-86360000D01*
X166084080Y-87244475D01*
X166338261Y-87160792D01*
X166469158Y-86888225D01*
X166544365Y-86595358D01*
X166560991Y-86293447D01*
X166518397Y-85994093D01*
X166418222Y-85708801D01*
X166338261Y-85559208D01*
X166084080Y-85475525D01*
X165199605Y-86360000D01*
X164840395Y-86360000D01*
X163955920Y-85475525D01*
X163807738Y-85524310D01*
X163712312Y-85381495D01*
X163626737Y-85295920D01*
X164135525Y-85295920D01*
X165020000Y-86180395D01*
X165904475Y-85295920D01*
X165820792Y-85041739D01*
X165548225Y-84910842D01*
X165255358Y-84835635D01*
X164953447Y-84819009D01*
X164654093Y-84861603D01*
X164368801Y-84961778D01*
X164219208Y-85041739D01*
X164135525Y-85295920D01*
X163626737Y-85295920D01*
X163498505Y-85167688D01*
X163247095Y-84999701D01*
X162967743Y-84883989D01*
X162671184Y-84825000D01*
X162368816Y-84825000D01*
X162072257Y-84883989D01*
X161792905Y-84999701D01*
X161541495Y-85167688D01*
X161327688Y-85381495D01*
X161270000Y-85467831D01*
X161212312Y-85381495D01*
X160998505Y-85167688D01*
X160905000Y-85105210D01*
X160905000Y-75466465D01*
X160909281Y-75422999D01*
X160905000Y-75379533D01*
X160905000Y-75379523D01*
X160892195Y-75249510D01*
X160841589Y-75082687D01*
X160759411Y-74928941D01*
X160735210Y-74899452D01*
X160676532Y-74827953D01*
X160676530Y-74827951D01*
X160648817Y-74794183D01*
X160615049Y-74766470D01*
X156516578Y-70668000D01*
X158565826Y-68618752D01*
X158530588Y-68734918D01*
X158518328Y-68859400D01*
X158518328Y-70586600D01*
X158530588Y-70711082D01*
X158566898Y-70830780D01*
X158625863Y-70941094D01*
X158705215Y-71037785D01*
X158801906Y-71117137D01*
X158912220Y-71176102D01*
X159031918Y-71212412D01*
X159156400Y-71224672D01*
X160883600Y-71224672D01*
X161008082Y-71212412D01*
X161127780Y-71176102D01*
X161238094Y-71117137D01*
X161334785Y-71037785D01*
X161414137Y-70941094D01*
X161473102Y-70830780D01*
X161488586Y-70779735D01*
X161495203Y-70787797D01*
X161723394Y-70975069D01*
X161983736Y-71114225D01*
X162266223Y-71199916D01*
X162486381Y-71221600D01*
X162633619Y-71221600D01*
X162853777Y-71199916D01*
X163136264Y-71114225D01*
X163396606Y-70975069D01*
X163624797Y-70787797D01*
X163812069Y-70559606D01*
X163830000Y-70526060D01*
X163847931Y-70559606D01*
X164035203Y-70787797D01*
X164263394Y-70975069D01*
X164523736Y-71114225D01*
X164806223Y-71199916D01*
X165026381Y-71221600D01*
X165173619Y-71221600D01*
X165393777Y-71199916D01*
X165676264Y-71114225D01*
X165936606Y-70975069D01*
X166164797Y-70787797D01*
X166352069Y-70559606D01*
X166491225Y-70299264D01*
X166576916Y-70016777D01*
X166605851Y-69723000D01*
X166576916Y-69429223D01*
X166491225Y-69146736D01*
X166352069Y-68886394D01*
X166164797Y-68658203D01*
X165936606Y-68470931D01*
X165896567Y-68449530D01*
X166110293Y-68289854D01*
X166306817Y-68071488D01*
X166456964Y-67818978D01*
X166554963Y-67542027D01*
X166434464Y-67310000D01*
X165227000Y-67310000D01*
X165227000Y-67330000D01*
X164973000Y-67330000D01*
X164973000Y-67310000D01*
X164953000Y-67310000D01*
X164953000Y-67056000D01*
X164973000Y-67056000D01*
X164973000Y-65849183D01*
X165227000Y-65849183D01*
X165227000Y-67056000D01*
X166434464Y-67056000D01*
X166554963Y-66823973D01*
X166456964Y-66547022D01*
X166306817Y-66294512D01*
X166110293Y-66076146D01*
X165874944Y-65900316D01*
X165609814Y-65773778D01*
X165459026Y-65728042D01*
X165227000Y-65849183D01*
X164973000Y-65849183D01*
X164740974Y-65728042D01*
X164590186Y-65773778D01*
X164325056Y-65900316D01*
X164089707Y-66076146D01*
X163893183Y-66294512D01*
X163835863Y-66390910D01*
X163812069Y-66346394D01*
X163624797Y-66118203D01*
X163396606Y-65930931D01*
X163136264Y-65791775D01*
X162853777Y-65706084D01*
X162633619Y-65684400D01*
X162486381Y-65684400D01*
X162266223Y-65706084D01*
X161983736Y-65791775D01*
X161723394Y-65930931D01*
X161495203Y-66118203D01*
X161307931Y-66346394D01*
X161290000Y-66379940D01*
X161272069Y-66346394D01*
X161084797Y-66118203D01*
X160856606Y-65930931D01*
X160596264Y-65791775D01*
X160313777Y-65706084D01*
X160093619Y-65684400D01*
X159946381Y-65684400D01*
X159726223Y-65706084D01*
X159443736Y-65791775D01*
X159183394Y-65930931D01*
X158955203Y-66118203D01*
X158807647Y-66298000D01*
X158793465Y-66298000D01*
X158749999Y-66293719D01*
X158706533Y-66298000D01*
X158706523Y-66298000D01*
X158576510Y-66310805D01*
X158409687Y-66361411D01*
X158255941Y-66443589D01*
X158255939Y-66443590D01*
X158255940Y-66443590D01*
X158154953Y-66526468D01*
X158154951Y-66526470D01*
X158121183Y-66554183D01*
X158093470Y-66587951D01*
X154898422Y-69783000D01*
X142465581Y-69783000D01*
X142408937Y-69698226D01*
X142264774Y-69554063D01*
X142095256Y-69440795D01*
X141906898Y-69362774D01*
X141706939Y-69323000D01*
X141503061Y-69323000D01*
X141303102Y-69362774D01*
X141114744Y-69440795D01*
X140945226Y-69554063D01*
X140801063Y-69698226D01*
X140744419Y-69783000D01*
X131170969Y-69783000D01*
X131127500Y-69778719D01*
X131084031Y-69783000D01*
X124051469Y-69783000D01*
X124008000Y-69778719D01*
X123964531Y-69783000D01*
X121188457Y-69783000D01*
X121140257Y-69750794D01*
X120951899Y-69672773D01*
X120751940Y-69632999D01*
X120548062Y-69632999D01*
X120348103Y-69672773D01*
X120159745Y-69750794D01*
X120111545Y-69783000D01*
X117629549Y-69783000D01*
X117501536Y-69677942D01*
X117295674Y-69567906D01*
X117209673Y-69541818D01*
X117225000Y-69386207D01*
X117225000Y-68719794D01*
X117207853Y-68545701D01*
X117140094Y-68322327D01*
X117030058Y-68116464D01*
X116881975Y-67936025D01*
X116701536Y-67787942D01*
X116495674Y-67677906D01*
X116272300Y-67610147D01*
X116040000Y-67587267D01*
X115807701Y-67610147D01*
X115584327Y-67677906D01*
X115378465Y-67787942D01*
X115240001Y-67901577D01*
X115101536Y-67787942D01*
X114895674Y-67677906D01*
X114672300Y-67610147D01*
X114440000Y-67587267D01*
X114207701Y-67610147D01*
X113984327Y-67677906D01*
X113778465Y-67787942D01*
X113598026Y-67936025D01*
X113449943Y-68116464D01*
X113339906Y-68322326D01*
X113272147Y-68545700D01*
X113255000Y-68719793D01*
X113255000Y-69386206D01*
X113269979Y-69538292D01*
X113087246Y-69612150D01*
X112891881Y-69740275D01*
X112725266Y-69904052D01*
X112593804Y-70097187D01*
X112502546Y-70312258D01*
X112455000Y-70541000D01*
X112455000Y-70816000D01*
X113513000Y-70816000D01*
X113513000Y-70796000D01*
X113767000Y-70796000D01*
X113767000Y-70816000D01*
X113787000Y-70816000D01*
X113787000Y-71070000D01*
X113767000Y-71070000D01*
X113767000Y-72236361D01*
X113949744Y-72361803D01*
X113976147Y-72361399D01*
X114192754Y-72273850D01*
X114388119Y-72145725D01*
X114440169Y-72094562D01*
X114578464Y-72208058D01*
X114784326Y-72318094D01*
X115007700Y-72385853D01*
X115240000Y-72408733D01*
X115472299Y-72385853D01*
X115695673Y-72318094D01*
X115901535Y-72208058D01*
X115955001Y-72164180D01*
X115955001Y-73293420D01*
X115330422Y-73918000D01*
X109123454Y-73918000D01*
X109075256Y-73885795D01*
X108886898Y-73807774D01*
X108686939Y-73768000D01*
X108483061Y-73768000D01*
X108283102Y-73807774D01*
X108094744Y-73885795D01*
X107925226Y-73999063D01*
X107781063Y-74143226D01*
X107667795Y-74312744D01*
X107589774Y-74501102D01*
X107550000Y-74701061D01*
X105784739Y-74701061D01*
X105770226Y-74628102D01*
X105692205Y-74439744D01*
X105578937Y-74270226D01*
X105434774Y-74126063D01*
X105265256Y-74012795D01*
X105076898Y-73934774D01*
X104876939Y-73895000D01*
X104673061Y-73895000D01*
X104473102Y-73934774D01*
X104284744Y-74012795D01*
X104115226Y-74126063D01*
X103971063Y-74270226D01*
X103857795Y-74439744D01*
X103779774Y-74628102D01*
X103768465Y-74684956D01*
X102528951Y-75924471D01*
X102495184Y-75952183D01*
X102467471Y-75985951D01*
X102467468Y-75985954D01*
X102384590Y-76086941D01*
X102302412Y-76240687D01*
X102251805Y-76407510D01*
X102234719Y-76581000D01*
X102239001Y-76624479D01*
X102239000Y-85105210D01*
X102145495Y-85167688D01*
X101931688Y-85381495D01*
X101763701Y-85632905D01*
X101647989Y-85912257D01*
X101589000Y-86208816D01*
X89660000Y-86208816D01*
X89660000Y-71070000D01*
X112455000Y-71070000D01*
X112455000Y-71345000D01*
X112502546Y-71573742D01*
X112593804Y-71788813D01*
X112725266Y-71981948D01*
X112891881Y-72145725D01*
X113087246Y-72273850D01*
X113303853Y-72361399D01*
X113330256Y-72361803D01*
X113513000Y-72236361D01*
X113513000Y-71070000D01*
X112455000Y-71070000D01*
X89660000Y-71070000D01*
X89660000Y-68093560D01*
X90001554Y-68435114D01*
X90515021Y-68778201D01*
X91085554Y-69014524D01*
X91691229Y-69135000D01*
X92308771Y-69135000D01*
X92914446Y-69014524D01*
X93484979Y-68778201D01*
X93998446Y-68435114D01*
X94435114Y-67998446D01*
X94778201Y-67484979D01*
X95014524Y-66914446D01*
X95135000Y-66308771D01*
X95135000Y-65691229D01*
X95014524Y-65085554D01*
X94778201Y-64515021D01*
X94435114Y-64001554D01*
X94093560Y-63660000D01*
X110905594Y-63660000D01*
X110760987Y-63737294D01*
X110760987Y-63737294D01*
G37*
X110760987Y-63737294D02*
X110534867Y-63922866D01*
X110349294Y-64148986D01*
X110211401Y-64406966D01*
X110126487Y-64686889D01*
X110105000Y-64905050D01*
X110105000Y-66050949D01*
X110126487Y-66269110D01*
X110211401Y-66549033D01*
X110349294Y-66807013D01*
X110534866Y-67033134D01*
X110760986Y-67218706D01*
X111018966Y-67356599D01*
X111298889Y-67441513D01*
X111590000Y-67470185D01*
X111881110Y-67441513D01*
X112161033Y-67356599D01*
X112419013Y-67218706D01*
X112645134Y-67033134D01*
X112830706Y-66807014D01*
X112968599Y-66549034D01*
X113053513Y-66269111D01*
X113075000Y-66050950D01*
X113075000Y-64905050D01*
X113053513Y-64686889D01*
X112968599Y-64406966D01*
X112830706Y-64148986D01*
X112645134Y-63922866D01*
X112419014Y-63737294D01*
X112274407Y-63660000D01*
X118205594Y-63660000D01*
X118060987Y-63737294D01*
X117834867Y-63922866D01*
X117649294Y-64148986D01*
X117511401Y-64406966D01*
X117426487Y-64686889D01*
X117405000Y-64905050D01*
X117405000Y-66050949D01*
X117426487Y-66269110D01*
X117511401Y-66549033D01*
X117649294Y-66807013D01*
X117834866Y-67033134D01*
X118060986Y-67218706D01*
X118318966Y-67356599D01*
X118598889Y-67441513D01*
X118890000Y-67470185D01*
X119181110Y-67441513D01*
X119461033Y-67356599D01*
X119719013Y-67218706D01*
X119945134Y-67033134D01*
X120130706Y-66807014D01*
X120268599Y-66549034D01*
X120353513Y-66269111D01*
X120375000Y-66050950D01*
X120375000Y-64905050D01*
X120353513Y-64686889D01*
X120268599Y-64406966D01*
X120130706Y-64148986D01*
X119945134Y-63922866D01*
X119719014Y-63737294D01*
X119574407Y-63660000D01*
X174906440Y-63660000D01*
X174564886Y-64001554D01*
X174221799Y-64515021D01*
X173985476Y-65085554D01*
X173865000Y-65691229D01*
X173865000Y-66308771D01*
X173985476Y-66914446D01*
X174221799Y-67484979D01*
X174564886Y-67998446D01*
X175001554Y-68435114D01*
X175515021Y-68778201D01*
X176085554Y-69014524D01*
X176691229Y-69135000D01*
X177308771Y-69135000D01*
X177914446Y-69014524D01*
X178484979Y-68778201D01*
X178998446Y-68435114D01*
X179340000Y-68093560D01*
X179340001Y-112906441D01*
X178998446Y-112564886D01*
X178484979Y-112221799D01*
X177914446Y-111985476D01*
X177308771Y-111865000D01*
X176691229Y-111865000D01*
X176085554Y-111985476D01*
X175515021Y-112221799D01*
X175001554Y-112564886D01*
X174564886Y-113001554D01*
X174221799Y-113515021D01*
X173985476Y-114085554D01*
X173865000Y-114691229D01*
X173865000Y-115308771D01*
X173985476Y-115914446D01*
X174221799Y-116484979D01*
X174564886Y-116998446D01*
X174906440Y-117340000D01*
X94093560Y-117340000D01*
X94435114Y-116998446D01*
X94778201Y-116484979D01*
X95014524Y-115914446D01*
X95135000Y-115308771D01*
X95135000Y-114691229D01*
X95014524Y-114085554D01*
X94778201Y-113515021D01*
X94435114Y-113001554D01*
X93998446Y-112564886D01*
X93484979Y-112221799D01*
X92914446Y-111985476D01*
X92308771Y-111865000D01*
X91691229Y-111865000D01*
X91085554Y-111985476D01*
X90515021Y-112221799D01*
X90001554Y-112564886D01*
X89660000Y-112906440D01*
X89660000Y-93100475D01*
X98589000Y-93100475D01*
X98589000Y-93619525D01*
X98690261Y-94128601D01*
X98888893Y-94608141D01*
X99177262Y-95039715D01*
X99544285Y-95406738D01*
X99975859Y-95695107D01*
X100455399Y-95893739D01*
X100964475Y-95995000D01*
X101483525Y-95995000D01*
X101992601Y-95893739D01*
X102472141Y-95695107D01*
X102903715Y-95406738D01*
X103270738Y-95039715D01*
X103559107Y-94608141D01*
X103757739Y-94128601D01*
X103859000Y-93619525D01*
X103859000Y-93100475D01*
X107389000Y-93100475D01*
X107389000Y-93619525D01*
X107490261Y-94128601D01*
X107688893Y-94608141D01*
X107977262Y-95039715D01*
X108344285Y-95406738D01*
X108775859Y-95695107D01*
X109255399Y-95893739D01*
X109764475Y-95995000D01*
X110283525Y-95995000D01*
X110792601Y-95893739D01*
X111272141Y-95695107D01*
X111703715Y-95406738D01*
X112070738Y-95039715D01*
X112359107Y-94608141D01*
X112557739Y-94128601D01*
X112659000Y-93619525D01*
X112659000Y-93100475D01*
X127545000Y-93100475D01*
X127545000Y-93619525D01*
X127646261Y-94128601D01*
X127844893Y-94608141D01*
X128133262Y-95039715D01*
X128500285Y-95406738D01*
X128931859Y-95695107D01*
X129411399Y-95893739D01*
X129920475Y-95995000D01*
X130439525Y-95995000D01*
X130948601Y-95893739D01*
X131428141Y-95695107D01*
X131859715Y-95406738D01*
X132226738Y-95039715D01*
X132515107Y-94608141D01*
X132713739Y-94128601D01*
X132815000Y-93619525D01*
X132815000Y-93100475D01*
X136345000Y-93100475D01*
X136345000Y-93619525D01*
X136446261Y-94128601D01*
X136644893Y-94608141D01*
X136933262Y-95039715D01*
X137300285Y-95406738D01*
X137731859Y-95695107D01*
X138211399Y-95893739D01*
X138720475Y-95995000D01*
X139239525Y-95995000D01*
X139748601Y-95893739D01*
X140228141Y-95695107D01*
X140659715Y-95406738D01*
X141026738Y-95039715D01*
X141315107Y-94608141D01*
X141513739Y-94128601D01*
X141615000Y-93619525D01*
X141615000Y-93100475D01*
X155485000Y-93100475D01*
X155485000Y-93619525D01*
X155586261Y-94128601D01*
X155784893Y-94608141D01*
X156073262Y-95039715D01*
X156440285Y-95406738D01*
X156871859Y-95695107D01*
X157351399Y-95893739D01*
X157860475Y-95995000D01*
X158379525Y-95995000D01*
X158888601Y-95893739D01*
X159368141Y-95695107D01*
X159799715Y-95406738D01*
X160166738Y-95039715D01*
X160455107Y-94608141D01*
X160653739Y-94128601D01*
X160755000Y-93619525D01*
X160755000Y-93100475D01*
X164285000Y-93100475D01*
X164285000Y-93619525D01*
X164386261Y-94128601D01*
X164584893Y-94608141D01*
X164873262Y-95039715D01*
X165240285Y-95406738D01*
X165671859Y-95695107D01*
X166151399Y-95893739D01*
X166660475Y-95995000D01*
X167179525Y-95995000D01*
X167688601Y-95893739D01*
X168168141Y-95695107D01*
X168599715Y-95406738D01*
X168966738Y-95039715D01*
X169255107Y-94608141D01*
X169453739Y-94128601D01*
X169555000Y-93619525D01*
X169555000Y-93100475D01*
X169453739Y-92591399D01*
X169255107Y-92111859D01*
X168966738Y-91680285D01*
X168599715Y-91313262D01*
X168168141Y-91024893D01*
X167688601Y-90826261D01*
X167179525Y-90725000D01*
X166660475Y-90725000D01*
X166151399Y-90826261D01*
X165671859Y-91024893D01*
X165240285Y-91313262D01*
X164873262Y-91680285D01*
X164584893Y-92111859D01*
X164386261Y-92591399D01*
X164285000Y-93100475D01*
X160755000Y-93100475D01*
X160653739Y-92591399D01*
X160455107Y-92111859D01*
X160166738Y-91680285D01*
X159799715Y-91313262D01*
X159368141Y-91024893D01*
X158888601Y-90826261D01*
X158379525Y-90725000D01*
X157860475Y-90725000D01*
X157351399Y-90826261D01*
X156871859Y-91024893D01*
X156440285Y-91313262D01*
X156073262Y-91680285D01*
X155784893Y-92111859D01*
X155586261Y-92591399D01*
X155485000Y-93100475D01*
X141615000Y-93100475D01*
X141513739Y-92591399D01*
X141315107Y-92111859D01*
X141026738Y-91680285D01*
X140659715Y-91313262D01*
X140228141Y-91024893D01*
X139748601Y-90826261D01*
X139239525Y-90725000D01*
X138720475Y-90725000D01*
X138211399Y-90826261D01*
X137731859Y-91024893D01*
X137300285Y-91313262D01*
X136933262Y-91680285D01*
X136644893Y-92111859D01*
X136446261Y-92591399D01*
X136345000Y-93100475D01*
X132815000Y-93100475D01*
X132713739Y-92591399D01*
X132515107Y-92111859D01*
X132226738Y-91680285D01*
X131859715Y-91313262D01*
X131428141Y-91024893D01*
X130948601Y-90826261D01*
X130439525Y-90725000D01*
X129920475Y-90725000D01*
X129411399Y-90826261D01*
X128931859Y-91024893D01*
X128500285Y-91313262D01*
X128133262Y-91680285D01*
X127844893Y-92111859D01*
X127646261Y-92591399D01*
X127545000Y-93100475D01*
X112659000Y-93100475D01*
X112557739Y-92591399D01*
X112359107Y-92111859D01*
X112070738Y-91680285D01*
X111703715Y-91313262D01*
X111272141Y-91024893D01*
X110792601Y-90826261D01*
X110283525Y-90725000D01*
X109764475Y-90725000D01*
X109255399Y-90826261D01*
X108775859Y-91024893D01*
X108344285Y-91313262D01*
X107977262Y-91680285D01*
X107688893Y-92111859D01*
X107490261Y-92591399D01*
X107389000Y-93100475D01*
X103859000Y-93100475D01*
X103757739Y-92591399D01*
X103559107Y-92111859D01*
X103270738Y-91680285D01*
X102903715Y-91313262D01*
X102472141Y-91024893D01*
X101992601Y-90826261D01*
X101483525Y-90725000D01*
X100964475Y-90725000D01*
X100455399Y-90826261D01*
X99975859Y-91024893D01*
X99544285Y-91313262D01*
X99177262Y-91680285D01*
X98888893Y-92111859D01*
X98690261Y-92591399D01*
X98589000Y-93100475D01*
X89660000Y-93100475D01*
X89660000Y-89103422D01*
X138660340Y-89103422D01*
X138660340Y-89307300D01*
X138700114Y-89507259D01*
X138778135Y-89695617D01*
X138891403Y-89865135D01*
X139035566Y-90009298D01*
X139205084Y-90122566D01*
X139393442Y-90200587D01*
X139593401Y-90240361D01*
X139797279Y-90240361D01*
X139997238Y-90200587D01*
X140185596Y-90122566D01*
X140202183Y-90111483D01*
X140225744Y-90127226D01*
X140414102Y-90205247D01*
X140614061Y-90245021D01*
X140817939Y-90245021D01*
X141017898Y-90205247D01*
X141206256Y-90127226D01*
X141227489Y-90113039D01*
X141241744Y-90122564D01*
X141430102Y-90200585D01*
X141630061Y-90240359D01*
X141833939Y-90240359D01*
X142033898Y-90200585D01*
X142222256Y-90122564D01*
X142391774Y-90009296D01*
X142535937Y-89865133D01*
X142649205Y-89695615D01*
X142727226Y-89507257D01*
X142767000Y-89307298D01*
X142767000Y-89103420D01*
X142727226Y-88903461D01*
X142649205Y-88715103D01*
X142535937Y-88545585D01*
X142492000Y-88501648D01*
X142492000Y-81983711D01*
X142535937Y-81939774D01*
X142649205Y-81770256D01*
X142727226Y-81581898D01*
X142767000Y-81381939D01*
X142767000Y-81178061D01*
X142727226Y-80978102D01*
X142649205Y-80789744D01*
X142535937Y-80620226D01*
X142391774Y-80476063D01*
X142222256Y-80362795D01*
X142033898Y-80284774D01*
X141833939Y-80245000D01*
X141630061Y-80245000D01*
X141430102Y-80284774D01*
X141241744Y-80362795D01*
X141224000Y-80374651D01*
X141206256Y-80362795D01*
X141017898Y-80284774D01*
X140817939Y-80245000D01*
X140614061Y-80245000D01*
X140414102Y-80284774D01*
X140225744Y-80362795D01*
X140208000Y-80374651D01*
X140190256Y-80362795D01*
X140001898Y-80284774D01*
X139801939Y-80245000D01*
X139598061Y-80245000D01*
X139398102Y-80284774D01*
X139209744Y-80362795D01*
X139040226Y-80476063D01*
X138896063Y-80620226D01*
X138782795Y-80789744D01*
X138704774Y-80978102D01*
X138665000Y-81178061D01*
X138665000Y-81381939D01*
X138704774Y-81581898D01*
X138782795Y-81770256D01*
X138896063Y-81939774D01*
X138940000Y-81983711D01*
X138940001Y-88496989D01*
X138891403Y-88545587D01*
X138778135Y-88715105D01*
X138700114Y-88903463D01*
X138660340Y-89103422D01*
X89660000Y-89103422D01*
X89660000Y-86208816D01*
X101589000Y-86208816D01*
X101589000Y-86511184D01*
X101647989Y-86807743D01*
X101763701Y-87087095D01*
X101931688Y-87338505D01*
X102145495Y-87552312D01*
X102396905Y-87720299D01*
X102676257Y-87836011D01*
X102972816Y-87895000D01*
X103275184Y-87895000D01*
X103571743Y-87836011D01*
X103851095Y-87720299D01*
X104102505Y-87552312D01*
X104316312Y-87338505D01*
X104374000Y-87252169D01*
X104431688Y-87338505D01*
X104645495Y-87552312D01*
X104896905Y-87720299D01*
X105176257Y-87836011D01*
X105472816Y-87895000D01*
X105775184Y-87895000D01*
X106071743Y-87836011D01*
X106351095Y-87720299D01*
X106602505Y-87552312D01*
X106730737Y-87424080D01*
X107239525Y-87424080D01*
X107323208Y-87678261D01*
X107595775Y-87809158D01*
X107888642Y-87884365D01*
X108190553Y-87900991D01*
X108489907Y-87858397D01*
X108775199Y-87758222D01*
X108924792Y-87678261D01*
X109008475Y-87424080D01*
X108124000Y-86539605D01*
X107239525Y-87424080D01*
X106730737Y-87424080D01*
X106816312Y-87338505D01*
X106911738Y-87195690D01*
X107059920Y-87244475D01*
X107944395Y-86360000D01*
X108303605Y-86360000D01*
X109188080Y-87244475D01*
X109442261Y-87160792D01*
X109573158Y-86888225D01*
X109648365Y-86595358D01*
X109664991Y-86293447D01*
X109622397Y-85994093D01*
X109522222Y-85708801D01*
X109442261Y-85559208D01*
X109188080Y-85475525D01*
X108303605Y-86360000D01*
X107944395Y-86360000D01*
X107059920Y-85475525D01*
X106911738Y-85524310D01*
X106816312Y-85381495D01*
X106730737Y-85295920D01*
X107239525Y-85295920D01*
X108124000Y-86180395D01*
X109008475Y-85295920D01*
X108924792Y-85041739D01*
X108652225Y-84910842D01*
X108359358Y-84835635D01*
X108057447Y-84819009D01*
X107758093Y-84861603D01*
X107472801Y-84961778D01*
X107323208Y-85041739D01*
X107239525Y-85295920D01*
X106730737Y-85295920D01*
X106602505Y-85167688D01*
X106351095Y-84999701D01*
X106071743Y-84883989D01*
X105775184Y-84825000D01*
X105472816Y-84825000D01*
X105176257Y-84883989D01*
X104896905Y-84999701D01*
X104645495Y-85167688D01*
X104431688Y-85381495D01*
X104374000Y-85467831D01*
X104316312Y-85381495D01*
X104102505Y-85167688D01*
X104009000Y-85105210D01*
X104009000Y-76947578D01*
X105020044Y-75936535D01*
X105076898Y-75925226D01*
X105265256Y-75847205D01*
X105434774Y-75733937D01*
X105578937Y-75589774D01*
X105692205Y-75420256D01*
X105770226Y-75231898D01*
X105810000Y-75031939D01*
X105810000Y-74828061D01*
X105784739Y-74701061D01*
X107550000Y-74701061D01*
X107550000Y-74904939D01*
X107589774Y-75104898D01*
X107667795Y-75293256D01*
X107781063Y-75462774D01*
X107925226Y-75606937D01*
X108094744Y-75720205D01*
X108283102Y-75798226D01*
X108483061Y-75838000D01*
X108686939Y-75838000D01*
X108886898Y-75798226D01*
X109075256Y-75720205D01*
X109123454Y-75688000D01*
X115653531Y-75688000D01*
X115697000Y-75692281D01*
X115740469Y-75688000D01*
X115740477Y-75688000D01*
X115870490Y-75675195D01*
X116037313Y-75624589D01*
X116191059Y-75542411D01*
X116325817Y-75431817D01*
X116353534Y-75398044D01*
X117435049Y-74316530D01*
X117468817Y-74288817D01*
X117579411Y-74154059D01*
X117661589Y-74000313D01*
X117712195Y-73833490D01*
X117725000Y-73703477D01*
X117725000Y-73703467D01*
X117729281Y-73660001D01*
X117725000Y-73616535D01*
X117725000Y-72007549D01*
X117830058Y-71879536D01*
X117940094Y-71673674D01*
X117976700Y-71553000D01*
X120111548Y-71553000D01*
X120159745Y-71585204D01*
X120348103Y-71663225D01*
X120548062Y-71702999D01*
X120751940Y-71702999D01*
X120951899Y-71663225D01*
X121140257Y-71585204D01*
X121188454Y-71553000D01*
X123641422Y-71553000D01*
X124210001Y-72121580D01*
X124210000Y-81884546D01*
X124177795Y-81932744D01*
X124099774Y-82121102D01*
X124060000Y-82321061D01*
X124060000Y-82524939D01*
X124099774Y-82724898D01*
X124177795Y-82913256D01*
X124291063Y-83082774D01*
X124435226Y-83226937D01*
X124604744Y-83340205D01*
X124793102Y-83418226D01*
X124993061Y-83458000D01*
X125196939Y-83458000D01*
X125396898Y-83418226D01*
X125585256Y-83340205D01*
X125754774Y-83226937D01*
X125898937Y-83082774D01*
X126012205Y-82913256D01*
X126090226Y-82724898D01*
X126130000Y-82524939D01*
X126130000Y-82321061D01*
X126090226Y-82121102D01*
X126012205Y-81932744D01*
X125980000Y-81884546D01*
X125980000Y-71798465D01*
X125984281Y-71754999D01*
X125980000Y-71711533D01*
X125980000Y-71711523D01*
X125967195Y-71581510D01*
X125958546Y-71553000D01*
X130760922Y-71553000D01*
X131195001Y-71987080D01*
X131195000Y-85105210D01*
X131101495Y-85167688D01*
X130887688Y-85381495D01*
X130719701Y-85632905D01*
X130603989Y-85912257D01*
X130545000Y-86208816D01*
X130545000Y-86511184D01*
X130603989Y-86807743D01*
X130719701Y-87087095D01*
X130887688Y-87338505D01*
X131101495Y-87552312D01*
X131352905Y-87720299D01*
X131632257Y-87836011D01*
X131928816Y-87895000D01*
X132231184Y-87895000D01*
X132527743Y-87836011D01*
X132807095Y-87720299D01*
X133058505Y-87552312D01*
X133272312Y-87338505D01*
X133330000Y-87252169D01*
X133387688Y-87338505D01*
X133601495Y-87552312D01*
X133852905Y-87720299D01*
X134132257Y-87836011D01*
X134428816Y-87895000D01*
X134731184Y-87895000D01*
X135027743Y-87836011D01*
X135307095Y-87720299D01*
X135558505Y-87552312D01*
X135686737Y-87424080D01*
X136195525Y-87424080D01*
X136279208Y-87678261D01*
X136551775Y-87809158D01*
X136844642Y-87884365D01*
X137146553Y-87900991D01*
X137445907Y-87858397D01*
X137731199Y-87758222D01*
X137880792Y-87678261D01*
X137964475Y-87424080D01*
X137080000Y-86539605D01*
X136195525Y-87424080D01*
X135686737Y-87424080D01*
X135772312Y-87338505D01*
X135867738Y-87195690D01*
X136015920Y-87244475D01*
X136900395Y-86360000D01*
X137259605Y-86360000D01*
X138144080Y-87244475D01*
X138398261Y-87160792D01*
X138529158Y-86888225D01*
X138604365Y-86595358D01*
X138620991Y-86293447D01*
X138578397Y-85994093D01*
X138478222Y-85708801D01*
X138398261Y-85559208D01*
X138144080Y-85475525D01*
X137259605Y-86360000D01*
X136900395Y-86360000D01*
X136015920Y-85475525D01*
X135867738Y-85524310D01*
X135772312Y-85381495D01*
X135686737Y-85295920D01*
X136195525Y-85295920D01*
X137080000Y-86180395D01*
X137964475Y-85295920D01*
X137880792Y-85041739D01*
X137608225Y-84910842D01*
X137315358Y-84835635D01*
X137013447Y-84819009D01*
X136714093Y-84861603D01*
X136428801Y-84961778D01*
X136279208Y-85041739D01*
X136195525Y-85295920D01*
X135686737Y-85295920D01*
X135558505Y-85167688D01*
X135307095Y-84999701D01*
X135027743Y-84883989D01*
X134731184Y-84825000D01*
X134428816Y-84825000D01*
X134132257Y-84883989D01*
X133852905Y-84999701D01*
X133601495Y-85167688D01*
X133387688Y-85381495D01*
X133330000Y-85467831D01*
X133272312Y-85381495D01*
X133058505Y-85167688D01*
X132965000Y-85105210D01*
X132965000Y-71663965D01*
X132969281Y-71620499D01*
X132965000Y-71577033D01*
X132965000Y-71577023D01*
X132962634Y-71553000D01*
X141251531Y-71553000D01*
X141295000Y-71557281D01*
X141338469Y-71553000D01*
X154898422Y-71553000D01*
X159135001Y-75789580D01*
X159135000Y-85105210D01*
X159041495Y-85167688D01*
X158827688Y-85381495D01*
X158659701Y-85632905D01*
X158543989Y-85912257D01*
X158485000Y-86208816D01*
X158485000Y-86511184D01*
X158543989Y-86807743D01*
X158659701Y-87087095D01*
X158827688Y-87338505D01*
X159041495Y-87552312D01*
X159292905Y-87720299D01*
X159572257Y-87836011D01*
X159868816Y-87895000D01*
X160171184Y-87895000D01*
X160467743Y-87836011D01*
X160747095Y-87720299D01*
X160998505Y-87552312D01*
X161212312Y-87338505D01*
X161270000Y-87252169D01*
X161327688Y-87338505D01*
X161541495Y-87552312D01*
X161792905Y-87720299D01*
X162072257Y-87836011D01*
X162368816Y-87895000D01*
X162671184Y-87895000D01*
X162967743Y-87836011D01*
X163247095Y-87720299D01*
X163498505Y-87552312D01*
X163626737Y-87424080D01*
X164135525Y-87424080D01*
X164219208Y-87678261D01*
X164491775Y-87809158D01*
X164784642Y-87884365D01*
X165086553Y-87900991D01*
X165385907Y-87858397D01*
X165671199Y-87758222D01*
X165820792Y-87678261D01*
X165904475Y-87424080D01*
X165020000Y-86539605D01*
X164135525Y-87424080D01*
X163626737Y-87424080D01*
X163712312Y-87338505D01*
X163807738Y-87195690D01*
X163955920Y-87244475D01*
X164840395Y-86360000D01*
X165199605Y-86360000D01*
X166084080Y-87244475D01*
X166338261Y-87160792D01*
X166469158Y-86888225D01*
X166544365Y-86595358D01*
X166560991Y-86293447D01*
X166518397Y-85994093D01*
X166418222Y-85708801D01*
X166338261Y-85559208D01*
X166084080Y-85475525D01*
X165199605Y-86360000D01*
X164840395Y-86360000D01*
X163955920Y-85475525D01*
X163807738Y-85524310D01*
X163712312Y-85381495D01*
X163626737Y-85295920D01*
X164135525Y-85295920D01*
X165020000Y-86180395D01*
X165904475Y-85295920D01*
X165820792Y-85041739D01*
X165548225Y-84910842D01*
X165255358Y-84835635D01*
X164953447Y-84819009D01*
X164654093Y-84861603D01*
X164368801Y-84961778D01*
X164219208Y-85041739D01*
X164135525Y-85295920D01*
X163626737Y-85295920D01*
X163498505Y-85167688D01*
X163247095Y-84999701D01*
X162967743Y-84883989D01*
X162671184Y-84825000D01*
X162368816Y-84825000D01*
X162072257Y-84883989D01*
X161792905Y-84999701D01*
X161541495Y-85167688D01*
X161327688Y-85381495D01*
X161270000Y-85467831D01*
X161212312Y-85381495D01*
X160998505Y-85167688D01*
X160905000Y-85105210D01*
X160905000Y-75466465D01*
X160909281Y-75422999D01*
X160905000Y-75379533D01*
X160905000Y-75379523D01*
X160892195Y-75249510D01*
X160841589Y-75082687D01*
X160759411Y-74928941D01*
X160735210Y-74899452D01*
X160676532Y-74827953D01*
X160676530Y-74827951D01*
X160648817Y-74794183D01*
X160615049Y-74766470D01*
X156516578Y-70668000D01*
X158565826Y-68618752D01*
X158530588Y-68734918D01*
X158518328Y-68859400D01*
X158518328Y-70586600D01*
X158530588Y-70711082D01*
X158566898Y-70830780D01*
X158625863Y-70941094D01*
X158705215Y-71037785D01*
X158801906Y-71117137D01*
X158912220Y-71176102D01*
X159031918Y-71212412D01*
X159156400Y-71224672D01*
X160883600Y-71224672D01*
X161008082Y-71212412D01*
X161127780Y-71176102D01*
X161238094Y-71117137D01*
X161334785Y-71037785D01*
X161414137Y-70941094D01*
X161473102Y-70830780D01*
X161488586Y-70779735D01*
X161495203Y-70787797D01*
X161723394Y-70975069D01*
X161983736Y-71114225D01*
X162266223Y-71199916D01*
X162486381Y-71221600D01*
X162633619Y-71221600D01*
X162853777Y-71199916D01*
X163136264Y-71114225D01*
X163396606Y-70975069D01*
X163624797Y-70787797D01*
X163812069Y-70559606D01*
X163830000Y-70526060D01*
X163847931Y-70559606D01*
X164035203Y-70787797D01*
X164263394Y-70975069D01*
X164523736Y-71114225D01*
X164806223Y-71199916D01*
X165026381Y-71221600D01*
X165173619Y-71221600D01*
X165393777Y-71199916D01*
X165676264Y-71114225D01*
X165936606Y-70975069D01*
X166164797Y-70787797D01*
X166352069Y-70559606D01*
X166491225Y-70299264D01*
X166576916Y-70016777D01*
X166605851Y-69723000D01*
X166576916Y-69429223D01*
X166491225Y-69146736D01*
X166352069Y-68886394D01*
X166164797Y-68658203D01*
X165936606Y-68470931D01*
X165896567Y-68449530D01*
X166110293Y-68289854D01*
X166306817Y-68071488D01*
X166456964Y-67818978D01*
X166554963Y-67542027D01*
X166434464Y-67310000D01*
X165227000Y-67310000D01*
X165227000Y-67330000D01*
X164973000Y-67330000D01*
X164973000Y-67310000D01*
X164953000Y-67310000D01*
X164953000Y-67056000D01*
X164973000Y-67056000D01*
X164973000Y-65849183D01*
X165227000Y-65849183D01*
X165227000Y-67056000D01*
X166434464Y-67056000D01*
X166554963Y-66823973D01*
X166456964Y-66547022D01*
X166306817Y-66294512D01*
X166110293Y-66076146D01*
X165874944Y-65900316D01*
X165609814Y-65773778D01*
X165459026Y-65728042D01*
X165227000Y-65849183D01*
X164973000Y-65849183D01*
X164740974Y-65728042D01*
X164590186Y-65773778D01*
X164325056Y-65900316D01*
X164089707Y-66076146D01*
X163893183Y-66294512D01*
X163835863Y-66390910D01*
X163812069Y-66346394D01*
X163624797Y-66118203D01*
X163396606Y-65930931D01*
X163136264Y-65791775D01*
X162853777Y-65706084D01*
X162633619Y-65684400D01*
X162486381Y-65684400D01*
X162266223Y-65706084D01*
X161983736Y-65791775D01*
X161723394Y-65930931D01*
X161495203Y-66118203D01*
X161307931Y-66346394D01*
X161290000Y-66379940D01*
X161272069Y-66346394D01*
X161084797Y-66118203D01*
X160856606Y-65930931D01*
X160596264Y-65791775D01*
X160313777Y-65706084D01*
X160093619Y-65684400D01*
X159946381Y-65684400D01*
X159726223Y-65706084D01*
X159443736Y-65791775D01*
X159183394Y-65930931D01*
X158955203Y-66118203D01*
X158807647Y-66298000D01*
X158793465Y-66298000D01*
X158749999Y-66293719D01*
X158706533Y-66298000D01*
X158706523Y-66298000D01*
X158576510Y-66310805D01*
X158409687Y-66361411D01*
X158255941Y-66443589D01*
X158255939Y-66443590D01*
X158255940Y-66443590D01*
X158154953Y-66526468D01*
X158154951Y-66526470D01*
X158121183Y-66554183D01*
X158093470Y-66587951D01*
X154898422Y-69783000D01*
X142465581Y-69783000D01*
X142408937Y-69698226D01*
X142264774Y-69554063D01*
X142095256Y-69440795D01*
X141906898Y-69362774D01*
X141706939Y-69323000D01*
X141503061Y-69323000D01*
X141303102Y-69362774D01*
X141114744Y-69440795D01*
X140945226Y-69554063D01*
X140801063Y-69698226D01*
X140744419Y-69783000D01*
X131170969Y-69783000D01*
X131127500Y-69778719D01*
X131084031Y-69783000D01*
X124051469Y-69783000D01*
X124008000Y-69778719D01*
X123964531Y-69783000D01*
X121188457Y-69783000D01*
X121140257Y-69750794D01*
X120951899Y-69672773D01*
X120751940Y-69632999D01*
X120548062Y-69632999D01*
X120348103Y-69672773D01*
X120159745Y-69750794D01*
X120111545Y-69783000D01*
X117629549Y-69783000D01*
X117501536Y-69677942D01*
X117295674Y-69567906D01*
X117209673Y-69541818D01*
X117225000Y-69386207D01*
X117225000Y-68719794D01*
X117207853Y-68545701D01*
X117140094Y-68322327D01*
X117030058Y-68116464D01*
X116881975Y-67936025D01*
X116701536Y-67787942D01*
X116495674Y-67677906D01*
X116272300Y-67610147D01*
X116040000Y-67587267D01*
X115807701Y-67610147D01*
X115584327Y-67677906D01*
X115378465Y-67787942D01*
X115240001Y-67901577D01*
X115101536Y-67787942D01*
X114895674Y-67677906D01*
X114672300Y-67610147D01*
X114440000Y-67587267D01*
X114207701Y-67610147D01*
X113984327Y-67677906D01*
X113778465Y-67787942D01*
X113598026Y-67936025D01*
X113449943Y-68116464D01*
X113339906Y-68322326D01*
X113272147Y-68545700D01*
X113255000Y-68719793D01*
X113255000Y-69386206D01*
X113269979Y-69538292D01*
X113087246Y-69612150D01*
X112891881Y-69740275D01*
X112725266Y-69904052D01*
X112593804Y-70097187D01*
X112502546Y-70312258D01*
X112455000Y-70541000D01*
X112455000Y-70816000D01*
X113513000Y-70816000D01*
X113513000Y-70796000D01*
X113767000Y-70796000D01*
X113767000Y-70816000D01*
X113787000Y-70816000D01*
X113787000Y-71070000D01*
X113767000Y-71070000D01*
X113767000Y-72236361D01*
X113949744Y-72361803D01*
X113976147Y-72361399D01*
X114192754Y-72273850D01*
X114388119Y-72145725D01*
X114440169Y-72094562D01*
X114578464Y-72208058D01*
X114784326Y-72318094D01*
X115007700Y-72385853D01*
X115240000Y-72408733D01*
X115472299Y-72385853D01*
X115695673Y-72318094D01*
X115901535Y-72208058D01*
X115955001Y-72164180D01*
X115955001Y-73293420D01*
X115330422Y-73918000D01*
X109123454Y-73918000D01*
X109075256Y-73885795D01*
X108886898Y-73807774D01*
X108686939Y-73768000D01*
X108483061Y-73768000D01*
X108283102Y-73807774D01*
X108094744Y-73885795D01*
X107925226Y-73999063D01*
X107781063Y-74143226D01*
X107667795Y-74312744D01*
X107589774Y-74501102D01*
X107550000Y-74701061D01*
X105784739Y-74701061D01*
X105770226Y-74628102D01*
X105692205Y-74439744D01*
X105578937Y-74270226D01*
X105434774Y-74126063D01*
X105265256Y-74012795D01*
X105076898Y-73934774D01*
X104876939Y-73895000D01*
X104673061Y-73895000D01*
X104473102Y-73934774D01*
X104284744Y-74012795D01*
X104115226Y-74126063D01*
X103971063Y-74270226D01*
X103857795Y-74439744D01*
X103779774Y-74628102D01*
X103768465Y-74684956D01*
X102528951Y-75924471D01*
X102495184Y-75952183D01*
X102467471Y-75985951D01*
X102467468Y-75985954D01*
X102384590Y-76086941D01*
X102302412Y-76240687D01*
X102251805Y-76407510D01*
X102234719Y-76581000D01*
X102239001Y-76624479D01*
X102239000Y-85105210D01*
X102145495Y-85167688D01*
X101931688Y-85381495D01*
X101763701Y-85632905D01*
X101647989Y-85912257D01*
X101589000Y-86208816D01*
X89660000Y-86208816D01*
X89660000Y-71070000D01*
X112455000Y-71070000D01*
X112455000Y-71345000D01*
X112502546Y-71573742D01*
X112593804Y-71788813D01*
X112725266Y-71981948D01*
X112891881Y-72145725D01*
X113087246Y-72273850D01*
X113303853Y-72361399D01*
X113330256Y-72361803D01*
X113513000Y-72236361D01*
X113513000Y-71070000D01*
X112455000Y-71070000D01*
X89660000Y-71070000D01*
X89660000Y-68093560D01*
X90001554Y-68435114D01*
X90515021Y-68778201D01*
X91085554Y-69014524D01*
X91691229Y-69135000D01*
X92308771Y-69135000D01*
X92914446Y-69014524D01*
X93484979Y-68778201D01*
X93998446Y-68435114D01*
X94435114Y-67998446D01*
X94778201Y-67484979D01*
X95014524Y-66914446D01*
X95135000Y-66308771D01*
X95135000Y-65691229D01*
X95014524Y-65085554D01*
X94778201Y-64515021D01*
X94435114Y-64001554D01*
X94093560Y-63660000D01*
X110905594Y-63660000D01*
X110760987Y-63737294D01*
M02*
