G04 #@! TF.GenerationSoftware,KiCad,Pcbnew,(5.1.2-1)-1*
G04 #@! TF.CreationDate,2019-08-25T18:33:29+09:00*
G04 #@! TF.ProjectId,mmk3,6d6d6b33-2e6b-4696-9361-645f70636258,rev?*
G04 #@! TF.SameCoordinates,Original*
G04 #@! TF.FileFunction,Legend,Bot*
G04 #@! TF.FilePolarity,Positive*
%FSLAX46Y46*%
G04 Gerber Fmt 4.6, Leading zero omitted, Abs format (unit mm)*
G04 Created by KiCad (PCBNEW (5.1.2-1)-1) date 2019-08-25 18:33:29*
%MOMM*%
%LPD*%
G04 APERTURE LIST*
%ADD10C,0.150000*%
G04 APERTURE END LIST*
D10*
X170138023Y-108729619D02*
X170090404Y-108682000D01*
X169995166Y-108634380D01*
X169757071Y-108634380D01*
X169661833Y-108682000D01*
X169614214Y-108729619D01*
X169566595Y-108824857D01*
X169566595Y-108920095D01*
X169614214Y-109062952D01*
X170185642Y-109634380D01*
X169566595Y-109634380D01*
X169138023Y-109253428D02*
X168376119Y-109253428D01*
X167423738Y-109634380D02*
X167899928Y-109634380D01*
X167899928Y-108634380D01*
X166661833Y-109634380D02*
X166661833Y-109110571D01*
X166709452Y-109015333D01*
X166804690Y-108967714D01*
X166995166Y-108967714D01*
X167090404Y-109015333D01*
X166661833Y-109586761D02*
X166757071Y-109634380D01*
X166995166Y-109634380D01*
X167090404Y-109586761D01*
X167138023Y-109491523D01*
X167138023Y-109396285D01*
X167090404Y-109301047D01*
X166995166Y-109253428D01*
X166757071Y-109253428D01*
X166661833Y-109205809D01*
X166280880Y-108967714D02*
X166042785Y-109634380D01*
X165804690Y-108967714D02*
X166042785Y-109634380D01*
X166138023Y-109872476D01*
X166185642Y-109920095D01*
X166280880Y-109967714D01*
X165042785Y-109586761D02*
X165138023Y-109634380D01*
X165328500Y-109634380D01*
X165423738Y-109586761D01*
X165471357Y-109491523D01*
X165471357Y-109110571D01*
X165423738Y-109015333D01*
X165328500Y-108967714D01*
X165138023Y-108967714D01*
X165042785Y-109015333D01*
X164995166Y-109110571D01*
X164995166Y-109205809D01*
X165471357Y-109301047D01*
X164566595Y-109634380D02*
X164566595Y-108967714D01*
X164566595Y-109158190D02*
X164518976Y-109062952D01*
X164471357Y-109015333D01*
X164376119Y-108967714D01*
X164280880Y-108967714D01*
X163185642Y-109634380D02*
X163185642Y-108634380D01*
X162804690Y-108634380D01*
X162709452Y-108682000D01*
X162661833Y-108729619D01*
X162614214Y-108824857D01*
X162614214Y-108967714D01*
X162661833Y-109062952D01*
X162709452Y-109110571D01*
X162804690Y-109158190D01*
X163185642Y-109158190D01*
X161614214Y-109539142D02*
X161661833Y-109586761D01*
X161804690Y-109634380D01*
X161899928Y-109634380D01*
X162042785Y-109586761D01*
X162138023Y-109491523D01*
X162185642Y-109396285D01*
X162233261Y-109205809D01*
X162233261Y-109062952D01*
X162185642Y-108872476D01*
X162138023Y-108777238D01*
X162042785Y-108682000D01*
X161899928Y-108634380D01*
X161804690Y-108634380D01*
X161661833Y-108682000D01*
X161614214Y-108729619D01*
X160852309Y-109110571D02*
X160709452Y-109158190D01*
X160661833Y-109205809D01*
X160614214Y-109301047D01*
X160614214Y-109443904D01*
X160661833Y-109539142D01*
X160709452Y-109586761D01*
X160804690Y-109634380D01*
X161185642Y-109634380D01*
X161185642Y-108634380D01*
X160852309Y-108634380D01*
X160757071Y-108682000D01*
X160709452Y-108729619D01*
X160661833Y-108824857D01*
X160661833Y-108920095D01*
X160709452Y-109015333D01*
X160757071Y-109062952D01*
X160852309Y-109110571D01*
X161185642Y-109110571D01*
X170138023Y-110379619D02*
X170090404Y-110332000D01*
X169995166Y-110284380D01*
X169757071Y-110284380D01*
X169661833Y-110332000D01*
X169614214Y-110379619D01*
X169566595Y-110474857D01*
X169566595Y-110570095D01*
X169614214Y-110712952D01*
X170185642Y-111284380D01*
X169566595Y-111284380D01*
X168947547Y-110284380D02*
X168852309Y-110284380D01*
X168757071Y-110332000D01*
X168709452Y-110379619D01*
X168661833Y-110474857D01*
X168614214Y-110665333D01*
X168614214Y-110903428D01*
X168661833Y-111093904D01*
X168709452Y-111189142D01*
X168757071Y-111236761D01*
X168852309Y-111284380D01*
X168947547Y-111284380D01*
X169042785Y-111236761D01*
X169090404Y-111189142D01*
X169138023Y-111093904D01*
X169185642Y-110903428D01*
X169185642Y-110665333D01*
X169138023Y-110474857D01*
X169090404Y-110379619D01*
X169042785Y-110332000D01*
X168947547Y-110284380D01*
X167661833Y-111284380D02*
X168233261Y-111284380D01*
X167947547Y-111284380D02*
X167947547Y-110284380D01*
X168042785Y-110427238D01*
X168138023Y-110522476D01*
X168233261Y-110570095D01*
X167185642Y-111284380D02*
X166995166Y-111284380D01*
X166899928Y-111236761D01*
X166852309Y-111189142D01*
X166757071Y-111046285D01*
X166709452Y-110855809D01*
X166709452Y-110474857D01*
X166757071Y-110379619D01*
X166804690Y-110332000D01*
X166899928Y-110284380D01*
X167090404Y-110284380D01*
X167185642Y-110332000D01*
X167233261Y-110379619D01*
X167280880Y-110474857D01*
X167280880Y-110712952D01*
X167233261Y-110808190D01*
X167185642Y-110855809D01*
X167090404Y-110903428D01*
X166899928Y-110903428D01*
X166804690Y-110855809D01*
X166757071Y-110808190D01*
X166709452Y-110712952D01*
X166280880Y-110903428D02*
X165518976Y-110903428D01*
X164852309Y-110284380D02*
X164757071Y-110284380D01*
X164661833Y-110332000D01*
X164614214Y-110379619D01*
X164566595Y-110474857D01*
X164518976Y-110665333D01*
X164518976Y-110903428D01*
X164566595Y-111093904D01*
X164614214Y-111189142D01*
X164661833Y-111236761D01*
X164757071Y-111284380D01*
X164852309Y-111284380D01*
X164947547Y-111236761D01*
X164995166Y-111189142D01*
X165042785Y-111093904D01*
X165090404Y-110903428D01*
X165090404Y-110665333D01*
X165042785Y-110474857D01*
X164995166Y-110379619D01*
X164947547Y-110332000D01*
X164852309Y-110284380D01*
X163947547Y-110712952D02*
X164042785Y-110665333D01*
X164090404Y-110617714D01*
X164138023Y-110522476D01*
X164138023Y-110474857D01*
X164090404Y-110379619D01*
X164042785Y-110332000D01*
X163947547Y-110284380D01*
X163757071Y-110284380D01*
X163661833Y-110332000D01*
X163614214Y-110379619D01*
X163566595Y-110474857D01*
X163566595Y-110522476D01*
X163614214Y-110617714D01*
X163661833Y-110665333D01*
X163757071Y-110712952D01*
X163947547Y-110712952D01*
X164042785Y-110760571D01*
X164090404Y-110808190D01*
X164138023Y-110903428D01*
X164138023Y-111093904D01*
X164090404Y-111189142D01*
X164042785Y-111236761D01*
X163947547Y-111284380D01*
X163757071Y-111284380D01*
X163661833Y-111236761D01*
X163614214Y-111189142D01*
X163566595Y-111093904D01*
X163566595Y-110903428D01*
X163614214Y-110808190D01*
X163661833Y-110760571D01*
X163757071Y-110712952D01*
X163138023Y-110903428D02*
X162376119Y-110903428D01*
X161376119Y-111284380D02*
X161947547Y-111284380D01*
X161661833Y-111284380D02*
X161661833Y-110284380D01*
X161757071Y-110427238D01*
X161852309Y-110522476D01*
X161947547Y-110570095D01*
X160423738Y-111284380D02*
X160995166Y-111284380D01*
X160709452Y-111284380D02*
X160709452Y-110284380D01*
X160804690Y-110427238D01*
X160899928Y-110522476D01*
X160995166Y-110570095D01*
X169471357Y-112458190D02*
X169518976Y-112410571D01*
X169614214Y-112362952D01*
X169709452Y-112362952D01*
X169804690Y-112410571D01*
X169852309Y-112458190D01*
X169899928Y-112553428D01*
X169899928Y-112648666D01*
X169852309Y-112743904D01*
X169804690Y-112791523D01*
X169709452Y-112839142D01*
X169614214Y-112839142D01*
X169518976Y-112791523D01*
X169471357Y-112743904D01*
X169471357Y-112362952D02*
X169471357Y-112743904D01*
X169423738Y-112791523D01*
X169376119Y-112791523D01*
X169280880Y-112743904D01*
X169233261Y-112648666D01*
X169233261Y-112410571D01*
X169328500Y-112267714D01*
X169471357Y-112172476D01*
X169661833Y-112124857D01*
X169852309Y-112172476D01*
X169995166Y-112267714D01*
X170090404Y-112410571D01*
X170138023Y-112601047D01*
X170090404Y-112791523D01*
X169995166Y-112934380D01*
X169852309Y-113029619D01*
X169661833Y-113077238D01*
X169471357Y-113029619D01*
X169328500Y-112934380D01*
X168852309Y-112886761D02*
X168757071Y-112934380D01*
X168566595Y-112934380D01*
X168471357Y-112886761D01*
X168423738Y-112791523D01*
X168423738Y-112743904D01*
X168471357Y-112648666D01*
X168566595Y-112601047D01*
X168709452Y-112601047D01*
X168804690Y-112553428D01*
X168852309Y-112458190D01*
X168852309Y-112410571D01*
X168804690Y-112315333D01*
X168709452Y-112267714D01*
X168566595Y-112267714D01*
X168471357Y-112315333D01*
X167995166Y-112934380D02*
X167995166Y-112267714D01*
X167995166Y-111934380D02*
X168042785Y-111982000D01*
X167995166Y-112029619D01*
X167947547Y-111982000D01*
X167995166Y-111934380D01*
X167995166Y-112029619D01*
X167090404Y-112267714D02*
X167090404Y-113077238D01*
X167138023Y-113172476D01*
X167185642Y-113220095D01*
X167280880Y-113267714D01*
X167423738Y-113267714D01*
X167518976Y-113220095D01*
X167090404Y-112886761D02*
X167185642Y-112934380D01*
X167376119Y-112934380D01*
X167471357Y-112886761D01*
X167518976Y-112839142D01*
X167566595Y-112743904D01*
X167566595Y-112458190D01*
X167518976Y-112362952D01*
X167471357Y-112315333D01*
X167376119Y-112267714D01*
X167185642Y-112267714D01*
X167090404Y-112315333D01*
X166614214Y-112267714D02*
X166614214Y-112934380D01*
X166614214Y-112362952D02*
X166566595Y-112315333D01*
X166471357Y-112267714D01*
X166328500Y-112267714D01*
X166233261Y-112315333D01*
X166185642Y-112410571D01*
X166185642Y-112934380D01*
X165280880Y-112934380D02*
X165280880Y-112410571D01*
X165328500Y-112315333D01*
X165423738Y-112267714D01*
X165614214Y-112267714D01*
X165709452Y-112315333D01*
X165280880Y-112886761D02*
X165376119Y-112934380D01*
X165614214Y-112934380D01*
X165709452Y-112886761D01*
X165757071Y-112791523D01*
X165757071Y-112696285D01*
X165709452Y-112601047D01*
X165614214Y-112553428D01*
X165376119Y-112553428D01*
X165280880Y-112505809D01*
X164661833Y-112934380D02*
X164757071Y-112886761D01*
X164804690Y-112791523D01*
X164804690Y-111934380D01*
X163852309Y-112886761D02*
X163947547Y-112934380D01*
X164138023Y-112934380D01*
X164233261Y-112886761D01*
X164280880Y-112839142D01*
X164328500Y-112743904D01*
X164328500Y-112458190D01*
X164280880Y-112362952D01*
X164233261Y-112315333D01*
X164138023Y-112267714D01*
X163947547Y-112267714D01*
X163852309Y-112315333D01*
X163280880Y-112934380D02*
X163376119Y-112886761D01*
X163423738Y-112839142D01*
X163471357Y-112743904D01*
X163471357Y-112458190D01*
X163423738Y-112362952D01*
X163376119Y-112315333D01*
X163280880Y-112267714D01*
X163138023Y-112267714D01*
X163042785Y-112315333D01*
X162995166Y-112362952D01*
X162947547Y-112458190D01*
X162947547Y-112743904D01*
X162995166Y-112839142D01*
X163042785Y-112886761D01*
X163138023Y-112934380D01*
X163280880Y-112934380D01*
X162518976Y-112934380D02*
X162518976Y-112267714D01*
X162518976Y-112362952D02*
X162471357Y-112315333D01*
X162376119Y-112267714D01*
X162233261Y-112267714D01*
X162138023Y-112315333D01*
X162090404Y-112410571D01*
X162090404Y-112934380D01*
X162090404Y-112410571D02*
X162042785Y-112315333D01*
X161947547Y-112267714D01*
X161804690Y-112267714D01*
X161709452Y-112315333D01*
X161661833Y-112410571D01*
X161661833Y-112934380D01*
X161185642Y-112267714D02*
X161185642Y-113267714D01*
X161185642Y-112315333D02*
X161090404Y-112267714D01*
X160899928Y-112267714D01*
X160804690Y-112315333D01*
X160757071Y-112362952D01*
X160709452Y-112458190D01*
X160709452Y-112743904D01*
X160757071Y-112839142D01*
X160804690Y-112886761D01*
X160899928Y-112934380D01*
X161090404Y-112934380D01*
X161185642Y-112886761D01*
X160138023Y-112934380D02*
X160233261Y-112886761D01*
X160280880Y-112839142D01*
X160328500Y-112743904D01*
X160328500Y-112458190D01*
X160280880Y-112362952D01*
X160233261Y-112315333D01*
X160138023Y-112267714D01*
X159995166Y-112267714D01*
X159899928Y-112315333D01*
X159852309Y-112362952D01*
X159804690Y-112458190D01*
X159804690Y-112743904D01*
X159852309Y-112839142D01*
X159899928Y-112886761D01*
X159995166Y-112934380D01*
X160138023Y-112934380D01*
X159423738Y-112886761D02*
X159328500Y-112934380D01*
X159138023Y-112934380D01*
X159042785Y-112886761D01*
X158995166Y-112791523D01*
X158995166Y-112743904D01*
X159042785Y-112648666D01*
X159138023Y-112601047D01*
X159280880Y-112601047D01*
X159376119Y-112553428D01*
X159423738Y-112458190D01*
X159423738Y-112410571D01*
X159376119Y-112315333D01*
X159280880Y-112267714D01*
X159138023Y-112267714D01*
X159042785Y-112315333D01*
X158185642Y-112886761D02*
X158280880Y-112934380D01*
X158471357Y-112934380D01*
X158566595Y-112886761D01*
X158614214Y-112791523D01*
X158614214Y-112410571D01*
X158566595Y-112315333D01*
X158471357Y-112267714D01*
X158280880Y-112267714D01*
X158185642Y-112315333D01*
X158138023Y-112410571D01*
X158138023Y-112505809D01*
X158614214Y-112601047D01*
X170090404Y-114584380D02*
X170090404Y-113584380D01*
X169661833Y-114584380D02*
X169661833Y-114060571D01*
X169709452Y-113965333D01*
X169804690Y-113917714D01*
X169947547Y-113917714D01*
X170042785Y-113965333D01*
X170090404Y-114012952D01*
X169328500Y-113917714D02*
X168947547Y-113917714D01*
X169185642Y-113584380D02*
X169185642Y-114441523D01*
X169138023Y-114536761D01*
X169042785Y-114584380D01*
X168947547Y-114584380D01*
X168757071Y-113917714D02*
X168376119Y-113917714D01*
X168614214Y-113584380D02*
X168614214Y-114441523D01*
X168566595Y-114536761D01*
X168471357Y-114584380D01*
X168376119Y-114584380D01*
X168042785Y-113917714D02*
X168042785Y-114917714D01*
X168042785Y-113965333D02*
X167947547Y-113917714D01*
X167757071Y-113917714D01*
X167661833Y-113965333D01*
X167614214Y-114012952D01*
X167566595Y-114108190D01*
X167566595Y-114393904D01*
X167614214Y-114489142D01*
X167661833Y-114536761D01*
X167757071Y-114584380D01*
X167947547Y-114584380D01*
X168042785Y-114536761D01*
X167185642Y-114536761D02*
X167090404Y-114584380D01*
X166899928Y-114584380D01*
X166804690Y-114536761D01*
X166757071Y-114441523D01*
X166757071Y-114393904D01*
X166804690Y-114298666D01*
X166899928Y-114251047D01*
X167042785Y-114251047D01*
X167138023Y-114203428D01*
X167185642Y-114108190D01*
X167185642Y-114060571D01*
X167138023Y-113965333D01*
X167042785Y-113917714D01*
X166899928Y-113917714D01*
X166804690Y-113965333D01*
X166328500Y-114489142D02*
X166280880Y-114536761D01*
X166328500Y-114584380D01*
X166376119Y-114536761D01*
X166328500Y-114489142D01*
X166328500Y-114584380D01*
X166328500Y-113965333D02*
X166280880Y-114012952D01*
X166328500Y-114060571D01*
X166376119Y-114012952D01*
X166328500Y-113965333D01*
X166328500Y-114060571D01*
X165138023Y-113536761D02*
X165995166Y-114822476D01*
X164090404Y-113536761D02*
X164947547Y-114822476D01*
X163804690Y-114536761D02*
X163709452Y-114584380D01*
X163518976Y-114584380D01*
X163423738Y-114536761D01*
X163376119Y-114441523D01*
X163376119Y-114393904D01*
X163423738Y-114298666D01*
X163518976Y-114251047D01*
X163661833Y-114251047D01*
X163757071Y-114203428D01*
X163804690Y-114108190D01*
X163804690Y-114060571D01*
X163757071Y-113965333D01*
X163661833Y-113917714D01*
X163518976Y-113917714D01*
X163423738Y-113965333D01*
X162947547Y-114584380D02*
X162947547Y-113917714D01*
X162947547Y-113584380D02*
X162995166Y-113632000D01*
X162947547Y-113679619D01*
X162899928Y-113632000D01*
X162947547Y-113584380D01*
X162947547Y-113679619D01*
X162042785Y-113917714D02*
X162042785Y-114727238D01*
X162090404Y-114822476D01*
X162138023Y-114870095D01*
X162233261Y-114917714D01*
X162376119Y-114917714D01*
X162471357Y-114870095D01*
X162042785Y-114536761D02*
X162138023Y-114584380D01*
X162328500Y-114584380D01*
X162423738Y-114536761D01*
X162471357Y-114489142D01*
X162518976Y-114393904D01*
X162518976Y-114108190D01*
X162471357Y-114012952D01*
X162423738Y-113965333D01*
X162328500Y-113917714D01*
X162138023Y-113917714D01*
X162042785Y-113965333D01*
X161566595Y-113917714D02*
X161566595Y-114584380D01*
X161566595Y-114012952D02*
X161518976Y-113965333D01*
X161423738Y-113917714D01*
X161280880Y-113917714D01*
X161185642Y-113965333D01*
X161138023Y-114060571D01*
X161138023Y-114584380D01*
X160233261Y-114584380D02*
X160233261Y-114060571D01*
X160280880Y-113965333D01*
X160376119Y-113917714D01*
X160566595Y-113917714D01*
X160661833Y-113965333D01*
X160233261Y-114536761D02*
X160328500Y-114584380D01*
X160566595Y-114584380D01*
X160661833Y-114536761D01*
X160709452Y-114441523D01*
X160709452Y-114346285D01*
X160661833Y-114251047D01*
X160566595Y-114203428D01*
X160328500Y-114203428D01*
X160233261Y-114155809D01*
X159614214Y-114584380D02*
X159709452Y-114536761D01*
X159757071Y-114441523D01*
X159757071Y-113584380D01*
X158804690Y-114536761D02*
X158899928Y-114584380D01*
X159090404Y-114584380D01*
X159185642Y-114536761D01*
X159233261Y-114489142D01*
X159280880Y-114393904D01*
X159280880Y-114108190D01*
X159233261Y-114012952D01*
X159185642Y-113965333D01*
X159090404Y-113917714D01*
X158899928Y-113917714D01*
X158804690Y-113965333D01*
X158233261Y-114584380D02*
X158328500Y-114536761D01*
X158376119Y-114489142D01*
X158423738Y-114393904D01*
X158423738Y-114108190D01*
X158376119Y-114012952D01*
X158328500Y-113965333D01*
X158233261Y-113917714D01*
X158090404Y-113917714D01*
X157995166Y-113965333D01*
X157947547Y-114012952D01*
X157899928Y-114108190D01*
X157899928Y-114393904D01*
X157947547Y-114489142D01*
X157995166Y-114536761D01*
X158090404Y-114584380D01*
X158233261Y-114584380D01*
X157471357Y-114584380D02*
X157471357Y-113917714D01*
X157471357Y-114012952D02*
X157423738Y-113965333D01*
X157328500Y-113917714D01*
X157185642Y-113917714D01*
X157090404Y-113965333D01*
X157042785Y-114060571D01*
X157042785Y-114584380D01*
X157042785Y-114060571D02*
X156995166Y-113965333D01*
X156899928Y-113917714D01*
X156757071Y-113917714D01*
X156661833Y-113965333D01*
X156614214Y-114060571D01*
X156614214Y-114584380D01*
X156138023Y-113917714D02*
X156138023Y-114917714D01*
X156138023Y-113965333D02*
X156042785Y-113917714D01*
X155852309Y-113917714D01*
X155757071Y-113965333D01*
X155709452Y-114012952D01*
X155661833Y-114108190D01*
X155661833Y-114393904D01*
X155709452Y-114489142D01*
X155757071Y-114536761D01*
X155852309Y-114584380D01*
X156042785Y-114584380D01*
X156138023Y-114536761D01*
X155090404Y-114584380D02*
X155185642Y-114536761D01*
X155233261Y-114489142D01*
X155280880Y-114393904D01*
X155280880Y-114108190D01*
X155233261Y-114012952D01*
X155185642Y-113965333D01*
X155090404Y-113917714D01*
X154947547Y-113917714D01*
X154852309Y-113965333D01*
X154804690Y-114012952D01*
X154757071Y-114108190D01*
X154757071Y-114393904D01*
X154804690Y-114489142D01*
X154852309Y-114536761D01*
X154947547Y-114584380D01*
X155090404Y-114584380D01*
X154376119Y-114536761D02*
X154280880Y-114584380D01*
X154090404Y-114584380D01*
X153995166Y-114536761D01*
X153947547Y-114441523D01*
X153947547Y-114393904D01*
X153995166Y-114298666D01*
X154090404Y-114251047D01*
X154233261Y-114251047D01*
X154328500Y-114203428D01*
X154376119Y-114108190D01*
X154376119Y-114060571D01*
X154328500Y-113965333D01*
X154233261Y-113917714D01*
X154090404Y-113917714D01*
X153995166Y-113965333D01*
X153138023Y-114536761D02*
X153233261Y-114584380D01*
X153423738Y-114584380D01*
X153518976Y-114536761D01*
X153566595Y-114441523D01*
X153566595Y-114060571D01*
X153518976Y-113965333D01*
X153423738Y-113917714D01*
X153233261Y-113917714D01*
X153138023Y-113965333D01*
X153090404Y-114060571D01*
X153090404Y-114155809D01*
X153566595Y-114251047D01*
X152661833Y-114489142D02*
X152614214Y-114536761D01*
X152661833Y-114584380D01*
X152709452Y-114536761D01*
X152661833Y-114489142D01*
X152661833Y-114584380D01*
X151757071Y-114536761D02*
X151852309Y-114584380D01*
X152042785Y-114584380D01*
X152138023Y-114536761D01*
X152185642Y-114489142D01*
X152233261Y-114393904D01*
X152233261Y-114108190D01*
X152185642Y-114012952D01*
X152138023Y-113965333D01*
X152042785Y-113917714D01*
X151852309Y-113917714D01*
X151757071Y-113965333D01*
X151185642Y-114584380D02*
X151280880Y-114536761D01*
X151328500Y-114489142D01*
X151376119Y-114393904D01*
X151376119Y-114108190D01*
X151328500Y-114012952D01*
X151280880Y-113965333D01*
X151185642Y-113917714D01*
X151042785Y-113917714D01*
X150947547Y-113965333D01*
X150899928Y-114012952D01*
X150852309Y-114108190D01*
X150852309Y-114393904D01*
X150899928Y-114489142D01*
X150947547Y-114536761D01*
X151042785Y-114584380D01*
X151185642Y-114584380D01*
X150423738Y-114584380D02*
X150423738Y-113917714D01*
X150423738Y-114012952D02*
X150376119Y-113965333D01*
X150280880Y-113917714D01*
X150138023Y-113917714D01*
X150042785Y-113965333D01*
X149995166Y-114060571D01*
X149995166Y-114584380D01*
X149995166Y-114060571D02*
X149947547Y-113965333D01*
X149852309Y-113917714D01*
X149709452Y-113917714D01*
X149614214Y-113965333D01*
X149566595Y-114060571D01*
X149566595Y-114584380D01*
M02*
