M48
; DRILL file {KiCad (5.1.2-1)-1} date 2019 August 25, Sunday 18:34:10
; FORMAT={-:-/ absolute / inch / decimal}
; #@! TF.CreationDate,2019-08-25T18:34:10+09:00
; #@! TF.GenerationSoftware,Kicad,Pcbnew,(5.1.2-1)-1
FMAT,2
INCH
T1C0.0157
T2C0.0276
T3C0.0394
T4C0.0400
T5C0.0984
T6C0.0787
%
G90
G05
T1
X4.125Y-2.95
X4.125Y-3.25
X4.275Y-2.945
X4.275Y-2.995
X4.4Y-2.87
X4.75Y-2.9
X4.75Y-3.245
X4.75Y-2.7822
X4.925Y-3.245
X5.0Y-3.245
X5.4998Y-3.512
X5.5Y-3.2
X5.54Y-3.2
X5.54Y-3.5122
X5.575Y-2.77
X5.58Y-3.2
X5.58Y-3.512
X5.68Y-2.82
T3
X6.3Y-3.4
X6.3984Y-3.4
X6.4969Y-3.4
X4.06Y-3.4
X4.1584Y-3.4
X4.2569Y-3.4
X5.2Y-3.4
X5.2984Y-3.4
X5.3969Y-3.4
T4
X6.3Y-2.645
X6.3Y-2.745
X6.4Y-2.645
X6.4Y-2.745
X6.5Y-2.645
X6.5Y-2.745
T5
X3.622Y-2.5984
X6.9685Y-2.5984
X3.622Y-4.5276
X6.9685Y-4.5276
T6
X6.2252Y-3.6756
X6.5717Y-3.6756
X3.9852Y-3.6756
X4.3317Y-3.6756
X5.1252Y-3.6756
X5.4717Y-3.6756
T2
G00X4.3933Y-2.5543
M15
G01X4.3933Y-2.6015
M16
G05
G00X4.474Y-2.7822
M15
G01X4.474Y-2.7822
M16
G05
G00X4.5055Y-2.7294
M15
G01X4.5055Y-2.7294
M16
G05
G00X4.537Y-2.7822
M15
G01X4.537Y-2.7822
M16
G05
G00X4.5685Y-2.7294
M15
G01X4.5685Y-2.7294
M16
G05
G00X4.6Y-2.7822
M15
G01X4.6Y-2.7822
M16
G05
G00X4.6807Y-2.5543
M15
G01X4.6807Y-2.6015
M16
G05
T0
M30
